<svg id="Layer_1" data-name="Layer 1" xmlns="http://www.w3.org/2000/svg" xmlns:xlink="http://www.w3.org/1999/xlink" viewBox="0 0 85.46 85.46"><defs><style>.cls-1,.cls-3{fill:none;}.cls-2{clip-path:url(#clip-path);}.cls-3{stroke:#302f2e;stroke-miterlimit:10;}.cls-4{clip-path:url(#clip-path-2);}.cls-5{clip-path:url(#clip-path-3);}.cls-6{clip-path:url(#clip-path-4);}.cls-7{clip-path:url(#clip-path-5);}.cls-8{clip-path:url(#clip-path-6);}.cls-9{clip-path:url(#clip-path-7);}.cls-10{clip-path:url(#clip-path-8);}.cls-11{clip-path:url(#clip-path-9);}.cls-12{clip-path:url(#clip-path-10);}.cls-13{clip-path:url(#clip-path-11);}.cls-14{clip-path:url(#clip-path-12);}.cls-15{clip-path:url(#clip-path-13);}.cls-16{clip-path:url(#clip-path-14);}.cls-17{clip-path:url(#clip-path-15);}.cls-18{clip-path:url(#clip-path-16);}</style><clipPath id="clip-path"><rect class="cls-1" width="21.37" height="21.37"/></clipPath><clipPath id="clip-path-2"><rect class="cls-1" x="21.37" width="21.37" height="21.37" transform="translate(64.1 21.37) rotate(-180)"/></clipPath><clipPath id="clip-path-3"><rect class="cls-1" y="21.37" width="21.37" height="21.37"/></clipPath><clipPath id="clip-path-4"><rect class="cls-1" x="21.37" y="21.37" width="21.37" height="21.37" transform="translate(64.1 64.1) rotate(-180)"/></clipPath><clipPath id="clip-path-5"><rect class="cls-1" y="64.1" width="21.37" height="21.37" transform="translate(-64.1 85.46) rotate(-90)"/></clipPath><clipPath id="clip-path-6"><rect class="cls-1" y="42.73" width="21.37" height="21.37" transform="translate(64.1 42.73) rotate(90)"/></clipPath><clipPath id="clip-path-7"><rect class="cls-1" x="21.37" y="64.1" width="21.37" height="21.37" transform="translate(-42.73 106.83) rotate(-90)"/></clipPath><clipPath id="clip-path-8"><rect class="cls-1" x="21.37" y="42.73" width="21.37" height="21.37" transform="translate(85.46 21.37) rotate(90)"/></clipPath><clipPath id="clip-path-9"><rect class="cls-1" x="42.73" width="21.37" height="21.37"/></clipPath><clipPath id="clip-path-10"><rect class="cls-1" x="64.1" width="21.37" height="21.37" transform="translate(149.56 21.37) rotate(-180)"/></clipPath><clipPath id="clip-path-11"><rect class="cls-1" x="42.73" y="21.37" width="21.37" height="21.37"/></clipPath><clipPath id="clip-path-12"><rect class="cls-1" x="64.1" y="21.37" width="21.37" height="21.37" transform="translate(149.56 64.1) rotate(-180)"/></clipPath><clipPath id="clip-path-13"><rect class="cls-1" x="42.73" y="64.1" width="21.37" height="21.37" transform="translate(-21.37 128.19) rotate(-90)"/></clipPath><clipPath id="clip-path-14"><rect class="cls-1" x="42.73" y="42.73" width="21.37" height="21.37" transform="translate(106.83 0) rotate(90)"/></clipPath><clipPath id="clip-path-15"><rect class="cls-1" x="64.1" y="64.1" width="21.37" height="21.37" transform="translate(0 149.56) rotate(-90)"/></clipPath><clipPath id="clip-path-16"><rect class="cls-1" x="64.1" y="42.73" width="21.37" height="21.37" transform="translate(128.19 -21.37) rotate(90)"/></clipPath></defs><title>pattern</title><g class="cls-2"><line class="cls-3" x1="14.01" y1="-8.66" x2="-8.66" y2="14.01"/><line class="cls-3" x1="30.02" y1="7.36" x2="7.36" y2="30.02"/><line class="cls-3" x1="24.68" y1="2.02" x2="2.02" y2="24.68"/><line class="cls-3" x1="19.34" y1="-3.32" x2="-3.32" y2="19.34"/></g><g class="cls-4"><line class="cls-3" x1="28.73" y1="-8.66" x2="51.39" y2="14.01"/><line class="cls-3" x1="12.71" y1="7.36" x2="35.37" y2="30.02"/><line class="cls-3" x1="18.05" y1="2.02" x2="40.71" y2="24.68"/><line class="cls-3" x1="23.39" y1="-3.32" x2="46.05" y2="19.34"/></g><g class="cls-5"><line class="cls-3" x1="14.01" y1="12.71" x2="-8.66" y2="35.37"/><line class="cls-3" x1="30.02" y1="28.73" x2="7.36" y2="51.39"/><line class="cls-3" x1="24.68" y1="23.39" x2="2.02" y2="46.05"/><line class="cls-3" x1="19.34" y1="18.05" x2="-3.32" y2="40.71"/></g><g class="cls-6"><line class="cls-3" x1="28.73" y1="12.71" x2="51.39" y2="35.37"/><line class="cls-3" x1="12.71" y1="28.73" x2="35.37" y2="51.39"/><line class="cls-3" x1="18.05" y1="23.39" x2="40.71" y2="46.05"/><line class="cls-3" x1="23.39" y1="18.05" x2="46.05" y2="40.71"/></g><g class="cls-7"><line class="cls-3" x1="-8.66" y1="71.46" x2="14.01" y2="94.12"/><line class="cls-3" x1="7.36" y1="55.44" x2="30.02" y2="78.1"/><line class="cls-3" x1="2.02" y1="60.78" x2="24.68" y2="83.44"/><line class="cls-3" x1="-3.32" y1="66.12" x2="19.34" y2="88.78"/></g><g class="cls-8"><line class="cls-3" x1="-8.66" y1="56.74" x2="14.01" y2="34.08"/><line class="cls-3" x1="7.36" y1="72.75" x2="30.02" y2="50.09"/><line class="cls-3" x1="2.02" y1="67.41" x2="24.68" y2="44.75"/><line class="cls-3" x1="-3.32" y1="62.08" x2="19.34" y2="39.41"/></g><g class="cls-9"><line class="cls-3" x1="12.71" y1="71.46" x2="35.37" y2="94.12"/><line class="cls-3" x1="28.73" y1="55.44" x2="51.39" y2="78.1"/><line class="cls-3" x1="23.39" y1="60.78" x2="46.05" y2="83.44"/><line class="cls-3" x1="18.05" y1="66.12" x2="40.71" y2="88.78"/></g><g class="cls-10"><line class="cls-3" x1="12.71" y1="56.74" x2="35.37" y2="34.08"/><line class="cls-3" x1="28.73" y1="72.75" x2="51.39" y2="50.09"/><line class="cls-3" x1="23.39" y1="67.41" x2="46.05" y2="44.75"/><line class="cls-3" x1="18.05" y1="62.08" x2="40.71" y2="39.41"/></g><g class="cls-11"><line class="cls-3" x1="56.74" y1="-8.66" x2="34.08" y2="14.01"/><line class="cls-3" x1="72.75" y1="7.36" x2="50.09" y2="30.02"/><line class="cls-3" x1="67.41" y1="2.02" x2="44.75" y2="24.68"/><line class="cls-3" x1="62.08" y1="-3.32" x2="39.41" y2="19.34"/></g><g class="cls-12"><line class="cls-3" x1="71.46" y1="-8.66" x2="94.12" y2="14.01"/><line class="cls-3" x1="55.44" y1="7.36" x2="78.1" y2="30.02"/><line class="cls-3" x1="60.78" y1="2.02" x2="83.44" y2="24.68"/><line class="cls-3" x1="66.12" y1="-3.32" x2="88.78" y2="19.34"/></g><g class="cls-13"><line class="cls-3" x1="56.74" y1="12.71" x2="34.08" y2="35.37"/><line class="cls-3" x1="72.75" y1="28.73" x2="50.09" y2="51.39"/><line class="cls-3" x1="67.41" y1="23.39" x2="44.75" y2="46.05"/><line class="cls-3" x1="62.08" y1="18.05" x2="39.41" y2="40.71"/></g><g class="cls-14"><line class="cls-3" x1="71.46" y1="12.71" x2="94.12" y2="35.37"/><line class="cls-3" x1="55.44" y1="28.73" x2="78.1" y2="51.39"/><line class="cls-3" x1="60.78" y1="23.39" x2="83.44" y2="46.05"/><line class="cls-3" x1="66.12" y1="18.05" x2="88.78" y2="40.71"/></g><g class="cls-15"><line class="cls-3" x1="34.08" y1="71.46" x2="56.74" y2="94.12"/><line class="cls-3" x1="50.09" y1="55.44" x2="72.75" y2="78.1"/><line class="cls-3" x1="44.75" y1="60.78" x2="67.41" y2="83.44"/><line class="cls-3" x1="39.41" y1="66.12" x2="62.08" y2="88.78"/></g><g class="cls-16"><line class="cls-3" x1="34.08" y1="56.74" x2="56.74" y2="34.08"/><line class="cls-3" x1="50.09" y1="72.75" x2="72.75" y2="50.09"/><line class="cls-3" x1="44.75" y1="67.41" x2="67.41" y2="44.75"/><line class="cls-3" x1="39.41" y1="62.08" x2="62.08" y2="39.41"/></g><g class="cls-17"><line class="cls-3" x1="55.44" y1="71.46" x2="78.1" y2="94.12"/><line class="cls-3" x1="71.46" y1="55.44" x2="94.12" y2="78.1"/><line class="cls-3" x1="66.12" y1="60.78" x2="88.78" y2="83.44"/><line class="cls-3" x1="60.78" y1="66.12" x2="83.44" y2="88.78"/></g><g class="cls-18"><line class="cls-3" x1="55.44" y1="56.74" x2="78.1" y2="34.08"/><line class="cls-3" x1="71.46" y1="72.75" x2="94.12" y2="50.09"/><line class="cls-3" x1="66.12" y1="67.41" x2="88.78" y2="44.75"/><line class="cls-3" x1="60.78" y1="62.08" x2="83.44" y2="39.41"/></g></svg>