<svg enable-background="new 0 0 239 130" viewBox="0 0 239 130" xmlns="http://www.w3.org/2000/svg"><path clip-rule="evenodd" d="m0 0v109.1h40.3v-109.1zm29.8 97.3h-19.2v-85.5h19.2z" fill="#2f2f2e" fill-rule="evenodd"/><path clip-rule="evenodd" d="m10.6 11.8h19.2v85.5h-19.2z" fill="#fff" fill-rule="evenodd"/><path clip-rule="evenodd" d="m147.5 0v109.2h91.5v-109.2zm83.8 97.5h-22.3l-30.5-35.3v35.3h-19.4v-85.8h19.4v32.6l27.9-32.6h22.6l.4 1.2-35.7 40.3 38.2 43z" fill="#2f2f2e" fill-rule="evenodd"/><path clip-rule="evenodd" d="m231.7 96.3-.4 1.2h-22.4l-30.5-35.3v35.3h-19.4v-85.8h19.4v32.6l27.9-32.6h22.6l.3 1.2-35.7 40.3z" fill="#fff" fill-rule="evenodd"/><path clip-rule="evenodd" d="m48.2 0v109.2h91.4v-109.2zm80.4 97.9-1 .5-49.1-44.7v43.9h-19.3v-86.1l1.1-.4 49.2 44.3v-43.2h19.1z" fill="#2f2f2e" fill-rule="evenodd"/><path clip-rule="evenodd" d="m128.6 12.2v85.7l-.9.5-49.2-44.7v44h-19.3v-86.2l1.1-.4 49.2 44.3v-43.2z" fill="#fff" fill-rule="evenodd"/><g fill="#2f2f2e"><path d="m7.1 117.4c.8 0 1.5.1 2.2.4s1.4.7 1.9 1.2c0 0 .1.1.1.1v.1.1s0 .1-.1.1l-1 1.1s-.1.1-.1.1h-.1-.1s-.1 0-.1-.1c-.7-.7-1.7-1-2.6-1-1 0-2 .5-2.7 1.2-.7.8-1.1 1.8-1.1 2.8s.4 2.1 1.1 2.8c.7.8 1.7 1.2 2.7 1.2s1.9-.4 2.6-1c.1-.1.1-.1.2-.1s.2 0 .2.1l1.1 1.1s.1.1.1.1v.1.1s0 .1-.1.1c-1.1 1.1-2.6 1.7-4.2 1.7s-3.2-.7-4.4-1.8c-1.2-1.2-1.8-2.8-1.8-4.4s.6-3.3 1.8-4.4c1.1-1.1 2.7-1.7 4.4-1.7z"/><path d="m23 117.4c1.2 0 2.4.4 3.4 1 1 .7 1.8 1.7 2.3 2.8s.6 2.4.4 3.6-.8 2.3-1.7 3.2-2 1.5-3.1 1.7c-1.2.2-2.4.1-3.6-.3s-2.1-1.3-2.8-2.3-1-2.2-1-3.5c0-.8.2-1.6.5-2.4s.8-1.5 1.3-2c.6-.6 1.2-1 2-1.4.7-.3 1.5-.4 2.3-.4zm0 10.3c.8 0 1.5-.2 2.2-.7.6-.4 1.2-1.1 1.5-1.8s.4-1.5.2-2.3-.5-1.5-1.1-2.1-1.3-.9-2-1.1c-.8-.2-1.6-.1-2.3.2s-1.3.8-1.8 1.5c-.4.7-.7 1.4-.7 2.2 0 1.1.4 2.1 1.2 2.8.7.8 1.7 1.3 2.8 1.3z"/><path d="m36.9 117.6c0-.1 0-.1.1-.2.1 0 .1-.1.2-.1h.3.2c.1 0 .1.1.1.1l3.8 8.2 3.8-8.2c0-.1.1-.1.1-.1h.2.3c.1 0 .1 0 .2.1.1 0 .1.1.1.2l2 11.7v.2c0 .1 0 .1-.1.1 0 0-.1.1-.1.1h-.1-1.6c-.1 0-.1 0-.2-.1-.1 0-.1-.1-.1-.2l-1-6.6h-.1l-3 6.9c0 .1-.1.1-.1.1-.1 0-.1.1-.2 0h-.3c-.1 0-.1 0-.2 0s-.1-.1-.1-.1l-3-6.9h-.1l-1 6.6c0 .1-.1.1-.1.2-.1 0-.1.1-.2.1h-1.5-.1s-.1-.1-.1-.1-.1-.1-.1-.1 0-.1 0-.2z"/><path d="m56.1 117.6c0-.1 0-.1.1-.2.1 0 .1-.1.2-.1h.3.2c.1 0 .1.1.1.1l3.8 8.2 3.8-8.2c0-.1.1-.1.1-.1h.2.3c.1 0 .1 0 .2.1.1 0 .1.1.1.2l2 11.7v.1c0 .1 0 .1-.1.1 0 0-.1.1-.1.1h-.1-1.6c-.1 0-.1 0-.2-.1-.1 0-.1-.1-.1-.2l-1-6.6h-.1l-3 6.9c0 .1-.1.1-.1.1-.1 0-.1.1-.2 0h-.3c-.1 0-.1 0-.2 0s-.1-.1-.1-.1l-3-6.9-1 6.6c0 .1-.1.1-.1.2-.1 0-.1.1-.2.1h-1.5-.1s-.1-.1-.1-.1-.1-.1-.1-.1v-.1z"/><path d="m73.9 117.9c0-.1 0-.2.1-.2.1-.1.1-.1.2-.1h1.6c.1 0 .2 0 .2.1.1.1.1.1.1.2v7.1c0 .3 0 .7.2 1 .1.3.3.6.5.9.2.2.5.4.8.6.3.1.6.2 1 .2s.7-.1 1-.2.6-.3.8-.6c.2-.2.4-.5.5-.9.1-.3.2-.7.2-1v-7.1c0-.1 0-.2.1-.2.1-.1.1-.1.2-.1h1.7c.1 0 .2 0 .2.1.1.1.1.1.1.2v7.3c0 1.3-.5 2.5-1.4 3.4s-2.1 1.4-3.4 1.4-2.5-.5-3.4-1.4-1.4-2.1-1.4-3.4z"/><path d="m90.6 117.7v-.1s0-.1.1-.1c0 0 .1-.1.1-.1h.1.4l7.1 7.7v-7.2c0-.1 0-.2.1-.2.1-.1.1-.1.2-.1h1.6c.1 0 .2 0 .2.1.1.1.1.1.1.2v11.7c0 .1 0 .2-.1.2-.1.1-.1.1-.2.1h-.3l-7.2-8v7.5c0 .1 0 .2-.1.2-.1.1-.1.1-.2.1h-1.5c-.1 0-.2 0-.2-.1-.1-.1-.1-.1-.1-.2v-11.7z"/><path d="m108.2 117.9c0-.1 0-.2.1-.2.1-.1.1-.1.2-.1h1.6c.1 0 .2 0 .2.1.1.1.1.1.1.2v11.6c0 .1 0 .2-.1.2-.1.1-.1.1-.2.1h-1.6c-.1 0-.2 0-.2-.1-.1-.1-.1-.1-.1-.2z"/><path d="m123.1 117.4c1.5 0 3 .5 4.1 1.6 0 0 .1.1.1.1v.1.1s0 .1-.1.1l-1 1.1s-.1.1-.1.1h-.1s-.1 0-.1 0-.1 0-.1-.1c-.7-.7-1.7-1-2.6-1-1 0-2 .5-2.7 1.2-.7.8-1.1 1.8-1.1 2.8s.4 2.1 1.1 2.8c.7.8 1.7 1.2 2.7 1.2s1.9-.4 2.6-1c.1-.1.1-.1.2-.1s.2 0 .2.1l1.1 1.1s.1.1.1.1v.1.1s0 .1-.1.1c-1.1 1.1-2.6 1.7-4.2 1.7s-3.2-.7-4.4-1.8c-1.2-1.2-1.8-2.8-1.8-4.4s.6-3.3 1.8-4.4c1.1-1.1 2.7-1.7 4.4-1.7z"/><path d="m131.3 129.3 5.3-11.7c0-.1.1-.1.1-.1.1 0 .1-.1.2-.1h.2.2c.1 0 .1.1.1.1l5.3 11.7v.2.2s-.1.1-.1.1-.1 0-.2 0h-1.5c-.1 0-.2 0-.3-.1s-.2-.2-.2-.3l-.8-1.9h-5.1l-.8 1.9c0 .1-.1.2-.2.3s-.2.1-.3.1h-1.5c-.1 0-.1 0-.2 0s-.1-.1-.1-.1 0-.1 0-.2c-.1 0-.1 0-.1-.1zm7.4-3.7-1.7-3.8-1.7 3.8z"/><path d="m148.6 119.6h-2.6-.1s-.1 0-.1-.1c0 0-.1-.1-.1-.1v-.1-1.4c0-.1 0-.2.1-.2.1-.1.1-.1.2-.1h7.5c.1 0 .2 0 .2.1.1.1.1.1.1.2v1.4.1s0 .1-.1.1c0 0-.1.1-.1.1h-.1-2.6v9.8c0 .1 0 .2-.1.2-.1.1-.1.1-.2.1h-1.6c-.1 0-.2 0-.2-.1-.1-.1-.1-.1-.1-.2z"/><path d="m159.9 117.9c0-.1 0-.2.1-.2.1-.1.1-.1.2-.1h1.6c.1 0 .2 0 .2.1.1.1.1.1.1.2v11.6c0 .1 0 .2-.1.2-.1.1-.1.1-.2.1h-1.6c-.1 0-.2 0-.2-.1-.1-.1-.1-.1-.1-.2z"/><path d="m174.8 117.4c1.2 0 2.4.4 3.4 1 1 .7 1.8 1.7 2.3 2.8s.6 2.4.4 3.6-.8 2.3-1.7 3.2-2 1.5-3.1 1.7-2.4.1-3.6-.3c-1.1-.5-2.1-1.3-2.8-2.3s-1-2.2-1-3.5c0-.8.2-1.6.5-2.4s.8-1.5 1.3-2c.6-.6 1.2-1 2-1.4.7-.3 1.5-.4 2.3-.4zm0 10.3c.8 0 1.5-.2 2.2-.7.6-.4 1.2-1.1 1.5-1.8s.4-1.5.2-2.3-.5-1.5-1.1-2.1-1.3-.9-2-1.1c-.8-.2-1.6-.1-2.3.2s-1.3.8-1.8 1.5c-.4.7-.7 1.4-.7 2.2 0 1.1.4 2.1 1.2 2.8.8.8 1.8 1.3 2.8 1.3z"/><path d="m187.3 117.7c0-.1 0-.2.1-.2.1-.1.1-.1.2-.1h.4l7.1 7.7v-7.2c0-.1 0-.2.1-.2.1-.1.1-.1.2-.1h1.6c.1 0 .2 0 .2.1.1.1.1.1.1.2v11.7c0 .1 0 .2-.1.2-.1.1-.1.1-.2.1h-.4l-7.2-8v7.5c0 .1 0 .2-.1.2-.1.1-.1.1-.2.1h-1.6c-.1 0-.2 0-.2-.1-.1-.1-.1-.1-.1-.2v-11.7z"/><path d="m204.1 128.1.6-1.1c0-.1.1-.1.1-.1s.1-.1.2-.1h.2c.1 0 .1 0 .2.1s1.5 1.1 2.6 1.1c.2 0 .4 0 .6-.1s.3-.2.5-.3.3-.3.4-.5.1-.4.2-.6c0-.9-.7-1.5-2.2-2.1-1.6-.7-3.2-1.7-3.2-3.8 0-1.6 1.1-3.4 3.8-3.4 1.2 0 2.4.4 3.4 1.2.1.1.1.2.2.3 0 .1 0 .2-.1.3l-.7 1c-.1.1-.1.2-.3.2-.1 0-.2 0-.3 0-.1-.1-1.4-1-2.4-1-.4 0-.7.1-1 .3s-.5.6-.5.9c0 .8.6 1.4 2 2 1.7.7 3.6 1.7 3.6 3.9 0 1.8-1.5 3.5-3.9 3.5-1.4 0-2.7-.4-3.8-1.4-.3 0-.4-.1-.2-.3z"/><path d="m223.6 117.4c.5 0 1 .1 1.5.3s.9.5 1.3.8c0 0 0 0 .1.1v.1s0 .1 0 .1 0 .1-.1.1l-.9 1s-.1.1-.1.1c-.1 0-.1 0-.1-.1-.4-.4-1-.6-1.6-.6s-1.2.3-1.7.7c-.5.5-.7 1.1-.7 1.7s.3 1.3.7 1.7c.5.5 1.1.7 1.7.7s1.1-.2 1.6-.6c0 0 .1-.1.2-.1s.1 0 .2.1l.9 1s.1.1.1.2 0 .1-.1.2c-.8.8-1.8 1.2-2.9 1.2s-2.2-.5-3-1.3-1.2-1.9-1.2-3 .4-2.2 1.2-3c.7-1 1.8-1.4 2.9-1.4z"/><path d="m233.2 117.4c.8 0 1.7.2 2.4.7s1.2 1.1 1.6 1.9c.3.8.4 1.7.2 2.5s-.6 1.6-1.2 2.2-1.3 1-2.2 1.2c-.8.2-1.7.1-2.4-.2-.8-.3-1.4-.9-1.9-1.6s-.7-1.5-.7-2.4c0-.6.1-1.1.3-1.7.2-.5.5-1 .9-1.4s.9-.7 1.4-.9 1-.3 1.6-.3zm0 6.7c.5 0 .9-.1 1.3-.4s.7-.6.9-1.1c.2-.4.2-.9.1-1.4s-.3-.9-.6-1.2-.7-.6-1.2-.7-.9 0-1.4.1c-.4.2-.8.5-1.1.9s-.4.9-.4 1.3c0 .6.3 1.2.7 1.7.5.5 1.1.8 1.7.8z"/><path d="m237.3 128.2h-17.7c-.1 0-.2.1-.2.2v1.2c0 .1.1.2.2.2h17.7c.1 0 .2-.1.2-.2v-1.2c0-.1-.1-.2-.2-.2z"/></g></svg>