<?xml version="1.0" encoding="utf-8"?>
<!-- Generator: Adobe Illustrator 23.0.4, SVG Export Plug-In . SVG Version: 6.00 Build 0)  -->
<svg version="1.1" id="Layer_1" xmlns="http://www.w3.org/2000/svg" xmlns:xlink="http://www.w3.org/1999/xlink" x="0px" y="0px"
	 viewBox="0 0 239 109" style="enable-background:new 0 0 239 109;" xml:space="preserve">
<style type="text/css">
	.st0{fill-rule:evenodd;clip-rule:evenodd;fill:#FFFFFF;}
</style>
<path class="st0" d="M0,109.1V0l40.4,0v109.1H0z M10.6,97.3h19.2V11.8H10.6V97.3z"/>
<path class="st0" d="M147.5,109.2l0-109.2L239,0l0,109.2L147.5,109.2z M159,11.7v85.8l19.4,0V62.2l30.5,35.3h22.3l0.5-1.2l-38.2-43
	l35.7-40.3l-0.4-1.2h-22.6l-27.9,32.6V11.7H159z"/>
<path class="st0" d="M48.2,109.2L48.2,0l91.4,0l0,109.2L48.2,109.2z M60.3,11.1l49.2,44.3V12.2h19.1v85.7l-1,0.5L78.5,53.7v43.9
	H59.2V11.5L60.3,11.1z"/>
</svg>
