<?xml version="1.0" encoding="utf-8"?>
<!-- Generator: Adobe Illustrator 23.0.4, SVG Export Plug-In . SVG Version: 6.00 Build 0)  -->
<svg version="1.1" id="Layer_1" xmlns="http://www.w3.org/2000/svg" xmlns:xlink="http://www.w3.org/1999/xlink" x="0px" y="0px"
	 viewBox="0 0 239 109" style="enable-background:new 0 0 239 109;" xml:space="preserve">
<style type="text/css">
	.st0{fill-rule:evenodd;clip-rule:evenodd;fill:#2F2F2E;}
	.st1{fill-rule:evenodd;clip-rule:evenodd;fill:#FFFFFF;}
</style>
<path class="st0" d="M0,0v109.1h40.3V0L0,0z M29.8,97.3H10.6V11.8h19.2V97.3z"/>
<path class="st0" d="M147.5,0l0,109.2l91.5,0L239,0L147.5,0z M231.3,97.5h-22.3l-30.5-35.3v35.3l-19.4,0V11.7h19.4v32.6l27.9-32.6
	h22.6l0.4,1.2l-35.7,40.3l38.2,43L231.3,97.5z"/>
<polygon class="st1" points="231.7,96.3 231.3,97.5 208.9,97.5 178.4,62.2 178.4,97.5 159,97.5 159,11.7 178.4,11.7 178.4,44.3 
	206.3,11.7 228.9,11.7 229.2,12.9 193.5,53.2 "/>
<path class="st0" d="M48.2,0l0,109.2l91.4,0l0-109.2L48.2,0z M128.6,97.9l-1,0.5L78.5,53.7v43.9H59.2V11.5l1.1-0.4l49.2,44.3V12.2
	h19.1V97.9z"/>
<polygon class="st1" points="128.6,12.2 128.6,97.9 127.7,98.4 78.5,53.7 78.5,97.7 59.2,97.7 59.2,11.5 60.3,11.1 109.5,55.4 
	109.5,12.2 "/>
<rect x="10.6" y="11.8" class="st1" width="19.2" height="85.5"/>
</svg>
