<svg enable-background="new 0 0 366 34" viewBox="0 0 366 34" xmlns="http://www.w3.org/2000/svg"><g fill="#2f2f2e"><path d="m91.1 9.2c1.8 0 3.6.6 4.9 1.9 0 0 .1.1.1.1v.2.2s-.1.1-.1.1l-1.2 1.3s-.1.1-.1.1h-.1-.1s-.1-.1-.1-.1c-.9-.8-2-1.2-3.1-1.2-1.2 0-2.4.6-3.2 1.5s-1.3 2.1-1.3 3.3.5 2.4 1.3 3.3 2 1.4 3.2 1.5c1.1 0 2.2-.4 3.1-1.2.1-.1.2-.1.3-.1s.2 0 .3.1l1.3 1.3c.1.1.1.2.1.3s0 .2-.1.3c-1.3 1.3-3.1 2-5 2-2 0-3.8-.8-5.2-2.2s-2.2-3.3-2.2-5.2c0-2 .8-3.9 2.2-5.2 1.2-1.5 3.1-2.3 5-2.3z"/><path d="m110.1 9.2c1.5 0 2.9.4 4.1 1.2s2.2 2 2.7 3.3.7 2.8.4 4.3-1 2.8-2 3.8-2.3 1.7-3.8 2c-1.4.3-2.9.1-4.2-.4-1.3-.6-2.5-1.5-3.3-2.7s-1.2-2.6-1.2-4.1c0-1 .2-1.9.5-2.8.4-.9.9-1.7 1.6-2.4s1.5-1.2 2.4-1.6 1.9-.6 2.8-.6zm0 12.1c.9 0 1.8-.3 2.6-.8s1.4-1.3 1.7-2.1c.4-.9.5-1.8.3-2.7s-.6-1.8-1.3-2.4c-.7-.7-1.5-1.1-2.4-1.3s-1.9-.1-2.7.3c-.9.4-1.6 1-2.1 1.8s-.8 1.7-.8 2.6c0 1.2.5 2.4 1.4 3.3.9.8 2.1 1.3 3.3 1.3z"/><path d="m126.7 9.5c0-.1.1-.2.1-.2.1-.1.2-.1.2-.1h.3c.1 0 .1 0 .2.1.1 0 .1.1.1.2l4.5 9.7h.1l4.5-9.7c0-.1.1-.1.1-.2.1 0 .1-.1.2 0h.3c.1 0 .2 0 .2.1.1.1.1.1.1.2l2.4 13.8v.2c0 .1 0 .1-.1.2 0 0-.1.1-.1.1-.1 0-.1 0-.2 0h-1.6c-.1 0-.2 0-.2-.1-.1-.1-.1-.1-.1-.2l-1.2-7.8h-.1l-3.6 8.1c0 .1-.1.1-.1.2-.1 0-.1.1-.2.1h-.4c-.1 0-.1 0-.2-.1-.1 0-.1-.1-.1-.2l-3.6-8.1h-.1l-1.2 7.8c0 .1-.1.2-.1.2s-.1.1-.2.1h-1.8c-.1 0-.1 0-.2 0s-.1-.1-.1-.1-.1-.1-.1-.2 0-.1 0-.2z"/><path d="m149.6 9.5c0-.1.1-.2.1-.2.1-.1.2-.1.2-.1h.3c.1 0 .1 0 .2.1s.1.1.1.2l4.5 9.7h.1l4.5-9.7c0-.1.1-.1.1-.2.1 0 .1-.1.2-.1h.4c.1 0 .2 0 .2.1.1.1.1.1.1.2l2.4 13.8v.2c0 .1 0 .1-.1.2 0 0-.1.1-.1.1-.1 0-.1 0-.2 0h-1.6c-.1 0-.2 0-.2-.1-.1-.1-.1-.1-.1-.2l-1.2-7.8h-.1l-3.6 8c0 .1-.1.1-.1.2-.1 0-.1.1-.2.1h-.5c-.1 0-.1 0-.2-.1-.1 0-.1-.1-.1-.2l-3.6-8.1h-.1l-1.2 7.8c0 .1-.1.2-.1.2-.1.1-.1.1-.2.1h-1.8c-.1 0-.1 0-.2 0s-.1-.1-.1-.1-.1-.1-.1-.2 0-.1 0-.2z"/><path d="m170.9 9.8c0-.1 0-.2.1-.3s.2-.1.3-.1h1.9.1s.1 0 .1.1c0 0 .1.1.1.1v.2 8.4c0 .4 0 .8.2 1.2.1.4.4.7.6 1 .3.3.6.5 1 .7s.8.2 1.2.2.8-.1 1.2-.2c.4-.2.7-.4 1-.7s.5-.6.6-1 .2-.8.2-1.2v-8.4c0-.1 0-.2.1-.3s.2-.1.3-.1h1.9c.1 0 .2 0 .3.1s.1.2.1.3v8.6c-.1 1.5-.7 2.9-1.7 3.9-1.1 1-2.5 1.6-3.9 1.6s-2.9-.6-3.9-1.6c-1.1-1-1.7-2.4-1.7-3.9v-8.6z"/><path d="m190.9 9.6c0-.1 0-.2.1-.3s.2-.1.3-.1h.5l8.5 9.1v-8.5c0-.1 0-.2.1-.3s.2-.1.3-.1h1.9c.1 0 .2 0 .3.1s.1.2.1.3v13.8c0 .1 0 .2-.1.3s-.2.1-.3.1h-.6l-8.5-9.4v8.8c0 .1 0 .2-.1.3s-.2.1-.3.1h-1.9c-.1 0-.2 0-.3-.1s-.1-.2-.1-.3z"/><path d="m211.7 9.8c0-.1 0-.2.1-.3s.2-.1.3-.1h1.9c.1 0 .2 0 .3.1s.1.2.1.3v13.6c0 .1 0 .2-.1.3s-.2.1-.3.1h-1.9c-.1 0-.2 0-.3-.1s-.1-.2-.1-.3z"/><path d="m229.5 9.2c1.8 0 3.6.6 4.9 1.9 0 0 .1.1.1.1v.2.2s-.1.1-.1.1l-1.2 1.3s-.1.1-.1.1h-.1-.1s-.1-.1-.1-.1c-.9-.8-2-1.2-3.1-1.2-1.2 0-2.4.6-3.2 1.5s-1.3 2.1-1.3 3.3.5 2.4 1.3 3.3 2 1.4 3.2 1.5c1.1 0 2.3-.4 3.1-1.2.1-.1.2-.1.3-.1s.2 0 .3.1l1.3 1.3c.1.1.1.2.1.3s0 .2-.1.3c-1.3 1.3-3.1 2-5 2-2 0-3.8-.8-5.2-2.2s-2.2-3.3-2.2-5.2.8-3.9 2.2-5.2c1.2-1.5 3-2.3 5-2.3z"/><path d="m239.4 23.3 6.3-13.8c0-.1.1-.1.1-.2s.1-.1.2-.1h.2c.1 0 .1 0 .2.1.1 0 .1.1.1.2l6.3 13.8v.2c0 .1 0 .1-.1.2 0 .1-.1.1-.1.1-.1 0-.1 0-.2 0h-1.8c-.1 0-.3 0-.4-.1s-.2-.2-.2-.3l-1-2.2h-6.1l-1 2.2c0 .1-.1.2-.2.3s-.2.1-.4.1h-1.8c-.1 0-.1 0-.2 0s-.1-.1-.2-.1c0-.1-.1-.1-.1-.2.4-.1.4-.2.4-.2zm8.8-4.4-2-4.5h-.1l-2 4.5z"/><path d="m260 11.9h-3.1c-.1 0-.2 0-.3-.1s-.1-.2-.1-.3v-1.7c0-.1 0-.2.1-.3s.2-.1.3-.1h8.9c.1 0 .2 0 .3.1s.1.2.1.3v1.7c0 .1 0 .2-.1.3s-.2.1-.3.1h-3.1v11.5c0 .1 0 .2-.1.3s-.2.1-.3.1h-1.9c-.1 0-.2 0-.3-.1s-.1-.2-.1-.3z"/><path d="m273.4 9.8c0-.1 0-.2.1-.3s.2-.1.3-.1h1.9c.1 0 .2 0 .3.1s.1.2.1.3v13.6c0 .1 0 .2-.1.3s-.2.1-.3.1h-1.9c-.1 0-.2 0-.3-.1s-.1-.2-.1-.3z"/><path d="m291.2 9.2c1.5 0 2.9.4 4.1 1.2s2.2 2 2.7 3.3c.6 1.4.7 2.8.4 4.3-.3 1.4-1 2.8-2 3.8s-2.3 1.7-3.8 2c-1.4.3-2.9.1-4.2-.4-1.3-.6-2.5-1.5-3.3-2.7s-1.2-2.6-1.2-4.1c0-1 .2-1.9.5-2.8.4-.9.9-1.7 1.6-2.4s1.5-1.2 2.4-1.6 1.9-.6 2.8-.6zm0 12.1c.9 0 1.8-.3 2.6-.8s1.4-1.3 1.7-2.1c.4-.9.5-1.8.3-2.7s-.6-1.8-1.3-2.4c-.7-.7-1.5-1.1-2.4-1.3s-1.9-.1-2.7.3c-.9.4-1.6 1-2.1 1.8s-.8 1.7-.8 2.6c0 1.2.5 2.4 1.4 3.3.9.8 2.1 1.3 3.3 1.3z"/><path d="m306.1 9.6c0-.1 0-.2.1-.3s.2-.1.3-.1h.5l8.5 9.1v-8.5c0-.1 0-.1 0-.2 0 0 0-.1.1-.1 0 0 .1-.1.1-.1h.2 1.9c.1 0 .2 0 .3.1s.1.2.1.3v13.8c0 .1 0 .2-.1.3s-.2.1-.3.1h-.5l-8.5-9.4v8.8.2s0 .1-.1.1c0 0-.1.1-.1.1h-.1-1.9c-.1 0-.2 0-.3-.1s-.1-.2-.1-.3z"/><path d="m326.2 21.8.7-1.3c0-.1.1-.1.1-.2.1 0 .1-.1.2-.1h.2c.1 0 .1 0 .2.1s1.8 1.3 3.1 1.3c.2 0 .5 0 .7-.1s.4-.2.6-.3.3-.3.4-.5.2-.4.2-.7c0-1-.9-1.8-2.6-2.5-1.9-.8-3.8-2-3.8-4.4 0-1.8 1.3-3.9 4.6-3.9 1.5 0 2.9.5 4.1 1.4.1 0 .1.1.1.1 0 .1.1.1.1.2v.2c0 .1 0 .1-.1.2l-.8 1.2c-.1.1-.2.2-.3.3s-.3 0-.4 0c-.2-.1-1.7-1.1-2.8-1.1-.4 0-.8.1-1.2.3-.3.3-.6.7-.6 1.1 0 1 .8 1.6 2.4 2.3 2 .8 4.3 2 4.3 4.6 0 2.1-1.8 4.1-4.7 4.1-1.6.1-3.2-.5-4.5-1.6-.3-.3-.4-.4-.2-.7z"/><path d="m349.4 9.2c.6 0 1.2.1 1.8.3s1.1.6 1.6 1c0 0 .1.1.1.1v.1.1s0 .1-.1.1l-1.1 1.2s0 0-.1.1h-.1-.1s-.1 0-.1-.1c-.5-.5-1.2-.7-1.9-.7s-1.4.4-1.9.9-.8 1.2-.8 2c0 .7.3 1.5.8 2s1.2.9 1.9.9 1.3-.3 1.9-.7c.1 0 .1-.1.2-.1s.1 0 .2.1l1.1 1.2c0 .1.1.1.1.2s0 .1-.1.2c-.9.9-2.1 1.4-3.4 1.4-.7 0-1.4-.1-2-.3s-1.2-.6-1.7-1.1-.9-1-1.1-1.7c-.3-.6-.4-1.3-.4-2s.1-1.4.4-2 .7-1.2 1.1-1.7c.5-.5 1.1-.8 1.7-1.1.7-.3 1.4-.4 2-.4z"/><path d="m360.9 9.2c1 0 2 .3 2.8.8.8.6 1.5 1.3 1.9 2.3.4.9.5 2 .3 2.9-.2 1-.7 1.9-1.4 2.6s-1.6 1.2-2.6 1.4-2 .1-2.9-.3-1.7-1-2.3-1.9-.9-1.8-.9-2.8c0-.7.1-1.3.4-1.9s.6-1.2 1.1-1.7 1-.8 1.6-1.1c.7-.1 1.3-.3 2-.3zm0 7.9c.6 0 1.1-.2 1.6-.5s.8-.8 1-1.3.3-1.1.2-1.6-.4-1.1-.8-1.4c-.4-.4-.9-.7-1.4-.8s-1.1-.1-1.6.2-1 .6-1.3 1c-.3.5-.5 1-.5 1.6 0 .7.3 1.5.8 2s1.2.8 2 .8z"/><path d="m365.7 22h-21.1c-.2 0-.3.1-.3.3v1.4c0 .2.1.3.3.3h21.1c.2 0 .3-.1.3-.3v-1.4c0-.2-.1-.3-.3-.3z"/><path d="m0 0v34h12.7v-34z"/><path d="m46.5 0v34h28.8v-34z"/></g><path d="m9.4 30.3h-6v-26.6h6z" fill="#fff"/><path d="m50.1 30.4v-26.8h6.1v10.1l8.8-10.1h7.1l.1.4-11.2 12.6 12 13.4-.2.4h-7.1l-9.6-11v11z" fill="#fff"/><path d="m44 0h-28.8v34h28.8z" fill="#2f2f2e"/><path d="m40.6 3.8v26.7l-.3.2-15.6-14v13.7h-6v-26.8l.3-.1 15.5 13.7v-13.4z" fill="#fff"/></svg>