<?xml version="1.0" encoding="utf-8"?>
<!-- Generator: Adobe Illustrator 23.0.4, SVG Export Plug-In . SVG Version: 6.00 Build 0)  -->
<svg version="1.1" id="Layer_1" xmlns="http://www.w3.org/2000/svg" xmlns:xlink="http://www.w3.org/1999/xlink" x="0px" y="0px"
	 viewBox="0 0 239 130" style="enable-background:new 0 0 239 130;" xml:space="preserve">
<style type="text/css">
	.st0{fill-rule:evenodd;clip-rule:evenodd;fill:#2F2F2E;}
	.st1{fill-rule:evenodd;clip-rule:evenodd;fill:#FFFFFF;}
	.st2{fill:#2F2F2E;}
</style>
<path class="st0" d="M0,0v109.1h40.3V0L0,0z M29.8,97.3H10.6V11.8h19.2V97.3z"/>
<rect x="10.6" y="11.8" class="st1" width="19.2" height="85.5"/>
<path class="st0" d="M147.5,0l0,109.2l91.5,0L239,0L147.5,0z M231.3,97.5h-22.3l-30.5-35.3v35.3l-19.4,0V11.7h19.4v32.6l27.9-32.6
	h22.6l0.4,1.2l-35.7,40.3l38.2,43L231.3,97.5z"/>
<polygon class="st1" points="231.7,96.3 231.3,97.5 208.9,97.5 178.4,62.2 178.4,97.5 159,97.5 159,11.7 178.4,11.7 178.4,44.3 
	206.3,11.7 228.9,11.7 229.2,12.9 193.5,53.2 "/>
<path class="st0" d="M48.2,0l0,109.2l91.4,0l0-109.2L48.2,0z M128.6,97.9l-1,0.5L78.5,53.7v43.9H59.2V11.5l1.1-0.4l49.2,44.3V12.2
	h19.1V97.9z"/>
<polygon class="st1" points="128.6,12.2 128.6,97.9 127.7,98.4 78.5,53.7 78.5,97.7 59.2,97.7 59.2,11.5 60.3,11.1 109.5,55.4 
	109.5,12.2 "/>
<path class="st2" d="M7.1,117.4c0.8,0,1.5,0.1,2.2,0.4c0.7,0.3,1.4,0.7,1.9,1.2c0,0,0.1,0.1,0.1,0.1c0,0,0,0.1,0,0.1
	c0,0,0,0.1,0,0.1s0,0.1-0.1,0.1l-1,1.1c0,0-0.1,0.1-0.1,0.1c0,0-0.1,0-0.1,0c0,0-0.1,0-0.1,0c0,0-0.1,0-0.1-0.1
	c-0.7-0.7-1.7-1-2.6-1c-1,0-2,0.5-2.7,1.2c-0.7,0.8-1.1,1.8-1.1,2.8c0,1,0.4,2.1,1.1,2.8c0.7,0.8,1.7,1.2,2.7,1.2c1,0,1.9-0.4,2.6-1
	c0.1-0.1,0.1-0.1,0.2-0.1c0.1,0,0.2,0,0.2,0.1l1.1,1.1c0,0,0.1,0.1,0.1,0.1c0,0,0,0.1,0,0.1c0,0,0,0.1,0,0.1c0,0,0,0.1-0.1,0.1
	c-1.1,1.1-2.6,1.7-4.2,1.7c-1.6,0-3.2-0.7-4.4-1.8c-1.2-1.2-1.8-2.8-1.8-4.4s0.6-3.3,1.8-4.4C3.8,118,5.4,117.4,7.1,117.4L7.1,117.4
	z"/>
<path class="st2" d="M23,117.4c1.2,0,2.4,0.4,3.4,1c1,0.7,1.8,1.7,2.3,2.8c0.5,1.1,0.6,2.4,0.4,3.6c-0.2,1.2-0.8,2.3-1.7,3.2
	c-0.9,0.9-2,1.5-3.1,1.7c-1.2,0.2-2.4,0.1-3.6-0.3s-2.1-1.3-2.8-2.3c-0.7-1-1-2.2-1-3.5c0-0.8,0.2-1.6,0.5-2.4
	c0.3-0.8,0.8-1.5,1.3-2c0.6-0.6,1.2-1,2-1.4C21.4,117.5,22.2,117.4,23,117.4z M23,127.7c0.8,0,1.5-0.2,2.2-0.7
	c0.6-0.4,1.2-1.1,1.5-1.8c0.3-0.7,0.4-1.5,0.2-2.3c-0.2-0.8-0.5-1.5-1.1-2.1c-0.6-0.6-1.3-0.9-2-1.1c-0.8-0.2-1.6-0.1-2.3,0.2
	c-0.7,0.3-1.3,0.8-1.8,1.5c-0.4,0.7-0.7,1.4-0.7,2.2c0,1.1,0.4,2.1,1.2,2.8C20.9,127.2,21.9,127.7,23,127.7z"/>
<path class="st2" d="M36.9,117.6c0-0.1,0-0.1,0.1-0.2c0.1,0,0.1-0.1,0.2-0.1h0.3c0.1,0,0.1,0,0.2,0c0.1,0,0.1,0.1,0.1,0.1l3.8,8.2h0
	l3.8-8.2c0-0.1,0.1-0.1,0.1-0.1c0.1,0,0.1,0,0.2,0h0.3c0.1,0,0.1,0,0.2,0.1c0.1,0,0.1,0.1,0.1,0.2l2,11.7c0,0,0,0.1,0,0.2
	c0,0.1,0,0.1-0.1,0.1c0,0-0.1,0.1-0.1,0.1c0,0-0.1,0-0.1,0h-1.6c-0.1,0-0.1,0-0.2-0.1c-0.1,0-0.1-0.1-0.1-0.2l-1-6.6H45l-3,6.9
	c0,0.1-0.1,0.1-0.1,0.1c-0.1,0-0.1,0.1-0.2,0h-0.3c-0.1,0-0.1,0-0.2,0c-0.1,0-0.1-0.1-0.1-0.1l-3-6.9H38l-1,6.6
	c0,0.1-0.1,0.1-0.1,0.2c-0.1,0-0.1,0.1-0.2,0.1h-1.5c0,0-0.1,0-0.1,0c0,0-0.1-0.1-0.1-0.1c0,0-0.1-0.1-0.1-0.1c0,0,0-0.1,0-0.2
	L36.9,117.6z"/>
<path class="st2" d="M56.1,117.6c0-0.1,0-0.1,0.1-0.2c0.1,0,0.1-0.1,0.2-0.1h0.3c0.1,0,0.1,0,0.2,0c0.1,0,0.1,0.1,0.1,0.1l3.8,8.2h0
	l3.8-8.2c0-0.1,0.1-0.1,0.1-0.1c0.1,0,0.1,0,0.2,0h0.3c0.1,0,0.1,0,0.2,0.1c0.1,0,0.1,0.1,0.1,0.2l2,11.7c0,0,0,0.1,0,0.1
	c0,0.1,0,0.1-0.1,0.1c0,0-0.1,0.1-0.1,0.1c0,0-0.1,0-0.1,0h-1.6c-0.1,0-0.1,0-0.2-0.1c-0.1,0-0.1-0.1-0.1-0.2l-1-6.6h-0.1l-3,6.9
	c0,0.1-0.1,0.1-0.1,0.1c-0.1,0-0.1,0.1-0.2,0h-0.3c-0.1,0-0.1,0-0.2,0c-0.1,0-0.1-0.1-0.1-0.1l-3-6.9h0l-1,6.6
	c0,0.1-0.1,0.1-0.1,0.2c-0.1,0-0.1,0.1-0.2,0.1h-1.5c0,0-0.1,0-0.1,0c0,0-0.1-0.1-0.1-0.1c0,0-0.1-0.1-0.1-0.1c0,0,0-0.1,0-0.1
	L56.1,117.6z"/>
<path class="st2" d="M73.9,117.9c0-0.1,0-0.2,0.1-0.2c0.1-0.1,0.1-0.1,0.2-0.1h1.6c0.1,0,0.2,0,0.2,0.1c0.1,0.1,0.1,0.1,0.1,0.2v7.1
	c0,0.3,0,0.7,0.2,1c0.1,0.3,0.3,0.6,0.5,0.9c0.2,0.2,0.5,0.4,0.8,0.6c0.3,0.1,0.6,0.2,1,0.2s0.7-0.1,1-0.2c0.3-0.1,0.6-0.3,0.8-0.6
	c0.2-0.2,0.4-0.5,0.5-0.9c0.1-0.3,0.2-0.7,0.2-1v-7.1c0-0.1,0-0.2,0.1-0.2c0.1-0.1,0.1-0.1,0.2-0.1h1.7c0.1,0,0.2,0,0.2,0.1
	c0.1,0.1,0.1,0.1,0.1,0.2v7.3c0,1.3-0.5,2.5-1.4,3.4c-0.9,0.9-2.1,1.4-3.4,1.4s-2.5-0.5-3.4-1.4c-0.9-0.9-1.4-2.1-1.4-3.4
	L73.9,117.9z"/>
<path class="st2" d="M90.6,117.7c0,0,0-0.1,0-0.1s0-0.1,0.1-0.1c0,0,0.1-0.1,0.1-0.1c0,0,0.1,0,0.1,0h0.4l7.1,7.7v-7.2
	c0-0.1,0-0.2,0.1-0.2c0.1-0.1,0.1-0.1,0.2-0.1h1.6c0.1,0,0.2,0,0.2,0.1c0.1,0.1,0.1,0.1,0.1,0.2v11.7c0,0.1,0,0.2-0.1,0.2
	c-0.1,0.1-0.1,0.1-0.2,0.1H100l-7.2-8v7.5c0,0.1,0,0.2-0.1,0.2c-0.1,0.1-0.1,0.1-0.2,0.1H91c-0.1,0-0.2,0-0.2-0.1
	c-0.1-0.1-0.1-0.1-0.1-0.2V117.7z"/>
<path class="st2" d="M108.2,117.9c0-0.1,0-0.2,0.1-0.2c0.1-0.1,0.1-0.1,0.2-0.1h1.6c0.1,0,0.2,0,0.2,0.1c0.1,0.1,0.1,0.1,0.1,0.2
	v11.6c0,0.1,0,0.2-0.1,0.2c-0.1,0.1-0.1,0.1-0.2,0.1h-1.6c-0.1,0-0.2,0-0.2-0.1c-0.1-0.1-0.1-0.1-0.1-0.2V117.9z"/>
<path class="st2" d="M123.1,117.4c1.5,0,3,0.5,4.1,1.6c0,0,0.1,0.1,0.1,0.1c0,0,0,0.1,0,0.1c0,0,0,0.1,0,0.1c0,0,0,0.1-0.1,0.1
	l-1,1.1c0,0-0.1,0.1-0.1,0.1c0,0-0.1,0-0.1,0s-0.1,0-0.1,0c0,0-0.1,0-0.1-0.1c-0.7-0.7-1.7-1-2.6-1c-1,0-2,0.5-2.7,1.2
	c-0.7,0.8-1.1,1.8-1.1,2.8c0,1,0.4,2.1,1.1,2.8c0.7,0.8,1.7,1.2,2.7,1.2c1,0,1.9-0.4,2.6-1c0.1-0.1,0.1-0.1,0.2-0.1
	c0.1,0,0.2,0,0.2,0.1l1.1,1.1c0,0,0.1,0.1,0.1,0.1c0,0,0,0.1,0,0.1c0,0,0,0.1,0,0.1c0,0,0,0.1-0.1,0.1c-1.1,1.1-2.6,1.7-4.2,1.7
	c-1.6,0-3.2-0.7-4.4-1.8c-1.2-1.2-1.8-2.8-1.8-4.4s0.6-3.3,1.8-4.4C119.8,118,121.4,117.4,123.1,117.4L123.1,117.4z"/>
<path class="st2" d="M131.3,129.3l5.3-11.7c0-0.1,0.1-0.1,0.1-0.1c0.1,0,0.1-0.1,0.2-0.1h0.2c0.1,0,0.1,0,0.2,0
	c0.1,0,0.1,0.1,0.1,0.1l5.3,11.7c0,0,0,0.1,0,0.2c0,0.1,0,0.1,0,0.2c0,0-0.1,0.1-0.1,0.1c0,0-0.1,0-0.2,0h-1.5c-0.1,0-0.2,0-0.3-0.1
	c-0.1-0.1-0.2-0.2-0.2-0.3l-0.8-1.9h-5.1l-0.8,1.9c0,0.1-0.1,0.2-0.2,0.3c-0.1,0.1-0.2,0.1-0.3,0.1h-1.5c-0.1,0-0.1,0-0.2,0
	c-0.1,0-0.1-0.1-0.1-0.1c0,0,0-0.1,0-0.2C131.3,129.4,131.3,129.4,131.3,129.3z M138.7,125.6l-1.7-3.8h0l-1.7,3.8H138.7z"/>
<path class="st2" d="M148.6,119.6H146c0,0-0.1,0-0.1,0c0,0-0.1,0-0.1-0.1c0,0-0.1-0.1-0.1-0.1c0,0,0-0.1,0-0.1v-1.4
	c0-0.1,0-0.2,0.1-0.2c0.1-0.1,0.1-0.1,0.2-0.1h7.5c0.1,0,0.2,0,0.2,0.1c0.1,0.1,0.1,0.1,0.1,0.2v1.4c0,0,0,0.1,0,0.1
	c0,0,0,0.1-0.1,0.1c0,0-0.1,0.1-0.1,0.1c0,0-0.1,0-0.1,0h-2.6v9.8c0,0.1,0,0.2-0.1,0.2c-0.1,0.1-0.1,0.1-0.2,0.1H149
	c-0.1,0-0.2,0-0.2-0.1c-0.1-0.1-0.1-0.1-0.1-0.2L148.6,119.6z"/>
<path class="st2" d="M159.9,117.9c0-0.1,0-0.2,0.1-0.2c0.1-0.1,0.1-0.1,0.2-0.1h1.6c0.1,0,0.2,0,0.2,0.1c0.1,0.1,0.1,0.1,0.1,0.2
	v11.6c0,0.1,0,0.2-0.1,0.2c-0.1,0.1-0.1,0.1-0.2,0.1h-1.6c-0.1,0-0.2,0-0.2-0.1c-0.1-0.1-0.1-0.1-0.1-0.2V117.9z"/>
<path class="st2" d="M174.8,117.4c1.2,0,2.4,0.4,3.4,1c1,0.7,1.8,1.7,2.3,2.8c0.5,1.1,0.6,2.4,0.4,3.6c-0.2,1.2-0.8,2.3-1.7,3.2
	c-0.9,0.9-2,1.5-3.1,1.7s-2.4,0.1-3.6-0.3c-1.1-0.5-2.1-1.3-2.8-2.3c-0.7-1-1-2.2-1-3.5c0-0.8,0.2-1.6,0.5-2.4
	c0.3-0.8,0.8-1.5,1.3-2c0.6-0.6,1.2-1,2-1.4C173.2,117.5,174,117.4,174.8,117.4z M174.8,127.7c0.8,0,1.5-0.2,2.2-0.7
	c0.6-0.4,1.2-1.1,1.5-1.8c0.3-0.7,0.4-1.5,0.2-2.3c-0.2-0.8-0.5-1.5-1.1-2.1c-0.6-0.6-1.3-0.9-2-1.1c-0.8-0.2-1.6-0.1-2.3,0.2
	s-1.3,0.8-1.8,1.5c-0.4,0.7-0.7,1.4-0.7,2.2c0,1.1,0.4,2.1,1.2,2.8C172.8,127.2,173.8,127.7,174.8,127.7z"/>
<path class="st2" d="M187.3,117.7c0-0.1,0-0.2,0.1-0.2c0.1-0.1,0.1-0.1,0.2-0.1h0.4l7.1,7.7v-7.2c0-0.1,0-0.2,0.1-0.2
	c0.1-0.1,0.1-0.1,0.2-0.1h1.6c0.1,0,0.2,0,0.2,0.1c0.1,0.1,0.1,0.1,0.1,0.2v11.7c0,0.1,0,0.2-0.1,0.2c-0.1,0.1-0.1,0.1-0.2,0.1h-0.4
	l-7.2-8v7.5c0,0.1,0,0.2-0.1,0.2c-0.1,0.1-0.1,0.1-0.2,0.1h-1.6c-0.1,0-0.2,0-0.2-0.1c-0.1-0.1-0.1-0.1-0.1-0.2V117.7z"/>
<path class="st2" d="M204.1,128.1l0.6-1.1c0-0.1,0.1-0.1,0.1-0.1c0,0,0.1-0.1,0.2-0.1c0.1,0,0.1,0,0.2,0c0.1,0,0.1,0,0.2,0.1
	c0.1,0.1,1.5,1.1,2.6,1.1c0.2,0,0.4,0,0.6-0.1c0.2-0.1,0.3-0.2,0.5-0.3s0.3-0.3,0.4-0.5c0.1-0.2,0.1-0.4,0.2-0.6
	c0-0.9-0.7-1.5-2.2-2.1c-1.6-0.7-3.2-1.7-3.2-3.8c0-1.6,1.1-3.4,3.8-3.4c1.2,0,2.4,0.4,3.4,1.2c0.1,0.1,0.1,0.2,0.2,0.3
	c0,0.1,0,0.2-0.1,0.3l-0.7,1c-0.1,0.1-0.1,0.2-0.3,0.2c-0.1,0-0.2,0-0.3,0c-0.1-0.1-1.4-1-2.4-1c-0.4,0-0.7,0.1-1,0.3
	c-0.3,0.2-0.5,0.6-0.5,0.9c0,0.8,0.6,1.4,2,2c1.7,0.7,3.6,1.7,3.6,3.9c0,1.8-1.5,3.5-3.9,3.5c-1.4,0-2.7-0.4-3.8-1.4
	C204,128.4,203.9,128.3,204.1,128.1z"/>
<path class="st2" d="M223.6,117.4c0.5,0,1,0.1,1.5,0.3c0.5,0.2,0.9,0.5,1.3,0.8c0,0,0,0,0.1,0.1c0,0,0,0.1,0,0.1s0,0.1,0,0.1
	c0,0,0,0.1-0.1,0.1l-0.9,1c0,0-0.1,0.1-0.1,0.1c-0.1,0-0.1,0-0.1-0.1c-0.4-0.4-1-0.6-1.6-0.6c-0.6,0-1.2,0.3-1.7,0.7
	c-0.5,0.5-0.7,1.1-0.7,1.7s0.3,1.3,0.7,1.7c0.5,0.5,1.1,0.7,1.7,0.7c0.6,0,1.1-0.2,1.6-0.6c0,0,0.1-0.1,0.2-0.1c0.1,0,0.1,0,0.2,0.1
	l0.9,1c0,0,0.1,0.1,0.1,0.2s0,0.1-0.1,0.2c-0.8,0.8-1.8,1.2-2.9,1.2c-1.1,0-2.2-0.5-3-1.3c-0.8-0.8-1.2-1.9-1.2-3
	c0-1.1,0.4-2.2,1.2-3C221.4,117.8,222.5,117.4,223.6,117.4L223.6,117.4z"/>
<path class="st2" d="M233.2,117.4c0.8,0,1.7,0.2,2.4,0.7c0.7,0.5,1.2,1.1,1.6,1.9c0.3,0.8,0.4,1.7,0.2,2.5c-0.2,0.8-0.6,1.6-1.2,2.2
	c-0.6,0.6-1.3,1-2.2,1.2c-0.8,0.2-1.7,0.1-2.4-0.2c-0.8-0.3-1.4-0.9-1.9-1.6c-0.5-0.7-0.7-1.5-0.7-2.4c0-0.6,0.1-1.1,0.3-1.7
	c0.2-0.5,0.5-1,0.9-1.4c0.4-0.4,0.9-0.7,1.4-0.9C232.1,117.5,232.6,117.4,233.2,117.4z M233.2,124.1c0.5,0,0.9-0.1,1.3-0.4
	c0.4-0.3,0.7-0.6,0.9-1.1c0.2-0.4,0.2-0.9,0.1-1.4c-0.1-0.5-0.3-0.9-0.6-1.2c-0.3-0.3-0.7-0.6-1.2-0.7c-0.5-0.1-0.9,0-1.4,0.1
	c-0.4,0.2-0.8,0.5-1.1,0.9c-0.3,0.4-0.4,0.9-0.4,1.3c0,0.6,0.3,1.2,0.7,1.7C232,123.8,232.6,124.1,233.2,124.1L233.2,124.1z"/>
<path class="st2" d="M237.3,128.2h-17.7c-0.1,0-0.2,0.1-0.2,0.2v1.2c0,0.1,0.1,0.2,0.2,0.2h17.7c0.1,0,0.2-0.1,0.2-0.2v-1.2
	C237.5,128.3,237.4,128.2,237.3,128.2z"/>
</svg>
