<?xml version="1.0" encoding="utf-8"?>
<!-- Generator: Adobe Illustrator 23.0.4, SVG Export Plug-In . SVG Version: 6.00 Build 0)  -->
<svg version="1.1" id="Layer_1" xmlns="http://www.w3.org/2000/svg" xmlns:xlink="http://www.w3.org/1999/xlink" x="0px" y="0px"
	 viewBox="0 0 366 34" style="enable-background:new 0 0 366 34;" xml:space="preserve">
<style type="text/css">
	.st0{fill:#FFFFFF;}
</style>
<path class="st0" d="M91.1,9.2c1.8,0,3.6,0.6,4.9,1.9c0,0,0.1,0.1,0.1,0.1c0,0,0,0.1,0,0.2c0,0.1,0,0.1,0,0.2c0,0-0.1,0.1-0.1,0.1
	L94.8,13c0,0-0.1,0.1-0.1,0.1c0,0-0.1,0-0.1,0c0,0-0.1,0-0.1,0c0,0-0.1-0.1-0.1-0.1c-0.9-0.8-2-1.2-3.1-1.2c-1.2,0-2.4,0.6-3.2,1.5
	c-0.8,0.9-1.3,2.1-1.3,3.3c0,1.2,0.5,2.4,1.3,3.3c0.8,0.9,2,1.4,3.2,1.5c1.1,0,2.2-0.4,3.1-1.2c0.1-0.1,0.2-0.1,0.3-0.1
	s0.2,0,0.3,0.1l1.3,1.3c0.1,0.1,0.1,0.2,0.1,0.3s0,0.2-0.1,0.3c-1.3,1.3-3.1,2-5,2c-2,0-3.8-0.8-5.2-2.2c-1.4-1.4-2.2-3.3-2.2-5.2
	c0-2,0.8-3.9,2.2-5.2C87.3,10,89.2,9.2,91.1,9.2L91.1,9.2z"/>
<path class="st0" d="M110.1,9.2c1.5,0,2.9,0.4,4.1,1.2c1.2,0.8,2.2,2,2.7,3.3s0.7,2.8,0.4,4.3s-1,2.8-2,3.8c-1,1-2.3,1.7-3.8,2
	c-1.4,0.3-2.9,0.1-4.2-0.4c-1.3-0.6-2.5-1.5-3.3-2.7c-0.8-1.2-1.2-2.6-1.2-4.1c0-1,0.2-1.9,0.5-2.8c0.4-0.9,0.9-1.7,1.6-2.4
	c0.7-0.7,1.5-1.2,2.4-1.6C108.2,9.4,109.2,9.2,110.1,9.2z M110.1,21.3c0.9,0,1.8-0.3,2.6-0.8c0.8-0.5,1.4-1.3,1.7-2.1
	c0.4-0.9,0.5-1.8,0.3-2.7c-0.2-0.9-0.6-1.8-1.3-2.4c-0.7-0.7-1.5-1.1-2.4-1.3c-0.9-0.2-1.9-0.1-2.7,0.3c-0.9,0.4-1.6,1-2.1,1.8
	c-0.5,0.8-0.8,1.7-0.8,2.6c0,1.2,0.5,2.4,1.4,3.3C107.7,20.8,108.9,21.3,110.1,21.3z"/>
<path class="st0" d="M126.7,9.5c0-0.1,0.1-0.2,0.1-0.2c0.1-0.1,0.2-0.1,0.2-0.1h0.3c0.1,0,0.1,0,0.2,0.1c0.1,0,0.1,0.1,0.1,0.2
	l4.5,9.7h0.1l4.5-9.7c0-0.1,0.1-0.1,0.1-0.2c0.1,0,0.1-0.1,0.2,0h0.3c0.1,0,0.2,0,0.2,0.1c0.1,0.1,0.1,0.1,0.1,0.2l2.4,13.8
	c0,0.1,0,0.1,0,0.2c0,0.1,0,0.1-0.1,0.2c0,0-0.1,0.1-0.1,0.1c-0.1,0-0.1,0-0.2,0H138c-0.1,0-0.2,0-0.2-0.1c-0.1-0.1-0.1-0.1-0.1-0.2
	l-1.2-7.8h-0.1l-3.6,8.1c0,0.1-0.1,0.1-0.1,0.2c-0.1,0-0.1,0.1-0.2,0.1h-0.4c-0.1,0-0.1,0-0.2-0.1c-0.1,0-0.1-0.1-0.1-0.2l-3.6-8.1
	h-0.1l-1.2,7.8c0,0.1-0.1,0.2-0.1,0.2s-0.1,0.1-0.2,0.1h-1.8c-0.1,0-0.1,0-0.2,0c-0.1,0-0.1-0.1-0.1-0.1c0,0-0.1-0.1-0.1-0.2
	c0-0.1,0-0.1,0-0.2L126.7,9.5z"/>
<path class="st0" d="M149.6,9.5c0-0.1,0.1-0.2,0.1-0.2c0.1-0.1,0.2-0.1,0.2-0.1h0.3c0.1,0,0.1,0,0.2,0.1s0.1,0.1,0.1,0.2l4.5,9.7
	h0.1l4.5-9.7c0-0.1,0.1-0.1,0.1-0.2c0.1,0,0.1-0.1,0.2-0.1h0.4c0.1,0,0.2,0,0.2,0.1c0.1,0.1,0.1,0.1,0.1,0.2l2.4,13.8
	c0,0.1,0,0.1,0,0.2c0,0.1,0,0.1-0.1,0.2c0,0-0.1,0.1-0.1,0.1c-0.1,0-0.1,0-0.2,0H161c-0.1,0-0.2,0-0.2-0.1c-0.1-0.1-0.1-0.1-0.1-0.2
	l-1.2-7.8h-0.1l-3.6,8c0,0.1-0.1,0.1-0.1,0.2c-0.1,0-0.1,0.1-0.2,0.1H155c-0.1,0-0.1,0-0.2-0.1c-0.1,0-0.1-0.1-0.1-0.2l-3.6-8.1H151
	l-1.2,7.8c0,0.1-0.1,0.2-0.1,0.2c-0.1,0.1-0.1,0.1-0.2,0.1h-1.8c-0.1,0-0.1,0-0.2,0c-0.1,0-0.1-0.1-0.1-0.1c0,0-0.1-0.1-0.1-0.2
	c0-0.1,0-0.1,0-0.2L149.6,9.5z"/>
<path class="st0" d="M170.9,9.8c0-0.1,0-0.2,0.1-0.3c0.1-0.1,0.2-0.1,0.3-0.1h1.9c0.1,0,0.1,0,0.1,0c0,0,0.1,0,0.1,0.1
	c0,0,0.1,0.1,0.1,0.1c0,0,0,0.1,0,0.2v8.4c0,0.4,0,0.8,0.2,1.2c0.1,0.4,0.4,0.7,0.6,1c0.3,0.3,0.6,0.5,1,0.7
	c0.4,0.2,0.8,0.2,1.2,0.2c0.4,0,0.8-0.1,1.2-0.2c0.4-0.2,0.7-0.4,1-0.7c0.3-0.3,0.5-0.6,0.6-1c0.1-0.4,0.2-0.8,0.2-1.2V9.8
	c0-0.1,0-0.2,0.1-0.3c0.1-0.1,0.2-0.1,0.3-0.1h1.9c0.1,0,0.2,0,0.3,0.1c0.1,0.1,0.1,0.2,0.1,0.3v8.6c-0.1,1.5-0.7,2.9-1.7,3.9
	c-1.1,1-2.5,1.6-3.9,1.6s-2.9-0.6-3.9-1.6c-1.1-1-1.7-2.4-1.7-3.9V9.8z"/>
<path class="st0" d="M190.9,9.6c0-0.1,0-0.2,0.1-0.3c0.1-0.1,0.2-0.1,0.3-0.1h0.5l8.5,9.1V9.8c0-0.1,0-0.2,0.1-0.3s0.2-0.1,0.3-0.1
	h1.9c0.1,0,0.2,0,0.3,0.1c0.1,0.1,0.1,0.2,0.1,0.3v13.8c0,0.1,0,0.2-0.1,0.3c-0.1,0.1-0.2,0.1-0.3,0.1H202l-8.5-9.4v8.8
	c0,0.1,0,0.2-0.1,0.3c-0.1,0.1-0.2,0.1-0.3,0.1h-1.9c-0.1,0-0.2,0-0.3-0.1c-0.1-0.1-0.1-0.2-0.1-0.3L190.9,9.6z"/>
<path class="st0" d="M211.7,9.8c0-0.1,0-0.2,0.1-0.3c0.1-0.1,0.2-0.1,0.3-0.1h1.9c0.1,0,0.2,0,0.3,0.1c0.1,0.1,0.1,0.2,0.1,0.3v13.6
	c0,0.1,0,0.2-0.1,0.3c-0.1,0.1-0.2,0.1-0.3,0.1h-1.9c-0.1,0-0.2,0-0.3-0.1c-0.1-0.1-0.1-0.2-0.1-0.3L211.7,9.8z"/>
<path class="st0" d="M229.5,9.2c1.8,0,3.6,0.6,4.9,1.9c0,0,0.1,0.1,0.1,0.1c0,0,0,0.1,0,0.2c0,0.1,0,0.1,0,0.2c0,0-0.1,0.1-0.1,0.1
	l-1.2,1.3c0,0-0.1,0.1-0.1,0.1c0,0-0.1,0-0.1,0c0,0-0.1,0-0.1,0c0,0-0.1-0.1-0.1-0.1c-0.9-0.8-2-1.2-3.1-1.2c-1.2,0-2.4,0.6-3.2,1.5
	c-0.8,0.9-1.3,2.1-1.3,3.3c0,1.2,0.5,2.4,1.3,3.3c0.8,0.9,2,1.4,3.2,1.5c1.1,0,2.3-0.4,3.1-1.2c0.1-0.1,0.2-0.1,0.3-0.1
	s0.2,0,0.3,0.1l1.3,1.3c0.1,0.1,0.1,0.2,0.1,0.3s0,0.2-0.1,0.3c-1.3,1.3-3.1,2-5,2c-2,0-3.8-0.8-5.2-2.2c-1.4-1.4-2.2-3.3-2.2-5.2
	s0.8-3.9,2.2-5.2C225.7,10,227.5,9.2,229.5,9.2L229.5,9.2z"/>
<path class="st0" d="M239.4,23.3l6.3-13.8c0-0.1,0.1-0.1,0.1-0.2s0.1-0.1,0.2-0.1h0.2c0.1,0,0.1,0,0.2,0.1c0.1,0,0.1,0.1,0.1,0.2
	l6.3,13.8c0,0.1,0,0.1,0,0.2c0,0.1,0,0.1-0.1,0.2c0,0.1-0.1,0.1-0.1,0.1c-0.1,0-0.1,0-0.2,0h-1.8c-0.1,0-0.3,0-0.4-0.1
	c-0.1-0.1-0.2-0.2-0.2-0.3l-1-2.2h-6.1l-1,2.2c0,0.1-0.1,0.2-0.2,0.3c-0.1,0.1-0.2,0.1-0.4,0.1h-1.8c-0.1,0-0.1,0-0.2,0
	c-0.1,0-0.1-0.1-0.2-0.1c0-0.1-0.1-0.1-0.1-0.2C239.4,23.4,239.4,23.3,239.4,23.3z M248.2,18.9l-2-4.5h-0.1l-2,4.5H248.2z"/>
<path class="st0" d="M260,11.9h-3.1c-0.1,0-0.2,0-0.3-0.1c-0.1-0.1-0.1-0.2-0.1-0.3V9.8c0-0.1,0-0.2,0.1-0.3
	c0.1-0.1,0.2-0.1,0.3-0.1h8.9c0.1,0,0.2,0,0.3,0.1c0.1,0.1,0.1,0.2,0.1,0.3v1.7c0,0.1,0,0.2-0.1,0.3c-0.1,0.1-0.2,0.1-0.3,0.1h-3.1
	v11.5c0,0.1,0,0.2-0.1,0.3c-0.1,0.1-0.2,0.1-0.3,0.1h-1.9c-0.1,0-0.2,0-0.3-0.1c-0.1-0.1-0.1-0.2-0.1-0.3V11.9z"/>
<path class="st0" d="M273.4,9.8c0-0.1,0-0.2,0.1-0.3c0.1-0.1,0.2-0.1,0.3-0.1h1.9c0.1,0,0.2,0,0.3,0.1c0.1,0.1,0.1,0.2,0.1,0.3v13.6
	c0,0.1,0,0.2-0.1,0.3c-0.1,0.1-0.2,0.1-0.3,0.1h-1.9c-0.1,0-0.2,0-0.3-0.1c-0.1-0.1-0.1-0.2-0.1-0.3V9.8z"/>
<path class="st0" d="M291.2,9.2c1.5,0,2.9,0.4,4.1,1.2c1.2,0.8,2.2,2,2.7,3.3c0.6,1.4,0.7,2.8,0.4,4.3c-0.3,1.4-1,2.8-2,3.8
	c-1,1-2.3,1.7-3.8,2c-1.4,0.3-2.9,0.1-4.2-0.4c-1.3-0.6-2.5-1.5-3.3-2.7c-0.8-1.2-1.2-2.6-1.2-4.1c0-1,0.2-1.9,0.5-2.8
	c0.4-0.9,0.9-1.7,1.6-2.4c0.7-0.7,1.5-1.2,2.4-1.6C289.3,9.4,290.3,9.2,291.2,9.2z M291.2,21.3c0.9,0,1.8-0.3,2.6-0.8
	c0.8-0.5,1.4-1.3,1.7-2.1c0.4-0.9,0.5-1.8,0.3-2.7s-0.6-1.8-1.3-2.4c-0.7-0.7-1.5-1.1-2.4-1.3c-0.9-0.2-1.9-0.1-2.7,0.3
	c-0.9,0.4-1.6,1-2.1,1.8c-0.5,0.8-0.8,1.7-0.8,2.6c0,1.2,0.5,2.4,1.4,3.3C288.8,20.8,290,21.3,291.2,21.3z"/>
<path class="st0" d="M306.1,9.6c0-0.1,0-0.2,0.1-0.3c0.1-0.1,0.2-0.1,0.3-0.1h0.5l8.5,9.1V9.8c0-0.1,0-0.1,0-0.2c0,0,0-0.1,0.1-0.1
	c0,0,0.1-0.1,0.1-0.1c0,0,0.1,0,0.2,0h1.9c0.1,0,0.2,0,0.3,0.1c0.1,0.1,0.1,0.2,0.1,0.3v13.8c0,0.1,0,0.2-0.1,0.3s-0.2,0.1-0.3,0.1
	h-0.5l-8.5-9.4v8.8c0,0.1,0,0.1,0,0.2c0,0,0,0.1-0.1,0.1c0,0-0.1,0.1-0.1,0.1c0,0-0.1,0-0.1,0h-1.9c-0.1,0-0.2,0-0.3-0.1
	c-0.1-0.1-0.1-0.2-0.1-0.3L306.1,9.6z"/>
<path class="st0" d="M326.2,21.8l0.7-1.3c0-0.1,0.1-0.1,0.1-0.2c0.1,0,0.1-0.1,0.2-0.1c0.1,0,0.1,0,0.2,0c0.1,0,0.1,0,0.2,0.1
	c0.1,0.1,1.8,1.3,3.1,1.3c0.2,0,0.5,0,0.7-0.1c0.2-0.1,0.4-0.2,0.6-0.3c0.2-0.1,0.3-0.3,0.4-0.5c0.1-0.2,0.2-0.4,0.2-0.7
	c0-1-0.9-1.8-2.6-2.5c-1.9-0.8-3.8-2-3.8-4.4c0-1.8,1.3-3.9,4.6-3.9c1.5,0,2.9,0.5,4.1,1.4c0.1,0,0.1,0.1,0.1,0.1
	c0,0.1,0.1,0.1,0.1,0.2c0,0.1,0,0.1,0,0.2c0,0.1,0,0.1-0.1,0.2l-0.8,1.2c-0.1,0.1-0.2,0.2-0.3,0.3s-0.3,0-0.4,0
	c-0.2-0.1-1.7-1.1-2.8-1.1c-0.4,0-0.8,0.1-1.2,0.3c-0.3,0.3-0.6,0.7-0.6,1.1c0,1,0.8,1.6,2.4,2.3c2,0.8,4.3,2,4.3,4.6
	c0,2.1-1.8,4.1-4.7,4.1c-1.6,0.1-3.2-0.5-4.5-1.6C326.1,22.2,326,22.1,326.2,21.8z"/>
<path class="st0" d="M349.4,9.2c0.6,0,1.2,0.1,1.8,0.3c0.6,0.2,1.1,0.6,1.6,1c0,0,0.1,0.1,0.1,0.1c0,0,0,0.1,0,0.1c0,0,0,0.1,0,0.1
	c0,0,0,0.1-0.1,0.1l-1.1,1.2c0,0,0,0-0.1,0.1c0,0-0.1,0-0.1,0c0,0-0.1,0-0.1,0c0,0-0.1,0-0.1-0.1c-0.5-0.5-1.2-0.7-1.9-0.7
	c-0.7,0-1.4,0.4-1.9,0.9c-0.5,0.5-0.8,1.2-0.8,2c0,0.7,0.3,1.5,0.8,2c0.5,0.5,1.2,0.9,1.9,0.9c0.7,0,1.3-0.3,1.9-0.7
	c0.1,0,0.1-0.1,0.2-0.1c0.1,0,0.1,0,0.2,0.1l1.1,1.2c0,0.1,0.1,0.1,0.1,0.2c0,0.1,0,0.1-0.1,0.2c-0.9,0.9-2.1,1.4-3.4,1.4
	c-0.7,0-1.4-0.1-2-0.3c-0.6-0.2-1.2-0.6-1.7-1.1c-0.5-0.5-0.9-1-1.1-1.7c-0.3-0.6-0.4-1.3-0.4-2c0-0.7,0.1-1.4,0.4-2
	c0.3-0.6,0.7-1.2,1.1-1.7c0.5-0.5,1.1-0.8,1.7-1.1C348.1,9.3,348.8,9.2,349.4,9.2L349.4,9.2z"/>
<path class="st0" d="M360.9,9.2c1,0,2,0.3,2.8,0.8c0.8,0.6,1.5,1.3,1.9,2.3c0.4,0.9,0.5,2,0.3,2.9c-0.2,1-0.7,1.9-1.4,2.6
	c-0.7,0.7-1.6,1.2-2.6,1.4s-2,0.1-2.9-0.3c-0.9-0.4-1.7-1-2.3-1.9s-0.9-1.8-0.9-2.8c0-0.7,0.1-1.3,0.4-1.9c0.3-0.6,0.6-1.2,1.1-1.7
	c0.5-0.5,1-0.8,1.6-1.1C359.6,9.4,360.2,9.2,360.9,9.2z M360.9,17.1c0.6,0,1.1-0.2,1.6-0.5s0.8-0.8,1-1.3s0.3-1.1,0.2-1.6
	s-0.4-1.1-0.8-1.4c-0.4-0.4-0.9-0.7-1.4-0.8c-0.5-0.1-1.1-0.1-1.6,0.2s-1,0.6-1.3,1c-0.3,0.5-0.5,1-0.5,1.6c0,0.7,0.3,1.5,0.8,2
	C359.4,16.8,360.1,17.1,360.9,17.1z"/>
<path class="st0" d="M365.7,22h-21.1c-0.2,0-0.3,0.1-0.3,0.3v1.4c0,0.2,0.1,0.3,0.3,0.3h21.1c0.2,0,0.3-0.1,0.3-0.3v-1.4
	C366,22.1,365.9,22,365.7,22z"/>
<path class="st0" d="M0,0v34h12.7V0H0z M9.4,30.3h-6V3.7h6V30.3z"/>
<path class="st0" d="M46.5,0v34l28.8,0l0-34H46.5z M72.9,30.4h-7.1l-9.6-11v11h-6.1V3.6h6.1v10.1L65,3.6h7.1L72.2,4L61,16.6l12,13.4
	L72.9,30.4z"/>
<path class="st0" d="M15.2,0v34H44V0H15.2z M40.6,30.5l-0.3,0.2L24.7,16.7v13.7h-6.1V3.6L19,3.5l15.5,13.8V3.8h6.1V30.5z"/>
</svg>
