<svg enable-background="new 0 0 239 109" viewBox="0 0 239 109" xmlns="http://www.w3.org/2000/svg"><g clip-rule="evenodd" fill-rule="evenodd"><path d="m0 0v109.1h40.3v-109.1zm29.8 97.3h-19.2v-85.5h19.2z" fill="#2f2f2e"/><path d="m147.5 0v109.2h91.5v-109.2zm83.8 97.5h-22.3l-30.5-35.3v35.3h-19.4v-85.8h19.4v32.6l27.9-32.6h22.6l.4 1.2-35.7 40.3 38.2 43z" fill="#2f2f2e"/><path d="m231.7 96.3-.4 1.2h-22.4l-30.5-35.3v35.3h-19.4v-85.8h19.4v32.6l27.9-32.6h22.6l.3 1.2-35.7 40.3z" fill="#fff"/><path d="m48.2 0v109.2h91.4v-109.2zm80.4 97.9-1 .5-49.1-44.7v43.9h-19.3v-86.1l1.1-.4 49.2 44.3v-43.2h19.1z" fill="#2f2f2e"/><g fill="#fff"><path d="m128.6 12.2v85.7l-.9.5-49.2-44.7v44h-19.3v-86.2l1.1-.4 49.2 44.3v-43.2z"/><path d="m10.6 11.8h19.2v85.5h-19.2z"/></g></g></svg>