<svg width="300" height="164" viewBox="0 0 300 164" fill="none" xmlns="http://www.w3.org/2000/svg">					<g clip-path="url(#clip0)">						<path fill-rule="evenodd" clip-rule="evenodd" d="M185.146 0V137.071H300V0H185.146ZM290.335 122.385H262.343L224.059 78.0753V122.385H199.707V14.6862H224.059V55.6067L259.079 14.6862H287.448L287.95 16.1925L243.138 66.7782L291.088 120.753L290.335 122.385Z" fill="#2F2F2E"></path>						<path fill-rule="evenodd" clip-rule="evenodd" d="M60.5021 0V137.071H175.23V0H60.5021ZM161.423 122.887L160.167 123.515L98.5356 67.4059V122.51H74.3096V14.4351L75.6904 13.9331L137.448 69.5397V15.3138H161.423V122.887Z" fill="#2F2F2E"></path>						<path fill-rule="evenodd" clip-rule="evenodd" d="M0 0V136.946H50.5858V0H0ZM37.4059 122.134H13.3054V14.8117H37.4059V122.134Z" fill="#2F2F2E"></path>						<path d="M8.91213 147.364C9.91631 147.364 10.795 147.49 11.6736 147.866C12.5523 148.243 13.431 148.745 14.0586 149.372L14.1841 149.498V149.623V149.749C14.1841 149.749 14.1841 149.874 14.0586 149.874L12.8033 151.255L12.6778 151.381H12.5523H12.4268C12.4268 151.381 12.3012 151.381 12.3012 151.255C11.4226 150.377 10.1674 150 9.03765 150C7.78242 150 6.52719 150.628 5.64853 151.506C4.76987 152.51 4.26778 153.766 4.26778 155.021C4.26778 156.276 4.76987 157.657 5.64853 158.536C6.52719 159.54 7.78242 160.042 9.03765 160.042C10.2929 160.042 11.4226 159.54 12.3012 158.787C12.4268 158.661 12.4268 158.661 12.5523 158.661C12.6778 158.661 12.8033 158.661 12.8033 158.787L14.1841 160.167L14.3096 160.293V160.418V160.544C14.3096 160.544 14.3096 160.669 14.1841 160.669C12.8033 162.05 10.9205 162.803 8.91213 162.803C6.90376 162.803 4.89539 161.925 3.38911 160.544C1.88284 159.038 1.1297 157.029 1.1297 155.021C1.1297 153.013 1.88284 150.879 3.38911 149.498C4.76987 148.117 6.77824 147.364 8.91213 147.364V147.364Z" fill="#2F2F2E"></path>						<path d="M28.8703 147.364C30.3766 147.364 31.8828 147.866 33.1381 148.619C34.3933 149.498 35.3975 150.753 36.0251 152.134C36.6527 153.515 36.7782 155.146 36.5272 156.653C36.2761 158.159 35.523 159.54 34.3933 160.669C33.2636 161.799 31.8828 162.552 30.5021 162.803C28.9958 163.054 27.4895 162.929 25.9833 162.427C24.477 161.925 23.3473 160.795 22.4686 159.54C21.5899 158.285 21.2134 156.778 21.2134 155.146C21.2134 154.142 21.4644 153.138 21.841 152.134C22.2176 151.13 22.8452 150.251 23.4728 149.623C24.2259 148.87 24.9791 148.368 25.9833 147.866C26.8619 147.49 27.8661 147.364 28.8703 147.364V147.364ZM28.8703 160.293C29.8745 160.293 30.7531 160.042 31.6318 159.414C32.3849 158.912 33.1381 158.033 33.5146 157.155C33.8912 156.276 34.0167 155.272 33.7657 154.268C33.5146 153.264 33.1381 152.385 32.3849 151.632C31.6318 150.879 30.7531 150.502 29.8745 150.251C28.8703 150 27.8661 150.126 26.9874 150.502C26.1088 150.879 25.3556 151.506 24.728 152.385C24.2259 153.264 23.8494 154.142 23.8494 155.146C23.8494 156.527 24.3515 157.782 25.3556 158.661C26.2343 159.665 27.4895 160.293 28.8703 160.293V160.293Z" fill="#2F2F2E"></path>						<path d="M46.318 147.615C46.318 147.49 46.318 147.49 46.4435 147.364C46.569 147.364 46.569 147.238 46.6946 147.238H47.0711H47.3222C47.4477 147.238 47.4477 147.364 47.4477 147.364L52.2176 157.657L56.9874 147.364C56.9874 147.238 57.113 147.238 57.113 147.238H57.364H57.7406C57.8661 147.238 57.8661 147.238 57.9916 147.364C58.1172 147.364 58.1172 147.49 58.1172 147.615L60.6276 162.301V162.552C60.6276 162.678 60.6276 162.678 60.5021 162.678L60.3766 162.803H60.251H58.2427C58.1172 162.803 58.1172 162.803 57.9916 162.678C57.8661 162.678 57.8661 162.552 57.8661 162.427L56.6109 154.142H56.4854L52.7197 162.803C52.7197 162.929 52.5941 162.929 52.5941 162.929C52.4686 162.929 52.4686 163.054 52.3431 162.929H51.9665C51.841 162.929 51.841 162.929 51.7155 162.929C51.59 162.929 51.59 162.803 51.59 162.803L47.8243 154.142H47.6987L46.4435 162.427C46.4435 162.552 46.318 162.552 46.318 162.678C46.1925 162.678 46.1925 162.803 46.0669 162.803H44.1841H44.0586L43.933 162.678L43.8075 162.552C43.8075 162.552 43.8075 162.427 43.8075 162.301L46.318 147.615Z" fill="#2F2F2E"></path>						<path d="M70.4184 147.615C70.4184 147.49 70.4184 147.49 70.5439 147.364C70.6694 147.364 70.6694 147.238 70.795 147.238H71.1715H71.4226C71.5481 147.238 71.5481 147.364 71.5481 147.364L76.318 157.657L81.0879 147.364C81.0879 147.238 81.2134 147.238 81.2134 147.238H81.4644H81.841C81.9665 147.238 81.9665 147.238 82.092 147.364C82.2176 147.364 82.2176 147.49 82.2176 147.615L84.728 162.301V162.427C84.728 162.552 84.728 162.552 84.6025 162.552L84.477 162.678H84.3515H82.3431C82.2176 162.678 82.2176 162.678 82.092 162.552C81.9665 162.552 81.9665 162.427 81.9665 162.301L80.7113 154.017H80.5858L76.8201 162.678C76.8201 162.803 76.6946 162.803 76.6946 162.803C76.569 162.803 76.569 162.929 76.4435 162.803H76.0669C75.9414 162.803 75.9414 162.803 75.8159 162.803C75.6904 162.803 75.6904 162.678 75.6904 162.678L71.9247 154.017L70.6694 162.301C70.6694 162.427 70.5439 162.427 70.5439 162.552C70.4184 162.552 70.4184 162.678 70.2929 162.678H68.41H68.2845L68.159 162.552L68.0335 162.427V162.301L70.4184 147.615Z" fill="#2F2F2E"></path>						<path d="M92.7615 147.992C92.7615 147.866 92.7615 147.741 92.887 147.741C93.0125 147.615 93.0125 147.615 93.1381 147.615H95.1464C95.272 147.615 95.3975 147.615 95.3975 147.741C95.523 147.866 95.523 147.866 95.523 147.992V156.904C95.523 157.28 95.523 157.782 95.7741 158.159C95.8996 158.536 96.1506 158.912 96.4017 159.289C96.6527 159.54 97.0293 159.791 97.4058 160.042C97.7824 160.167 98.159 160.293 98.6611 160.293C99.1632 160.293 99.5397 160.167 99.9163 160.042C100.293 159.916 100.669 159.665 100.92 159.289C101.172 159.038 101.423 158.661 101.548 158.159C101.674 157.782 101.799 157.28 101.799 156.904V147.992C101.799 147.866 101.799 147.741 101.925 147.741C102.05 147.615 102.05 147.615 102.176 147.615H104.31C104.435 147.615 104.561 147.615 104.561 147.741C104.686 147.866 104.686 147.866 104.686 147.992V157.155C104.686 158.787 104.059 160.293 102.929 161.423C101.799 162.552 100.293 163.18 98.6611 163.18C97.0293 163.18 95.523 162.552 94.3933 161.423C93.2636 160.293 92.636 158.787 92.636 157.155L92.7615 147.992Z" fill="#2F2F2E"></path>						<path d="M113.724 147.741V147.615C113.724 147.615 113.724 147.49 113.849 147.49L113.975 147.364H114.1H114.602L123.515 157.029V147.992C123.515 147.866 123.515 147.741 123.64 147.741C123.766 147.615 123.766 147.615 123.891 147.615H125.9C126.025 147.615 126.151 147.615 126.151 147.741C126.276 147.866 126.276 147.866 126.276 147.992V162.678C126.276 162.803 126.276 162.929 126.151 162.929C126.025 163.054 126.025 163.054 125.9 163.054H125.523L116.485 153.013V162.427C116.485 162.552 116.485 162.678 116.36 162.678C116.234 162.803 116.234 162.803 116.109 162.803H114.226C114.1 162.803 113.975 162.803 113.975 162.678C113.849 162.552 113.849 162.552 113.849 162.427V147.741H113.724Z" fill="#2F2F2E"></path>						<path d="M135.816 147.992C135.816 147.866 135.816 147.741 135.941 147.741C136.067 147.615 136.067 147.615 136.192 147.615H138.201C138.326 147.615 138.452 147.615 138.452 147.741C138.577 147.866 138.577 147.866 138.577 147.992V162.552C138.577 162.678 138.577 162.803 138.452 162.803C138.326 162.929 138.326 162.929 138.201 162.929H136.192C136.067 162.929 135.941 162.929 135.941 162.803C135.816 162.678 135.816 162.678 135.816 162.552V147.992Z" fill="#2F2F2E"></path>						<path d="M154.519 147.364C156.402 147.364 158.285 147.992 159.665 149.372L159.791 149.498V149.623V149.749C159.791 149.749 159.791 149.874 159.665 149.874L158.41 151.255L158.285 151.381H158.159H158.033C158.033 151.381 157.908 151.381 157.908 151.255C157.029 150.377 155.774 150 154.644 150C153.389 150 152.134 150.628 151.255 151.506C150.377 152.51 149.874 153.766 149.874 155.021C149.874 156.276 150.377 157.657 151.255 158.536C152.134 159.54 153.389 160.042 154.644 160.042C155.9 160.042 157.029 159.54 157.908 158.787C158.033 158.661 158.033 158.661 158.159 158.661C158.285 158.661 158.41 158.661 158.41 158.787L159.791 160.167L159.916 160.293V160.418V160.544C159.916 160.544 159.916 160.669 159.791 160.669C158.41 162.05 156.527 162.803 154.519 162.803C152.51 162.803 150.502 161.925 148.996 160.544C147.49 159.038 146.736 157.029 146.736 155.021C146.736 153.013 147.49 150.879 148.996 149.498C150.377 148.117 152.385 147.364 154.519 147.364V147.364Z" fill="#2F2F2E"></path>						<path d="M164.812 162.301L171.464 147.615C171.464 147.49 171.59 147.49 171.59 147.49C171.715 147.49 171.715 147.364 171.841 147.364H172.092H172.343C172.469 147.364 172.469 147.49 172.469 147.49L179.121 162.176V162.427V162.678L178.996 162.803C178.996 162.803 178.87 162.803 178.745 162.803H176.862C176.736 162.803 176.611 162.803 176.485 162.678C176.36 162.552 176.234 162.427 176.234 162.301L175.23 159.916H168.828L167.824 162.301C167.824 162.427 167.699 162.552 167.573 162.678C167.448 162.803 167.322 162.803 167.197 162.803H165.314C165.188 162.803 165.188 162.803 165.063 162.803C164.937 162.803 164.937 162.678 164.937 162.678C164.937 162.678 164.937 162.552 164.937 162.427C164.812 162.427 164.812 162.427 164.812 162.301ZM174.1 157.657L171.967 152.887L169.833 157.657H174.1Z" fill="#2F2F2E"></path>						<path d="M186.527 150.126H183.264H183.138C183.138 150.126 183.013 150.126 183.013 150L182.887 149.874V149.749V147.992C182.887 147.866 182.887 147.741 183.013 147.741C183.138 147.615 183.138 147.615 183.264 147.615H192.678C192.803 147.615 192.929 147.615 192.929 147.741C193.054 147.866 193.054 147.866 193.054 147.992V149.749V149.874C193.054 149.874 193.054 150 192.929 150L192.803 150.126H192.678H189.414V162.427C189.414 162.552 189.414 162.678 189.289 162.678C189.163 162.803 189.163 162.803 189.038 162.803H187.029C186.904 162.803 186.778 162.803 186.778 162.678C186.653 162.552 186.653 162.552 186.653 162.427L186.527 150.126Z" fill="#2F2F2E"></path>						<path d="M200.711 147.992C200.711 147.866 200.711 147.741 200.837 147.741C200.962 147.615 200.962 147.615 201.088 147.615H203.096C203.222 147.615 203.347 147.615 203.347 147.741C203.473 147.866 203.473 147.866 203.473 147.992V162.552C203.473 162.678 203.473 162.803 203.347 162.803C203.222 162.929 203.222 162.929 203.096 162.929H201.088C200.962 162.929 200.837 162.929 200.837 162.803C200.711 162.678 200.711 162.678 200.711 162.552V147.992Z" fill="#2F2F2E"></path>						<path d="M219.414 147.364C220.921 147.364 222.427 147.866 223.682 148.619C224.937 149.498 225.941 150.753 226.569 152.134C227.197 153.515 227.322 155.146 227.071 156.653C226.82 158.159 226.067 159.54 224.937 160.669C223.808 161.799 222.427 162.552 221.046 162.803C219.665 163.054 218.033 162.929 216.527 162.427C215.146 161.799 213.891 160.795 213.013 159.54C212.134 158.285 211.757 156.778 211.757 155.146C211.757 154.142 212.008 153.138 212.385 152.134C212.761 151.13 213.389 150.251 214.017 149.623C214.77 148.87 215.523 148.368 216.527 147.866C217.406 147.49 218.41 147.364 219.414 147.364V147.364ZM219.414 160.293C220.418 160.293 221.297 160.042 222.176 159.414C222.929 158.912 223.682 158.033 224.059 157.155C224.435 156.276 224.561 155.272 224.31 154.268C224.059 153.264 223.682 152.385 222.929 151.632C222.176 150.879 221.297 150.502 220.418 150.251C219.414 150 218.41 150.126 217.531 150.502C216.653 150.879 215.9 151.506 215.272 152.385C214.77 153.264 214.393 154.142 214.393 155.146C214.393 156.527 214.895 157.782 215.9 158.661C216.904 159.665 218.159 160.293 219.414 160.293V160.293Z" fill="#2F2F2E"></path>						<path d="M235.105 147.741C235.105 147.615 235.105 147.49 235.23 147.49C235.356 147.364 235.356 147.364 235.481 147.364H235.983L244.895 157.029V147.992C244.895 147.866 244.895 147.741 245.021 147.741C245.146 147.615 245.146 147.615 245.272 147.615H247.28C247.406 147.615 247.531 147.615 247.531 147.741C247.657 147.866 247.657 147.866 247.657 147.992V162.678C247.657 162.803 247.657 162.929 247.531 162.929C247.406 163.054 247.406 163.054 247.28 163.054H246.778L237.741 153.013V162.427C237.741 162.552 237.741 162.678 237.615 162.678C237.49 162.803 237.49 162.803 237.364 162.803H235.356C235.23 162.803 235.105 162.803 235.105 162.678C234.979 162.552 234.979 162.552 234.979 162.427V147.741H235.105Z" fill="#2F2F2E"></path>						<path d="M256.192 160.795L256.946 159.414C256.946 159.289 257.071 159.289 257.071 159.289C257.071 159.289 257.197 159.163 257.322 159.163H257.573C257.699 159.163 257.699 159.163 257.824 159.289C257.95 159.414 259.707 160.669 261.088 160.669C261.339 160.669 261.59 160.669 261.841 160.544C262.092 160.418 262.218 160.293 262.469 160.167C262.72 160.042 262.845 159.791 262.971 159.54C263.096 159.289 263.096 159.038 263.222 158.787C263.222 157.657 262.343 156.904 260.46 156.151C258.452 155.272 256.444 154.017 256.444 151.381C256.444 149.372 257.824 147.113 261.213 147.113C262.72 147.113 264.226 147.615 265.481 148.619C265.607 148.745 265.607 148.87 265.732 148.996C265.732 149.121 265.732 149.247 265.607 149.372L264.728 150.628C264.602 150.753 264.603 150.879 264.351 150.879C264.226 150.879 264.1 150.879 263.975 150.879C263.849 150.753 262.218 149.623 260.962 149.623C260.46 149.623 260.084 149.749 259.707 150C259.331 150.251 259.08 150.753 259.08 151.13C259.08 152.134 259.833 152.887 261.59 153.64C263.724 154.519 266.109 155.774 266.109 158.536C266.109 160.795 264.226 162.929 261.213 162.929C259.456 162.929 257.824 162.427 256.444 161.172C256.067 161.172 255.941 161.046 256.192 160.795V160.795Z" fill="#2F2F2E"></path>						<path d="M280.669 147.364C281.297 147.364 281.925 147.49 282.552 147.741C283.18 147.992 283.682 148.368 284.184 148.745C284.184 148.745 284.184 148.745 284.31 148.87V148.996V149.121C284.31 149.121 284.31 149.247 284.184 149.247L283.054 150.502L282.929 150.628C282.803 150.628 282.803 150.628 282.803 150.502C282.301 150 281.548 149.749 280.795 149.749C280.042 149.749 279.289 150.126 278.661 150.628C278.033 151.255 277.782 152.008 277.782 152.761C277.782 153.515 278.159 154.393 278.661 154.895C279.289 155.523 280.042 155.774 280.795 155.774C281.548 155.774 282.176 155.523 282.803 155.021C282.803 155.021 282.929 154.895 283.054 154.895C283.18 154.895 283.18 154.895 283.305 155.021L284.435 156.276C284.435 156.276 284.561 156.402 284.561 156.527C284.561 156.653 284.561 156.653 284.435 156.778C283.431 157.782 282.176 158.285 280.795 158.285C279.414 158.285 278.033 157.657 277.029 156.653C276.025 155.649 275.523 154.268 275.523 152.887C275.523 151.506 276.025 150.126 277.029 149.121C277.908 147.866 279.289 147.364 280.669 147.364Z" fill="#2F2F2E"></path>						<path d="M292.72 147.364C293.724 147.364 294.854 147.615 295.732 148.243C296.611 148.87 297.238 149.623 297.741 150.628C298.117 151.632 298.243 152.762 297.992 153.766C297.741 154.77 297.238 155.774 296.485 156.527C295.732 157.28 294.854 157.782 293.724 158.033C292.72 158.285 291.59 158.159 290.711 157.782C289.707 157.406 288.954 156.653 288.326 155.774C287.699 154.895 287.448 153.891 287.448 152.761C287.448 152.008 287.573 151.381 287.824 150.628C288.075 150 288.452 149.372 288.954 148.87C289.456 148.368 290.084 147.992 290.711 147.741C291.339 147.49 291.967 147.364 292.72 147.364V147.364ZM292.72 155.774C293.347 155.774 293.849 155.649 294.351 155.272C294.854 154.895 295.23 154.519 295.481 153.891C295.732 153.389 295.732 152.761 295.607 152.134C295.481 151.506 295.23 151.004 294.854 150.628C294.477 150.251 293.975 149.874 293.347 149.749C292.72 149.623 292.218 149.749 291.59 149.874C291.088 150.126 290.586 150.502 290.209 151.004C289.833 151.506 289.707 152.134 289.707 152.636C289.707 153.389 290.084 154.142 290.586 154.77C291.213 155.397 291.967 155.774 292.72 155.774V155.774Z" fill="#2F2F2E"></path>						<path d="M297.866 160.921H275.649C275.523 160.921 275.397 161.046 275.397 161.172V162.678C275.397 162.803 275.523 162.929 275.649 162.929H297.866C297.992 162.929 298.117 162.803 298.117 162.678V161.172C298.117 161.046 297.992 160.921 297.866 160.921Z" fill="#2F2F2E"></path>					</g>					<defs>						<clipPath id="clip0">							<rect width="300" height="163.18" fill="white"></rect>						</clipPath>					</defs>				</svg>