<svg width="400" height="38" viewBox="0 0 400 38" fill="none" xmlns="http://www.w3.org/2000/svg">
<g clip-path="url(#clip0)">
<path d="M99.5628 10.0547C101.53 10.0547 103.497 10.7104 104.918 12.1312L105.027 12.2404V12.459V12.6776L104.918 12.7869L103.607 14.2077L103.497 14.317H103.388H103.279L103.169 14.2077C102.186 13.3333 100.984 12.8962 99.7814 12.8962C98.47 12.8962 97.1585 13.5519 96.2842 14.5355C95.4098 15.5191 94.8634 16.8306 94.8634 18.1421C94.8634 19.4536 95.4098 20.765 96.2842 21.7486C97.1585 22.7323 98.47 23.2787 99.7814 23.388C100.984 23.388 102.186 22.9508 103.169 22.0765C103.279 21.9672 103.388 21.9672 103.497 21.9672C103.607 21.9672 103.716 21.9672 103.825 22.0765L105.246 23.4973C105.355 23.6066 105.355 23.7159 105.355 23.8251C105.355 23.9344 105.355 24.0437 105.246 24.153C103.825 25.5738 101.858 26.3388 99.7814 26.3388C97.5956 26.3388 95.6284 25.4645 94.0984 23.9344C92.5683 22.4044 91.694 20.3279 91.694 18.2514C91.694 16.0656 92.5683 13.9891 94.0984 12.5683C95.4098 10.929 97.4863 10.0547 99.5628 10.0547V10.0547Z" fill="white"/>
<path d="M120.328 10.0547C121.967 10.0547 123.497 10.4918 124.809 11.3661C126.12 12.2404 127.213 13.5519 127.76 14.9727C128.306 16.3935 128.525 18.0328 128.197 19.6721C127.869 21.3115 127.104 22.7323 126.011 23.8251C124.918 24.918 123.497 25.6831 121.858 26.0109C120.328 26.3388 118.689 26.1202 117.268 25.5738C115.847 24.918 114.536 23.9344 113.661 22.623C112.787 21.3115 112.35 19.7814 112.35 18.1421C112.35 17.0492 112.568 16.0656 112.896 15.082C113.333 14.0984 113.88 13.2241 114.645 12.459C115.41 11.694 116.284 11.1476 117.268 10.7104C118.251 10.2732 119.344 10.0547 120.328 10.0547V10.0547ZM120.328 23.2787C121.311 23.2787 122.295 22.9508 123.169 22.4044C124.044 21.8579 124.699 20.9836 125.027 20.1093C125.464 19.1257 125.574 18.1421 125.355 17.1585C125.137 16.1749 124.699 15.1913 123.934 14.5355C123.169 13.7705 122.295 13.3333 121.311 13.1148C120.328 12.8962 119.235 13.0055 118.361 13.4426C117.377 13.8798 116.612 14.5355 116.066 15.4098C115.519 16.2842 115.191 17.2678 115.191 18.2514C115.191 19.5629 115.738 20.8743 116.721 21.8579C117.705 22.7323 119.016 23.2787 120.328 23.2787Z" fill="white"/>
<path d="M138.47 10.3825C138.47 10.2732 138.579 10.1639 138.579 10.1639C138.689 10.0547 138.798 10.0547 138.798 10.0547H139.126C139.235 10.0547 139.235 10.0547 139.344 10.1639C139.454 10.1639 139.454 10.2732 139.454 10.3825L144.372 20.9836H144.481L149.399 10.3825C149.399 10.2732 149.508 10.2732 149.508 10.1639C149.618 10.1639 149.617 10.0547 149.727 10.1639H150.055C150.164 10.1639 150.273 10.1639 150.273 10.2732C150.383 10.3825 150.383 10.3825 150.383 10.4918L153.005 25.5738V25.7924C153.005 25.9017 153.005 25.9017 152.896 26.0109L152.787 26.1202C152.678 26.1202 152.678 26.1202 152.568 26.1202H150.82C150.71 26.1202 150.601 26.1202 150.601 26.0109C150.492 25.9017 150.492 25.9017 150.492 25.7924L149.18 17.2678H149.071L145.137 26.1202C145.137 26.2295 145.027 26.2295 145.027 26.3388C144.918 26.3388 144.918 26.4481 144.809 26.4481H144.372C144.262 26.4481 144.262 26.4481 144.153 26.3388C144.044 26.3388 144.044 26.2295 144.044 26.1202L140.109 17.2678H140L138.689 25.7924C138.689 25.9017 138.579 26.0109 138.579 26.0109C138.579 26.0109 138.47 26.1202 138.361 26.1202H136.393C136.284 26.1202 136.284 26.1202 136.175 26.1202C136.066 26.1202 136.066 26.0109 136.066 26.0109C136.066 26.0109 135.956 25.9017 135.956 25.7924C135.956 25.6831 135.956 25.6831 135.956 25.5738L138.47 10.3825Z" fill="white"/>
<path d="M163.497 10.3825C163.497 10.2732 163.607 10.1639 163.607 10.1639C163.716 10.0547 163.825 10.0547 163.825 10.0547H164.153C164.262 10.0547 164.262 10.0547 164.372 10.1639C164.481 10.2732 164.481 10.2732 164.481 10.3825L169.399 20.9836H169.508L174.426 10.3825C174.426 10.2732 174.536 10.2732 174.536 10.1639C174.645 10.1639 174.645 10.0547 174.754 10.0547H175.191C175.301 10.0547 175.41 10.0547 175.41 10.1639C175.519 10.2732 175.519 10.2732 175.519 10.3825L178.142 25.4645V25.6831C178.142 25.7924 178.142 25.7924 178.033 25.9017L177.923 26.0109C177.814 26.0109 177.814 26.0109 177.705 26.0109H175.956C175.847 26.0109 175.738 26.0109 175.738 25.9017C175.628 25.7924 175.628 25.7924 175.628 25.6831L174.317 17.1585H174.208L170.273 25.9017C170.273 26.0109 170.164 26.0109 170.164 26.1202C170.055 26.1202 170.055 26.2295 169.945 26.2295H169.399C169.29 26.2295 169.29 26.2295 169.18 26.1202C169.071 26.1202 169.071 26.0109 169.071 25.9017L165.137 17.0492H165.027L163.716 25.5738C163.716 25.6831 163.607 25.7924 163.607 25.7924C163.497 25.9017 163.497 25.9017 163.388 25.9017H161.421C161.311 25.9017 161.311 25.9017 161.202 25.9017C161.093 25.9017 161.093 25.7924 161.093 25.7924C161.093 25.7924 160.984 25.6831 160.984 25.5738C160.984 25.4645 160.984 25.4645 160.984 25.3552L163.497 10.3825Z" fill="white"/>
<path d="M186.776 10.7104C186.776 10.6011 186.776 10.4918 186.885 10.3825C186.995 10.2732 187.104 10.2732 187.213 10.2732H189.29H189.399C189.399 10.2732 189.508 10.2732 189.508 10.3825L189.617 10.4918V10.7104V19.8907C189.617 20.3279 189.617 20.765 189.836 21.2022C189.945 21.6393 190.273 21.9672 190.492 22.2951C190.82 22.6229 191.148 22.8415 191.585 23.0601C192.022 23.2787 192.459 23.2787 192.896 23.2787C193.333 23.2787 193.77 23.1694 194.208 23.0601C194.645 22.8415 194.973 22.6229 195.301 22.2951C195.628 21.9672 195.847 21.6393 195.956 21.2022C196.066 20.765 196.175 20.3279 196.175 19.8907V10.7104C196.175 10.6011 196.175 10.4918 196.284 10.3825C196.393 10.2732 196.503 10.2732 196.612 10.2732H198.689C198.798 10.2732 198.907 10.2732 199.016 10.3825C199.126 10.4918 199.126 10.6011 199.126 10.7104V20.1093C199.016 21.7486 198.361 23.2787 197.268 24.3716C196.066 25.4645 194.536 26.1202 193.005 26.1202C191.475 26.1202 189.836 25.4645 188.743 24.3716C187.541 23.2787 186.885 21.7486 186.885 20.1093V10.7104H186.776Z" fill="white"/>
<path d="M208.634 10.4918C208.634 10.3825 208.634 10.2732 208.743 10.1639C208.852 10.0547 208.962 10.0547 209.071 10.0547H209.617L218.907 20V10.7104C218.907 10.6011 218.907 10.4918 219.016 10.3825C219.126 10.2732 219.235 10.2732 219.344 10.2732H221.421C221.53 10.2732 221.639 10.2732 221.749 10.3825C221.858 10.4918 221.858 10.6011 221.858 10.7104V25.7924C221.858 25.9017 221.858 26.0109 221.749 26.1202C221.639 26.2295 221.53 26.2295 221.421 26.2295H220.765L211.475 15.9563V25.5738C211.475 25.6831 211.475 25.7924 211.366 25.9017C211.257 26.0109 211.148 26.0109 211.038 26.0109H208.962C208.852 26.0109 208.743 26.0109 208.634 25.9017C208.525 25.7924 208.525 25.6831 208.525 25.5738L208.634 10.4918Z" fill="white"/>
<path d="M231.366 10.7104C231.366 10.6011 231.366 10.4918 231.475 10.3825C231.585 10.2732 231.694 10.2732 231.803 10.2732H233.88C233.989 10.2732 234.098 10.2732 234.208 10.3825C234.317 10.4918 234.317 10.6011 234.317 10.7104V25.5738C234.317 25.6831 234.317 25.7923 234.208 25.9016C234.098 26.0109 233.989 26.0109 233.88 26.0109H231.803C231.694 26.0109 231.585 26.0109 231.475 25.9016C231.366 25.7923 231.366 25.6831 231.366 25.5738V10.7104Z" fill="white"/>
<path d="M250.82 10.0547C252.787 10.0547 254.754 10.7104 256.175 12.1312L256.284 12.2404V12.459V12.6776L256.175 12.7869L254.863 14.2077L254.754 14.317H254.645H254.535L254.426 14.2077C253.443 13.3333 252.24 12.8962 251.038 12.8962C249.727 12.8962 248.415 13.5519 247.541 14.5355C246.667 15.5191 246.12 16.8306 246.12 18.1421C246.12 19.4536 246.667 20.765 247.541 21.7486C248.415 22.7323 249.727 23.2787 251.038 23.388C252.24 23.388 253.552 22.9508 254.426 22.0765C254.535 21.9672 254.645 21.9672 254.754 21.9672C254.863 21.9672 254.973 21.9672 255.082 22.0765L256.503 23.4973C256.612 23.6066 256.612 23.7159 256.612 23.8251C256.612 23.9344 256.612 24.0437 256.503 24.153C255.082 25.5738 253.115 26.3388 251.038 26.3388C248.852 26.3388 246.885 25.4645 245.355 23.9344C243.825 22.4044 242.951 20.3279 242.951 18.2514C242.951 16.1749 243.825 13.9891 245.355 12.5683C246.667 10.929 248.634 10.0547 250.82 10.0547V10.0547Z" fill="white"/>
<path d="M261.639 25.4645L268.525 10.3825C268.525 10.2732 268.634 10.2732 268.634 10.1639C268.634 10.0547 268.743 10.0547 268.852 10.0547H269.071C269.18 10.0547 269.18 10.0547 269.29 10.1639C269.399 10.1639 269.399 10.2732 269.399 10.3825L276.284 25.4645V25.6831C276.284 25.7924 276.284 25.7924 276.175 25.9017C276.175 26.0109 276.066 26.0109 276.066 26.0109C275.956 26.0109 275.956 26.0109 275.847 26.0109H273.88C273.771 26.0109 273.552 26.0109 273.443 25.9017C273.333 25.7924 273.224 25.6831 273.224 25.5738L272.131 23.1694H265.465L264.372 25.5738C264.372 25.6831 264.262 25.7924 264.153 25.9017C264.044 26.0109 263.934 26.0109 263.716 26.0109H261.749C261.639 26.0109 261.639 26.0109 261.53 26.0109C261.421 26.0109 261.421 25.9017 261.312 25.9017C261.312 25.7924 261.202 25.7924 261.202 25.6831C261.639 25.5738 261.639 25.4645 261.639 25.4645V25.4645ZM271.257 20.6557L269.071 15.7377H268.962L266.776 20.6557H271.257Z" fill="white"/>
<path d="M284.153 13.0055H280.765C280.656 13.0055 280.546 13.0055 280.437 12.8962C280.328 12.7869 280.328 12.6776 280.328 12.5683V10.7104C280.328 10.6011 280.328 10.4918 280.437 10.3825C280.546 10.2732 280.656 10.2732 280.765 10.2732H290.492C290.601 10.2732 290.71 10.2732 290.82 10.3825C290.929 10.4918 290.929 10.6011 290.929 10.7104V12.5683C290.929 12.6776 290.929 12.7869 290.82 12.8962C290.71 13.0055 290.601 13.0055 290.492 13.0055H287.104V25.5738C287.104 25.6831 287.104 25.7923 286.995 25.9016C286.885 26.0109 286.776 26.0109 286.667 26.0109H284.59C284.481 26.0109 284.372 26.0109 284.262 25.9016C284.153 25.7923 284.153 25.6831 284.153 25.5738V13.0055Z" fill="white"/>
<path d="M298.798 10.7104C298.798 10.6011 298.798 10.4918 298.907 10.3825C299.016 10.2732 299.126 10.2732 299.235 10.2732H301.312C301.421 10.2732 301.53 10.2732 301.639 10.3825C301.749 10.4918 301.749 10.6011 301.749 10.7104V25.5738C301.749 25.6831 301.749 25.7923 301.639 25.9016C301.53 26.0109 301.421 26.0109 301.312 26.0109H299.235C299.126 26.0109 299.016 26.0109 298.907 25.9016C298.798 25.7923 298.798 25.6831 298.798 25.5738V10.7104Z" fill="white"/>
<path d="M318.251 10.0547C319.891 10.0547 321.421 10.4918 322.732 11.3661C324.044 12.2404 325.137 13.5519 325.683 14.9727C326.339 16.5027 326.448 18.0328 326.12 19.6721C325.792 21.2022 325.027 22.7323 323.934 23.8251C322.841 24.918 321.421 25.6831 319.781 26.0109C318.251 26.3388 316.612 26.1202 315.191 25.5738C313.77 24.918 312.459 23.9344 311.585 22.623C310.71 21.3115 310.273 19.7814 310.273 18.1421C310.273 17.0492 310.492 16.0656 310.82 15.082C311.257 14.0984 311.803 13.2241 312.568 12.459C313.333 11.694 314.208 11.1476 315.191 10.7104C316.175 10.2732 317.268 10.0547 318.251 10.0547V10.0547ZM318.251 23.2787C319.235 23.2787 320.219 22.9508 321.093 22.4044C321.967 21.8579 322.623 20.9836 322.951 20.1093C323.388 19.1257 323.497 18.1421 323.279 17.1585C323.06 16.1749 322.623 15.1913 321.858 14.5355C321.093 13.7705 320.219 13.3333 319.235 13.1148C318.251 12.8962 317.158 13.0055 316.284 13.4426C315.301 13.8798 314.535 14.5355 313.989 15.4098C313.443 16.2842 313.115 17.2678 313.115 18.2514C313.115 19.5629 313.661 20.8743 314.645 21.8579C315.628 22.7323 316.94 23.2787 318.251 23.2787Z" fill="white"/>
<path d="M334.536 10.4918C334.536 10.3825 334.536 10.2732 334.645 10.1639C334.754 10.0547 334.863 10.0547 334.973 10.0547H335.519L344.809 20V10.7104C344.809 10.6011 344.809 10.6011 344.809 10.4918C344.809 10.4918 344.809 10.3825 344.918 10.3825L345.027 10.2732H345.246H347.322C347.432 10.2732 347.541 10.2732 347.65 10.3825C347.76 10.4918 347.76 10.6011 347.76 10.7104V25.7924C347.76 25.9017 347.76 26.0109 347.65 26.1202C347.541 26.2295 347.432 26.2295 347.322 26.2295H346.776L337.486 15.9563V25.5738V25.7924C337.486 25.7924 337.486 25.9017 337.377 25.9017L337.268 26.0109H337.158H335.082C334.973 26.0109 334.863 26.0109 334.754 25.9017C334.645 25.7924 334.645 25.6831 334.645 25.5738L334.536 10.4918Z" fill="white"/>
<path d="M356.503 23.8251L357.268 22.4044C357.268 22.2951 357.377 22.2951 357.377 22.1858C357.486 22.1858 357.486 22.0765 357.596 22.0765H357.814C357.924 22.0765 357.924 22.0765 358.033 22.1858C358.142 22.2951 360 23.6066 361.421 23.6066C361.639 23.6066 361.967 23.6066 362.186 23.4973C362.404 23.388 362.623 23.2787 362.842 23.1694C363.06 23.0601 363.169 22.8415 363.279 22.623C363.388 22.4044 363.497 22.1858 363.497 21.8579C363.497 20.765 362.514 19.8907 360.656 19.1257C358.579 18.2514 356.503 16.9399 356.503 14.317C356.503 12.3497 357.924 10.0547 361.53 10.0547C363.169 10.0547 364.699 10.6011 366.011 11.5847C366.12 11.5847 366.12 11.694 366.12 11.694C366.12 11.8033 366.23 11.8033 366.23 11.9126V12.1312C366.23 12.2405 366.23 12.2404 366.12 12.3497L365.246 13.6612C365.137 13.7705 365.027 13.8798 364.918 13.9891C364.809 14.0984 364.59 13.9891 364.481 13.9891C364.262 13.8798 362.623 12.7869 361.421 12.7869C360.984 12.7869 360.546 12.8962 360.109 13.1148C359.781 13.4426 359.454 13.8798 359.454 14.317C359.454 15.4098 360.328 16.0656 362.077 16.8306C364.262 17.7049 366.776 19.0164 366.776 21.8579C366.776 24.153 364.809 26.3388 361.639 26.3388C359.891 26.4481 358.142 25.7924 356.721 24.5902C356.393 24.2623 356.284 24.153 356.503 23.8251Z" fill="white"/>
<path d="M381.858 10.0547C382.514 10.0547 383.169 10.1639 383.825 10.3825C384.481 10.6011 385.027 11.0383 385.574 11.4754L385.683 11.5847V11.694V11.8033C385.683 11.8033 385.683 11.9126 385.574 11.9126L384.372 13.2241C384.372 13.2241 384.372 13.2241 384.262 13.3333H384.153H384.044C384.044 13.3333 383.934 13.3333 383.934 13.2241C383.388 12.6776 382.623 12.459 381.858 12.459C381.093 12.459 380.328 12.8962 379.781 13.4426C379.235 13.9891 378.907 14.7541 378.907 15.6284C378.907 16.3935 379.235 17.2678 379.781 17.8142C380.328 18.3607 381.093 18.7978 381.858 18.7978C382.623 18.7978 383.279 18.47 383.934 18.0328C384.044 18.0328 384.044 17.9235 384.153 17.9235C384.262 17.9235 384.262 17.9235 384.372 18.0328L385.574 19.3443C385.574 19.4536 385.683 19.4536 385.683 19.5629C385.683 19.6721 385.683 19.6721 385.574 19.7814C384.59 20.765 383.279 21.3115 381.858 21.3115C381.093 21.3115 380.328 21.2022 379.672 20.9836C379.016 20.765 378.361 20.3279 377.814 19.7814C377.268 19.235 376.831 18.6885 376.612 17.9235C376.284 17.2678 376.175 16.5027 376.175 15.7377C376.175 14.9727 376.284 14.2077 376.612 13.5519C376.94 12.8962 377.377 12.2404 377.814 11.694C378.361 11.1476 379.016 10.8197 379.672 10.4918C380.437 10.1639 381.202 10.0547 381.858 10.0547V10.0547Z" fill="white"/>
<path d="M394.426 10.0547C395.519 10.0547 396.612 10.3825 397.486 10.929C398.361 11.5847 399.126 12.3497 399.563 13.4426C400 14.4262 400.109 15.6284 399.891 16.612C399.672 17.7049 399.126 18.6885 398.361 19.4536C397.596 20.2186 396.612 20.765 395.519 20.9836C394.426 21.2022 393.333 21.0929 392.35 20.6557C391.366 20.2186 390.492 19.5629 389.836 18.5792C389.18 17.5956 388.852 16.612 388.852 15.5191C388.852 14.7541 388.962 14.0984 389.29 13.4426C389.617 12.7869 389.945 12.1312 390.492 11.5847C391.038 11.0383 391.585 10.7104 392.24 10.3825C393.005 10.2732 393.661 10.0547 394.426 10.0547V10.0547ZM394.426 18.6885C395.082 18.6885 395.628 18.47 396.175 18.1421C396.721 17.8142 397.049 17.2678 397.268 16.7213C397.486 16.1749 397.596 15.5191 397.486 14.9727C397.377 14.4262 397.049 13.7705 396.612 13.4426C396.175 13.0055 395.628 12.6776 395.082 12.5683C394.535 12.459 393.88 12.459 393.333 12.7869C392.787 13.1148 392.24 13.4426 391.913 13.8798C391.585 14.4262 391.366 14.9727 391.366 15.6284C391.366 16.3935 391.694 17.2678 392.24 17.8142C392.787 18.3607 393.552 18.6885 394.426 18.6885V18.6885Z" fill="white"/>
<path d="M399.672 24.0437H376.612C376.393 24.0437 376.284 24.153 376.284 24.3716V25.9017C376.284 26.1202 376.393 26.2295 376.612 26.2295H399.672C399.891 26.2295 400 26.1202 400 25.9017V24.3716C400 24.153 399.891 24.0437 399.672 24.0437Z" fill="white"/>
<path fill-rule="evenodd" clip-rule="evenodd" d="M50.8197 37.1585V0H82.2951V37.1585H50.8197ZM54.7541 3.93443V33.2241H61.3115V21.2022L71.8033 33.2241H79.5629L79.7814 32.7869L66.6667 18.1421L78.9071 4.37159L78.7978 3.93443H71.0383L61.4208 14.9727V3.93443H54.7541Z" fill="white"/>
<path fill-rule="evenodd" clip-rule="evenodd" d="M16.612 0H48.0874V37.1585H16.612V0ZM44.3716 33.3333V4.15301H37.7049V18.7978L20.765 3.82514L20.4372 3.93443V33.224H26.9945V18.2514L44.0437 33.5519L44.3716 33.3333Z" fill="white"/>
<path fill-rule="evenodd" clip-rule="evenodd" d="M0 37.1585V0H13.8798V37.1585H0ZM3.71584 33.1148H10.2732V4.04373H3.71584V33.1148Z" fill="white"/>
</g>
<defs>
<clipPath id="clip0">
<rect width="400" height="37.1585" fill="white"/>
</clipPath>
</defs>
</svg>
