<svg width="319" height="76" viewBox="0 0 319 76" fill="none" xmlns="http://www.w3.org/2000/svg">
<path d="M9.53633 16.7C9.44372 16.9 9.53633 17 9.72156 17H10.8329C10.9255 17 11.0182 16.9 11.0182 16.9L12.5 14.3L13.9818 16.9C13.9818 16.9 14.0745 17 14.1671 17H15.2784C15.4637 17 15.5563 16.8 15.4637 16.7L13.2409 12.9L15.3711 9.3C15.4637 9.2 15.3711 9 15.1858 9H13.9818C13.8892 9 13.7966 9.1 13.7966 9.1L12.4074 11.5L11.1108 9.1C11.1108 9.1 11.0182 9 10.9256 9H9.72156C9.53633 9 9.44372 9.2 9.53633 9.3L11.6665 12.9L9.53633 16.7Z" fill="#757575"/>
<path d="M9.53633 66.7C9.44372 66.9 9.53633 67 9.72156 67H10.8329C10.9255 67 11.0182 66.9 11.0182 66.9L12.5 64.3L13.9818 66.9C13.9818 66.9 14.0745 67 14.1671 67H15.2784C15.4637 67 15.5563 66.8 15.4637 66.7L13.2409 62.9L15.3711 59.3C15.4637 59.2 15.3711 59 15.1858 59H13.9818C13.8892 59 13.7966 59.1 13.7966 59.1L12.4074 61.5L11.1108 59.1C11.1108 59.1 11.0182 59 10.9256 59H9.72156C9.53633 59 9.44372 59.2 9.53633 59.3L11.6665 62.9L9.53633 66.7Z" fill="#757575"/>
<path d="M303.536 16.7C303.444 16.9 303.536 17 303.722 17H304.833C304.926 17 305.018 16.9 305.018 16.9L306.5 14.3L307.982 16.9C307.982 16.9 308.074 17 308.167 17H309.278C309.464 17 309.556 16.8 309.464 16.7L307.241 12.9L309.371 9.3C309.464 9.2 309.371 9 309.186 9H307.982C307.889 9 307.797 9.1 307.797 9.1L306.407 11.5L305.111 9.1C305.111 9.1 305.018 9 304.926 9H303.722C303.536 9 303.444 9.2 303.536 9.3L305.666 12.9L303.536 16.7Z" fill="#757575"/>
<path d="M303.536 66.7C303.444 66.9 303.536 67 303.722 67H304.833C304.926 67 305.018 66.9 305.018 66.9L306.5 64.3L307.982 66.9C307.982 66.9 308.074 67 308.167 67H309.278C309.464 67 309.556 66.8 309.464 66.7L307.241 62.9L309.371 59.3C309.464 59.2 309.371 59 309.186 59H307.982C307.889 59 307.797 59.1 307.797 59.1L306.407 61.5L305.111 59.1C305.111 59.1 305.018 59 304.926 59H303.722C303.536 59 303.444 59.2 303.536 59.3L305.666 62.9L303.536 66.7Z" fill="#757575"/>
<rect x="0.5" y="1" width="318" height="74" stroke="#C4C4C4"/>
<rect x="25.5" y="1" width="268" height="74" stroke="#C4C4C4"/>
<rect x="0.5" y="26" width="318" height="24" stroke="#C4C4C4"/>
<path d="M91.956 32.2646C93.2789 32.2646 94.6019 32.7058 95.5573 33.6617L95.6308 33.7352V33.8823V34.0294L95.5573 34.1029L94.6754 35.0588L94.6019 35.1323H94.5284H94.4549L94.3814 35.0588C93.7199 34.4705 92.9114 34.1764 92.103 34.1764C91.221 34.1764 90.339 34.6176 89.7511 35.2794C89.1631 35.9411 88.7956 36.8235 88.7956 37.7058C88.7956 38.5882 89.1631 39.4705 89.7511 40.1323C90.339 40.7941 91.221 41.1617 92.103 41.2352C92.9114 41.2352 93.7199 40.9411 94.3814 40.3529C94.4549 40.2794 94.5284 40.2794 94.6019 40.2794C94.6754 40.2794 94.7489 40.2794 94.8224 40.3529L95.7778 41.3088C95.8513 41.3823 95.8513 41.4558 95.8513 41.5294C95.8513 41.6029 95.8513 41.6764 95.7778 41.7499C94.8224 42.7058 93.4994 43.2205 92.103 43.2205C90.633 43.2205 89.3101 42.6323 88.2811 41.6029C87.2522 40.5735 86.6642 39.1764 86.6642 37.7794C86.6642 36.3088 87.2522 34.9117 88.2811 33.9558C89.1631 32.8529 90.5595 32.2646 91.956 32.2646V32.2646Z" fill="#2F2F2E"/>
<path d="M105.92 32.2646C107.023 32.2646 108.052 32.5588 108.934 33.147C109.816 33.7352 110.551 34.6176 110.918 35.5735C111.286 36.5294 111.433 37.6323 111.212 38.7352C110.992 39.8382 110.477 40.7941 109.742 41.5294C109.007 42.2646 108.052 42.7794 106.949 42.9999C105.92 43.2205 104.818 43.0735 103.863 42.7058C102.907 42.2646 102.025 41.6029 101.437 40.7205C100.849 39.8382 100.555 38.8088 100.555 37.7058C100.555 36.9705 100.702 36.3088 100.923 35.647C101.217 34.9852 101.584 34.397 102.099 33.8823C102.613 33.3676 103.201 32.9999 103.863 32.7058C104.524 32.4117 105.259 32.2646 105.92 32.2646V32.2646ZM105.92 41.1617C106.582 41.1617 107.243 40.9411 107.831 40.5735C108.419 40.2058 108.86 39.6176 109.081 39.0294C109.375 38.3676 109.448 37.7058 109.301 37.0441C109.154 36.3823 108.86 35.7205 108.346 35.2794C107.831 34.7646 107.243 34.4705 106.582 34.3235C105.92 34.1764 105.186 34.2499 104.598 34.5441C103.936 34.8382 103.422 35.2794 103.054 35.8676C102.687 36.4558 102.466 37.1176 102.466 37.7794C102.466 38.6617 102.834 39.5441 103.495 40.2058C104.157 40.7941 105.039 41.1617 105.92 41.1617Z" fill="#2F2F2E"/>
<path d="M118.121 32.4852C118.121 32.4117 118.195 32.3382 118.195 32.3382C118.268 32.2646 118.342 32.2646 118.342 32.2646H118.562C118.636 32.2646 118.636 32.2646 118.709 32.3382C118.783 32.3382 118.783 32.4117 118.783 32.4852L122.09 39.6176H122.163L125.471 32.4852C125.471 32.4117 125.544 32.4117 125.544 32.3382C125.618 32.3382 125.618 32.2646 125.691 32.3382H125.912C125.985 32.3382 126.059 32.3382 126.059 32.4117C126.132 32.4852 126.132 32.4852 126.132 32.5588L127.896 42.7058V42.8529C127.896 42.9264 127.896 42.9264 127.823 42.9999L127.749 43.0735C127.676 43.0735 127.676 43.0735 127.602 43.0735H126.426C126.353 43.0735 126.279 43.0735 126.279 42.9999C126.206 42.9264 126.206 42.9264 126.206 42.8529L125.324 37.1176H125.25L122.604 43.0735C122.604 43.147 122.531 43.147 122.531 43.2205C122.457 43.2205 122.457 43.2941 122.384 43.2941H122.09C122.016 43.2941 122.016 43.2941 121.943 43.2205C121.869 43.2205 121.869 43.147 121.869 43.0735L119.224 37.1176H119.15L118.268 42.8529C118.268 42.9264 118.195 42.9999 118.195 42.9999C118.195 42.9999 118.121 43.0735 118.048 43.0735H116.725C116.651 43.0735 116.651 43.0735 116.578 43.0735C116.504 43.0735 116.504 42.9999 116.504 42.9999C116.504 42.9999 116.431 42.9264 116.431 42.8529C116.431 42.7794 116.431 42.7794 116.431 42.7058L118.121 32.4852Z" fill="#2F2F2E"/>
<path d="M134.952 32.4852C134.952 32.4117 135.025 32.3382 135.025 32.3382C135.099 32.2646 135.172 32.2646 135.172 32.2646H135.393C135.466 32.2646 135.466 32.2646 135.54 32.3382C135.613 32.4117 135.613 32.4117 135.613 32.4852L138.921 39.6176H138.994L142.302 32.4852C142.302 32.4117 142.375 32.4117 142.375 32.3382C142.449 32.3382 142.449 32.2646 142.522 32.2646H142.816C142.89 32.2646 142.963 32.2646 142.963 32.3382C143.037 32.4117 143.037 32.4117 143.037 32.4852L144.801 42.6323V42.7794C144.801 42.8529 144.801 42.8529 144.727 42.9264L144.654 42.9999C144.58 42.9999 144.58 42.9999 144.507 42.9999H143.331C143.257 42.9999 143.184 42.9999 143.184 42.9264C143.11 42.8529 143.11 42.8529 143.11 42.7794L142.228 37.0441H142.155L139.509 42.9264C139.509 42.9999 139.435 42.9999 139.435 43.0735C139.362 43.0735 139.362 43.147 139.288 43.147H138.921C138.847 43.147 138.847 43.147 138.774 43.0735C138.7 43.0735 138.7 42.9999 138.7 42.9264L136.054 36.9705H135.981L135.099 42.7058C135.099 42.7794 135.025 42.8529 135.025 42.8529C134.952 42.9264 134.952 42.9264 134.878 42.9264H133.555C133.482 42.9264 133.482 42.9264 133.408 42.9264C133.335 42.9264 133.335 42.8529 133.335 42.8529C133.335 42.8529 133.261 42.7794 133.261 42.7058C133.261 42.6323 133.261 42.6323 133.261 42.5588L134.952 32.4852Z" fill="#2F2F2E"/>
<path d="M150.607 32.7062C150.607 32.6327 150.607 32.5592 150.68 32.4856C150.754 32.4121 150.827 32.4121 150.901 32.4121H152.297H152.371C152.371 32.4121 152.444 32.4121 152.444 32.4856L152.518 32.5592V32.7062V38.8827C152.518 39.1768 152.518 39.4709 152.665 39.765C152.738 40.0592 152.959 40.2798 153.106 40.5003C153.326 40.7209 153.547 40.868 153.841 41.015C154.135 41.1621 154.429 41.1621 154.723 41.1621C155.017 41.1621 155.311 41.0886 155.605 41.015C155.899 40.868 156.119 40.7209 156.34 40.5003C156.56 40.2798 156.707 40.0592 156.781 39.765C156.854 39.4709 156.928 39.1768 156.928 38.8827V32.7062C156.928 32.6327 156.928 32.5592 157.001 32.4856C157.075 32.4121 157.148 32.4121 157.222 32.4121H158.618C158.691 32.4121 158.765 32.4121 158.838 32.4856C158.912 32.5592 158.912 32.6327 158.912 32.7062V39.0298C158.838 40.1327 158.398 41.1621 157.663 41.8974C156.854 42.6327 155.825 43.0739 154.796 43.0739C153.767 43.0739 152.665 42.6327 151.93 41.8974C151.121 41.1621 150.68 40.1327 150.68 39.0298V32.7062H150.607Z" fill="#2F2F2E"/>
<path d="M165.306 32.5588C165.306 32.4852 165.306 32.4117 165.38 32.3382C165.453 32.2646 165.527 32.2646 165.6 32.2646H165.968L172.215 38.9558V32.7058C172.215 32.6323 172.215 32.5588 172.289 32.4852C172.362 32.4117 172.436 32.4117 172.509 32.4117H173.905C173.979 32.4117 174.052 32.4117 174.126 32.4852C174.199 32.5588 174.199 32.6323 174.199 32.7058V42.8529C174.199 42.9264 174.199 42.9999 174.126 43.0735C174.052 43.147 173.979 43.147 173.905 43.147H173.464L167.217 36.2352V42.7058C167.217 42.7794 167.217 42.8529 167.144 42.9264C167.07 42.9999 166.997 42.9999 166.923 42.9999H165.527C165.453 42.9999 165.38 42.9999 165.306 42.9264C165.233 42.8529 165.233 42.7794 165.233 42.7058L165.306 32.5588Z" fill="#2F2F2E"/>
<path d="M180.594 32.7062C180.594 32.6327 180.594 32.5592 180.667 32.4856C180.741 32.4121 180.814 32.4121 180.888 32.4121H182.284C182.358 32.4121 182.431 32.4121 182.505 32.4856C182.578 32.5592 182.578 32.6327 182.578 32.7062V42.7062C182.578 42.7798 182.578 42.8533 182.505 42.9268C182.431 43.0003 182.358 43.0003 182.284 43.0003H180.888C180.814 43.0003 180.741 43.0003 180.667 42.9268C180.594 42.8533 180.594 42.7798 180.594 42.7062V32.7062Z" fill="#2F2F2E"/>
<path d="M193.676 32.2646C194.999 32.2646 196.322 32.7058 197.278 33.6617L197.351 33.7352V33.8823V34.0294L197.278 34.1029L196.396 35.0588L196.322 35.1323H196.249H196.175L196.102 35.0588C195.44 34.4705 194.632 34.1764 193.823 34.1764C192.941 34.1764 192.059 34.6176 191.471 35.2794C190.883 35.9411 190.516 36.8235 190.516 37.7058C190.516 38.5882 190.883 39.4705 191.471 40.1323C192.059 40.7941 192.941 41.1617 193.823 41.2352C194.632 41.2352 195.514 40.9411 196.102 40.3529C196.175 40.2794 196.249 40.2794 196.322 40.2794C196.396 40.2794 196.469 40.2794 196.543 40.3529L197.498 41.3088C197.572 41.3823 197.572 41.4558 197.572 41.5294C197.572 41.6029 197.572 41.6764 197.498 41.7499C196.543 42.7058 195.22 43.2205 193.823 43.2205C192.353 43.2205 191.03 42.6323 190.001 41.6029C188.972 40.5735 188.384 39.1764 188.384 37.7794C188.384 36.3823 188.972 34.9117 190.001 33.9558C190.883 32.8529 192.206 32.2646 193.676 32.2646V32.2646Z" fill="#2F2F2E"/>
<path d="M200.952 42.6323L205.583 32.4852C205.583 32.4117 205.656 32.4117 205.656 32.3382C205.656 32.2646 205.73 32.2646 205.803 32.2646H205.95C206.024 32.2646 206.024 32.2646 206.097 32.3382C206.171 32.3382 206.171 32.4117 206.171 32.4852L210.801 42.6323V42.7794C210.801 42.8529 210.801 42.8529 210.728 42.9264C210.728 42.9999 210.654 42.9999 210.654 42.9999C210.581 42.9999 210.581 42.9999 210.507 42.9999H209.184C209.111 42.9999 208.964 42.9999 208.89 42.9264C208.817 42.8529 208.743 42.7794 208.743 42.7058L208.008 41.0882H203.525L202.79 42.7058C202.79 42.7794 202.716 42.8529 202.643 42.9264C202.569 42.9999 202.496 42.9999 202.349 42.9999H201.026C200.952 42.9999 200.952 42.9999 200.879 42.9999C200.805 42.9999 200.805 42.9264 200.732 42.9264C200.732 42.8529 200.658 42.8529 200.658 42.7794C200.952 42.7058 200.952 42.6323 200.952 42.6323V42.6323ZM207.42 39.397L205.95 36.0882H205.877L204.407 39.397H207.42Z" fill="#2F2F2E"/>
<path d="M216.093 34.2503H213.814C213.741 34.2503 213.668 34.2503 213.594 34.1768C213.521 34.1033 213.521 34.0298 213.521 33.9562V32.7062C213.521 32.6327 213.521 32.5592 213.594 32.4856C213.668 32.4121 213.741 32.4121 213.814 32.4121H220.356C220.429 32.4121 220.503 32.4121 220.576 32.4856C220.65 32.5592 220.65 32.6327 220.65 32.7062V33.9562C220.65 34.0298 220.65 34.1033 220.576 34.1768C220.503 34.2503 220.429 34.2503 220.356 34.2503H218.077V42.7062C218.077 42.7798 218.077 42.8533 218.004 42.9268C217.93 43.0003 217.857 43.0003 217.783 43.0003H216.387C216.313 43.0003 216.24 43.0003 216.166 42.9268C216.093 42.8533 216.093 42.7798 216.093 42.7062V34.2503Z" fill="#2F2F2E"/>
<path d="M225.942 32.7062C225.942 32.6327 225.942 32.5592 226.015 32.4856C226.089 32.4121 226.162 32.4121 226.236 32.4121H227.632C227.705 32.4121 227.779 32.4121 227.852 32.4856C227.926 32.5592 227.926 32.6327 227.926 32.7062V42.7062C227.926 42.7798 227.926 42.8533 227.852 42.9268C227.779 43.0003 227.705 43.0003 227.632 43.0003H226.236C226.162 43.0003 226.089 43.0003 226.015 42.9268C225.942 42.8533 225.942 42.7798 225.942 42.7062V32.7062Z" fill="#2F2F2E"/>
<path d="M239.024 32.2646C240.126 32.2646 241.155 32.5588 242.037 33.147C242.919 33.7352 243.654 34.6176 244.022 35.5735C244.463 36.6029 244.536 37.6323 244.316 38.7352C244.095 39.7646 243.581 40.7941 242.846 41.5294C242.111 42.2646 241.155 42.7794 240.053 42.9999C239.024 43.2205 237.922 43.0735 236.966 42.7058C236.011 42.2646 235.129 41.6029 234.541 40.7205C233.953 39.8382 233.659 38.8088 233.659 37.7058C233.659 36.9705 233.806 36.3088 234.026 35.647C234.32 34.9852 234.688 34.397 235.202 33.8823C235.717 33.3676 236.305 32.9999 236.966 32.7058C237.628 32.4117 238.363 32.2646 239.024 32.2646V32.2646ZM239.024 41.1617C239.685 41.1617 240.347 40.9411 240.935 40.5735C241.523 40.2058 241.964 39.6176 242.184 39.0294C242.478 38.3676 242.552 37.7058 242.405 37.0441C242.258 36.3823 241.964 35.7205 241.449 35.2794C240.935 34.7646 240.347 34.4705 239.685 34.3235C239.024 34.1764 238.289 34.2499 237.701 34.5441C237.04 34.8382 236.525 35.2794 236.158 35.8676C235.79 36.4558 235.57 37.1176 235.57 37.7794C235.57 38.6617 235.937 39.5441 236.599 40.2058C237.26 40.7941 238.142 41.1617 239.024 41.1617Z" fill="#2F2F2E"/>
<path d="M249.975 32.5588C249.975 32.4852 249.975 32.4117 250.049 32.3382C250.122 32.2646 250.196 32.2646 250.269 32.2646H250.637L256.884 38.9558V32.7058C256.884 32.6323 256.884 32.6323 256.884 32.5588C256.884 32.5588 256.884 32.4852 256.957 32.4852L257.031 32.4117H257.178H258.574C258.648 32.4117 258.721 32.4117 258.795 32.4852C258.868 32.5588 258.868 32.6323 258.868 32.7058V42.8529C258.868 42.9264 258.868 42.9999 258.795 43.0735C258.721 43.147 258.648 43.147 258.574 43.147H258.207L251.96 36.2352V42.7058V42.8529C251.96 42.8529 251.96 42.9264 251.886 42.9264L251.813 42.9999H251.739H250.343C250.269 42.9999 250.196 42.9999 250.122 42.9264C250.049 42.8529 250.049 42.7794 250.049 42.7058L249.975 32.5588Z" fill="#2F2F2E"/>
<path d="M264.748 41.5293L265.263 40.5735C265.263 40.4999 265.336 40.4999 265.336 40.4264C265.41 40.4264 265.41 40.3529 265.483 40.3529H265.63C265.704 40.3529 265.704 40.3529 265.777 40.4264C265.851 40.4999 267.1 41.3823 268.055 41.3823C268.202 41.3823 268.423 41.3823 268.57 41.3088C268.717 41.2352 268.864 41.1617 269.011 41.0882C269.158 41.0146 269.231 40.8676 269.305 40.7205C269.378 40.5735 269.452 40.4264 269.452 40.2058C269.452 39.4705 268.79 38.8823 267.541 38.3676C266.145 37.7794 264.748 36.897 264.748 35.1323C264.748 33.8088 265.704 32.2646 268.129 32.2646C269.231 32.2646 270.26 32.6323 271.142 33.2941C271.216 33.2941 271.216 33.3676 271.216 33.3676C271.216 33.4411 271.289 33.4411 271.289 33.5146V33.6617C271.289 33.7352 271.289 33.7352 271.216 33.8088L270.628 34.6911C270.554 34.7646 270.481 34.8382 270.407 34.9117C270.334 34.9852 270.187 34.9117 270.113 34.9117C269.966 34.8382 268.864 34.1029 268.055 34.1029C267.761 34.1029 267.467 34.1764 267.173 34.3235C266.953 34.5441 266.733 34.8382 266.733 35.1323C266.733 35.8676 267.32 36.3088 268.496 36.8235C269.966 37.4117 271.657 38.2941 271.657 40.2058C271.657 41.7499 270.334 43.2205 268.202 43.2205C267.026 43.2941 265.851 42.8529 264.895 42.0441C264.675 41.8235 264.601 41.7499 264.748 41.5293Z" fill="#2F2F2E"/>
<path d="M281.799 32.2646C282.24 32.2646 282.681 32.3382 283.122 32.4852C283.563 32.6323 283.931 32.9264 284.298 33.2205L284.372 33.2941V33.3676V33.4411C284.372 33.4411 284.372 33.5146 284.298 33.5146L283.49 34.397C283.49 34.397 283.49 34.397 283.416 34.4705H283.343H283.269C283.269 34.4705 283.196 34.4705 283.196 34.397C282.828 34.0294 282.314 33.8823 281.799 33.8823C281.285 33.8823 280.77 34.1764 280.403 34.5441C280.035 34.9117 279.815 35.4264 279.815 36.0146C279.815 36.5294 280.035 37.1176 280.403 37.4852C280.77 37.8529 281.285 38.147 281.799 38.147C282.314 38.147 282.755 37.9264 283.196 37.6323C283.269 37.6323 283.269 37.5588 283.343 37.5588C283.416 37.5588 283.416 37.5588 283.49 37.6323L284.298 38.5146C284.298 38.5882 284.372 38.5882 284.372 38.6617C284.372 38.7352 284.372 38.7352 284.298 38.8088C283.637 39.4705 282.755 39.8382 281.799 39.8382C281.285 39.8382 280.77 39.7646 280.329 39.6176C279.888 39.4705 279.447 39.1764 279.08 38.8088C278.713 38.4411 278.419 38.0735 278.272 37.5588C278.051 37.1176 277.978 36.6029 277.978 36.0882C277.978 35.5735 278.051 35.0588 278.272 34.6176C278.492 34.1764 278.786 33.7352 279.08 33.3676C279.447 32.9999 279.888 32.7794 280.329 32.5588C280.844 32.3382 281.358 32.2646 281.799 32.2646V32.2646Z" fill="#2F2F2E"/>
<path d="M290.252 32.2646C290.987 32.2646 291.722 32.4852 292.31 32.8529C292.898 33.2941 293.412 33.8088 293.706 34.5441C294 35.2058 294.074 36.0146 293.927 36.6764C293.78 37.4117 293.412 38.0735 292.898 38.5882C292.383 39.1029 291.722 39.4705 290.987 39.6176C290.252 39.7646 289.517 39.6911 288.855 39.397C288.194 39.1029 287.606 38.6617 287.165 37.9999C286.724 37.3382 286.503 36.6764 286.503 35.9411C286.503 35.4264 286.577 34.9852 286.797 34.5441C287.018 34.1029 287.238 33.6617 287.606 33.2941C287.973 32.9264 288.341 32.7058 288.782 32.4852C289.296 32.4117 289.737 32.2646 290.252 32.2646V32.2646ZM290.252 38.0735C290.693 38.0735 291.06 37.9264 291.428 37.7058C291.795 37.4852 292.016 37.1176 292.163 36.7499C292.31 36.3823 292.383 35.9411 292.31 35.5735C292.236 35.2058 292.016 34.7646 291.722 34.5441C291.428 34.2499 291.06 34.0294 290.693 33.9558C290.325 33.8823 289.884 33.8823 289.517 34.1029C289.149 34.3235 288.782 34.5441 288.561 34.8382C288.341 35.2058 288.194 35.5735 288.194 36.0146C288.194 36.5294 288.414 37.1176 288.782 37.4852C289.149 37.8529 289.664 38.0735 290.252 38.0735V38.0735Z" fill="#2F2F2E"/>
<path d="M293.779 41.6758H278.272C278.125 41.6758 278.051 41.7493 278.051 41.8964V42.9258C278.051 43.0728 278.125 43.1464 278.272 43.1464H293.779C293.926 43.1464 294 43.0728 294 42.9258V41.8964C294 41.7493 293.926 41.6758 293.779 41.6758Z" fill="#2F2F2E"/>
<path d="M25 25.5V50.5H34.3342V25.5H25Z" fill="#2F2F2E"/>
<path d="M59.1763 25.5V50.5H80.3435V25.5H59.1763Z" fill="#2F2F2E"/>
<path d="M31.9087 47.7795H27.4989V28.2207H31.9087V47.7795Z" fill="white"/>
<path d="M61.8221 47.8524V28.1465H66.3055V35.573L72.7732 28.1465H77.9916L78.065 28.4406L69.8334 37.7053L78.653 47.5583L78.506 47.8524H73.2877L66.232 39.7641V47.8524H61.8221Z" fill="white"/>
<path d="M57.3388 25.5H36.1716V50.5H57.3388V25.5Z" fill="#2F2F2E"/>
<path d="M54.8399 28.2948V47.9272L54.6194 48.0742L43.1539 37.7801V47.8536H38.744V28.1477L38.9645 28.0742L50.3566 38.1477V28.2948H54.8399Z" fill="white"/>
</svg>
