<svg width="322" height="211" viewBox="0 0 322 211" fill="none" xmlns="http://www.w3.org/2000/svg">
<g clip-path="url(#clip0)">
<path d="M321.3 210.9H-0.0999756V0H321.3V210.9V210.9ZM0.900024 209.9H320.3V1H0.900024V209.9Z" fill="#AFAFAF"/>
<path d="M321.3 163.6H-0.0999756V47.2998H321.3V163.6V163.6ZM0.900024 162.6H320.3V48.2998H0.900024V162.6Z" fill="#AFAFAF"/>
<path d="M265.6 96.2998C265.6 95.9998 265.8 95.7998 266.1 95.7998C266.4 95.7998 266.6 95.9998 266.6 96.2998C266.6 96.5998 266.4 96.7998 266.1 96.7998C265.9 96.7998 265.6 96.5998 265.6 96.2998ZM262.6 96.2998C262.6 95.9998 262.8 95.7998 263.1 95.7998C263.4 95.7998 263.6 95.9998 263.6 96.2998C263.6 96.5998 263.4 96.7998 263.1 96.7998C262.9 96.7998 262.6 96.5998 262.6 96.2998ZM259.7 96.2998C259.7 95.9998 259.9 95.7998 260.2 95.7998C260.5 95.7998 260.7 95.9998 260.7 96.2998C260.7 96.5998 260.5 96.7998 260.2 96.7998C259.9 96.7998 259.7 96.5998 259.7 96.2998ZM256.7 96.2998C256.7 95.9998 256.9 95.7998 257.2 95.7998C257.5 95.7998 257.7 95.9998 257.7 96.2998C257.7 96.5998 257.5 96.7998 257.2 96.7998C256.9 96.7998 256.7 96.5998 256.7 96.2998ZM253.7 96.2998C253.7 95.9998 253.9 95.7998 254.2 95.7998C254.5 95.7998 254.7 95.9998 254.7 96.2998C254.7 96.5998 254.5 96.7998 254.2 96.7998C253.9 96.7998 253.7 96.5998 253.7 96.2998ZM250.7 96.2998C250.7 95.9998 250.9 95.7998 251.2 95.7998C251.5 95.7998 251.7 95.9998 251.7 96.2998C251.7 96.5998 251.5 96.7998 251.2 96.7998C250.9 96.7998 250.7 96.5998 250.7 96.2998ZM247.7 96.2998C247.7 95.9998 247.9 95.7998 248.2 95.7998C248.5 95.7998 248.7 95.9998 248.7 96.2998C248.7 96.5998 248.5 96.7998 248.2 96.7998C247.9 96.7998 247.7 96.5998 247.7 96.2998ZM244.7 96.2998C244.7 95.9998 244.9 95.7998 245.2 95.7998C245.5 95.7998 245.7 95.9998 245.7 96.2998C245.7 96.5998 245.5 96.7998 245.2 96.7998C245 96.7998 244.7 96.5998 244.7 96.2998ZM241.7 96.2998C241.7 95.9998 241.9 95.7998 242.2 95.7998C242.5 95.7998 242.7 95.9998 242.7 96.2998C242.7 96.5998 242.5 96.7998 242.2 96.7998C242 96.7998 241.7 96.5998 241.7 96.2998ZM238.8 96.2998C238.8 95.9998 239 95.7998 239.3 95.7998C239.6 95.7998 239.8 95.9998 239.8 96.2998C239.8 96.5998 239.6 96.7998 239.3 96.7998C239 96.7998 238.8 96.5998 238.8 96.2998ZM235.8 96.2998C235.8 95.9998 236 95.7998 236.3 95.7998C236.6 95.7998 236.8 95.9998 236.8 96.2998C236.8 96.5998 236.6 96.7998 236.3 96.7998C236 96.7998 235.8 96.5998 235.8 96.2998ZM232.8 96.2998C232.8 95.9998 233 95.7998 233.3 95.7998C233.6 95.7998 233.8 95.9998 233.8 96.2998C233.8 96.5998 233.6 96.7998 233.3 96.7998C233 96.7998 232.8 96.5998 232.8 96.2998ZM229.8 96.2998C229.8 95.9998 230 95.7998 230.3 95.7998C230.6 95.7998 230.8 95.9998 230.8 96.2998C230.8 96.5998 230.6 96.7998 230.3 96.7998C230 96.7998 229.8 96.5998 229.8 96.2998ZM226.8 96.2998C226.8 95.9998 227 95.7998 227.3 95.7998C227.6 95.7998 227.8 95.9998 227.8 96.2998C227.8 96.5998 227.6 96.7998 227.3 96.7998C227 96.7998 226.8 96.5998 226.8 96.2998ZM223.8 96.2998C223.8 95.9998 224 95.7998 224.3 95.7998C224.6 95.7998 224.8 95.9998 224.8 96.2998C224.8 96.5998 224.6 96.7998 224.3 96.7998C224 96.7998 223.8 96.5998 223.8 96.2998ZM220.8 96.2998C220.8 95.9998 221 95.7998 221.3 95.7998C221.6 95.7998 221.8 95.9998 221.8 96.2998C221.8 96.5998 221.6 96.7998 221.3 96.7998C221.1 96.7998 220.8 96.5998 220.8 96.2998ZM217.8 96.2998C217.8 95.9998 218 95.7998 218.3 95.7998C218.6 95.7998 218.8 95.9998 218.8 96.2998C218.8 96.5998 218.6 96.7998 218.3 96.7998C218.1 96.7998 217.8 96.5998 217.8 96.2998ZM214.9 96.2998C214.9 95.9998 215.1 95.7998 215.4 95.7998C215.7 95.7998 215.9 95.9998 215.9 96.2998C215.9 96.5998 215.7 96.7998 215.4 96.7998C215.1 96.7998 214.9 96.5998 214.9 96.2998ZM211.9 96.2998C211.9 95.9998 212.1 95.7998 212.4 95.7998C212.7 95.7998 212.9 95.9998 212.9 96.2998C212.9 96.5998 212.7 96.7998 212.4 96.7998C212.1 96.7998 211.9 96.5998 211.9 96.2998ZM208.9 96.2998C208.9 95.9998 209.1 95.7998 209.4 95.7998C209.7 95.7998 209.9 95.9998 209.9 96.2998C209.9 96.5998 209.7 96.7998 209.4 96.7998C209.1 96.7998 208.9 96.5998 208.9 96.2998ZM205.9 96.2998C205.9 95.9998 206.1 95.7998 206.4 95.7998C206.7 95.7998 206.9 95.9998 206.9 96.2998C206.9 96.5998 206.7 96.7998 206.4 96.7998C206.1 96.7998 205.9 96.5998 205.9 96.2998ZM202.9 96.2998C202.9 95.9998 203.1 95.7998 203.4 95.7998C203.7 95.7998 203.9 95.9998 203.9 96.2998C203.9 96.5998 203.7 96.7998 203.4 96.7998C203.1 96.7998 202.9 96.5998 202.9 96.2998ZM199.9 96.2998C199.9 95.9998 200.1 95.7998 200.4 95.7998C200.7 95.7998 200.9 95.9998 200.9 96.2998C200.9 96.5998 200.7 96.7998 200.4 96.7998C200.1 96.7998 199.9 96.5998 199.9 96.2998ZM196.9 96.2998C196.9 95.9998 197.1 95.7998 197.4 95.7998C197.7 95.7998 197.9 95.9998 197.9 96.2998C197.9 96.5998 197.7 96.7998 197.4 96.7998C197.2 96.7998 196.9 96.5998 196.9 96.2998ZM193.9 96.2998C193.9 95.9998 194.1 95.7998 194.4 95.7998C194.7 95.7998 194.9 95.9998 194.9 96.2998C194.9 96.5998 194.7 96.7998 194.4 96.7998C194.2 96.7998 193.9 96.5998 193.9 96.2998ZM191 96.2998C191 95.9998 191.2 95.7998 191.5 95.7998C191.8 95.7998 192 95.9998 192 96.2998C192 96.5998 191.8 96.7998 191.5 96.7998C191.2 96.7998 191 96.5998 191 96.2998ZM188 96.2998C188 95.9998 188.2 95.7998 188.5 95.7998C188.8 95.7998 189 95.9998 189 96.2998C189 96.5998 188.8 96.7998 188.5 96.7998C188.2 96.7998 188 96.5998 188 96.2998ZM185 96.2998C185 95.9998 185.2 95.7998 185.5 95.7998C185.8 95.7998 186 95.9998 186 96.2998C186 96.5998 185.8 96.7998 185.5 96.7998C185.2 96.7998 185 96.5998 185 96.2998ZM182 96.2998C182 95.9998 182.2 95.7998 182.5 95.7998C182.8 95.7998 183 95.9998 183 96.2998C183 96.5998 182.8 96.7998 182.5 96.7998C182.2 96.7998 182 96.5998 182 96.2998ZM179 96.2998C179 95.9998 179.2 95.7998 179.5 95.7998C179.8 95.7998 180 95.9998 180 96.2998C180 96.5998 179.8 96.7998 179.5 96.7998C179.2 96.7998 179 96.5998 179 96.2998ZM176 96.2998C176 95.9998 176.2 95.7998 176.5 95.7998C176.8 95.7998 177 95.9998 177 96.2998C177 96.5998 176.8 96.7998 176.5 96.7998C176.2 96.7998 176 96.5998 176 96.2998ZM173 96.2998C173 95.9998 173.2 95.7998 173.5 95.7998C173.8 95.7998 174 95.9998 174 96.2998C174 96.5998 173.8 96.7998 173.5 96.7998C173.3 96.7998 173 96.5998 173 96.2998ZM170.1 96.2998C170.1 95.9998 170.3 95.7998 170.6 95.7998C170.9 95.7998 171.1 95.9998 171.1 96.2998C171.1 96.5998 170.9 96.7998 170.6 96.7998C170.3 96.7998 170.1 96.5998 170.1 96.2998ZM167.1 96.2998C167.1 95.9998 167.3 95.7998 167.6 95.7998C167.9 95.7998 168.1 95.9998 168.1 96.2998C168.1 96.5998 167.9 96.7998 167.6 96.7998C167.3 96.7998 167.1 96.5998 167.1 96.2998ZM164.1 96.2998C164.1 95.9998 164.3 95.7998 164.6 95.7998C164.9 95.7998 165.1 95.9998 165.1 96.2998C165.1 96.5998 164.9 96.7998 164.6 96.7998C164.3 96.7998 164.1 96.5998 164.1 96.2998ZM161.1 96.2998C161.1 95.9998 161.3 95.7998 161.6 95.7998C161.9 95.7998 162.1 95.9998 162.1 96.2998C162.1 96.5998 161.9 96.7998 161.6 96.7998C161.3 96.7998 161.1 96.5998 161.1 96.2998ZM158.1 96.2998C158.1 95.9998 158.3 95.7998 158.6 95.7998C158.9 95.7998 159.1 95.9998 159.1 96.2998C159.1 96.5998 158.9 96.7998 158.6 96.7998C158.3 96.7998 158.1 96.5998 158.1 96.2998ZM155.1 96.2998C155.1 95.9998 155.3 95.7998 155.6 95.7998C155.9 95.7998 156.1 95.9998 156.1 96.2998C156.1 96.5998 155.9 96.7998 155.6 96.7998C155.3 96.7998 155.1 96.5998 155.1 96.2998ZM152.1 96.2998C152.1 95.9998 152.3 95.7998 152.6 95.7998C152.9 95.7998 153.1 95.9998 153.1 96.2998C153.1 96.5998 152.9 96.7998 152.6 96.7998C152.4 96.7998 152.1 96.5998 152.1 96.2998ZM149.1 96.2998C149.1 95.9998 149.3 95.7998 149.6 95.7998C149.9 95.7998 150.1 95.9998 150.1 96.2998C150.1 96.5998 149.9 96.7998 149.6 96.7998C149.4 96.7998 149.1 96.5998 149.1 96.2998ZM146.2 96.2998C146.2 95.9998 146.4 95.7998 146.7 95.7998C147 95.7998 147.2 95.9998 147.2 96.2998C147.2 96.5998 147 96.7998 146.7 96.7998C146.4 96.7998 146.2 96.5998 146.2 96.2998ZM143.2 96.2998C143.2 95.9998 143.4 95.7998 143.7 95.7998C144 95.7998 144.2 95.9998 144.2 96.2998C144.2 96.5998 144 96.7998 143.7 96.7998C143.4 96.7998 143.2 96.5998 143.2 96.2998ZM140.2 96.2998C140.2 95.9998 140.4 95.7998 140.7 95.7998C141 95.7998 141.2 95.9998 141.2 96.2998C141.2 96.5998 141 96.7998 140.7 96.7998C140.4 96.7998 140.2 96.5998 140.2 96.2998ZM137.2 96.2998C137.2 95.9998 137.4 95.7998 137.7 95.7998C138 95.7998 138.2 95.9998 138.2 96.2998C138.2 96.5998 138 96.7998 137.7 96.7998C137.4 96.7998 137.2 96.5998 137.2 96.2998ZM134.2 96.2998C134.2 95.9998 134.4 95.7998 134.7 95.7998C135 95.7998 135.2 95.9998 135.2 96.2998C135.2 96.5998 135 96.7998 134.7 96.7998C134.4 96.7998 134.2 96.5998 134.2 96.2998ZM131.2 96.2998C131.2 95.9998 131.4 95.7998 131.7 95.7998C132 95.7998 132.2 95.9998 132.2 96.2998C132.2 96.5998 132 96.7998 131.7 96.7998C131.4 96.7998 131.2 96.5998 131.2 96.2998ZM128.2 96.2998C128.2 95.9998 128.4 95.7998 128.7 95.7998C129 95.7998 129.2 95.9998 129.2 96.2998C129.2 96.5998 129 96.7998 128.7 96.7998C128.5 96.7998 128.2 96.5998 128.2 96.2998ZM125.2 96.2998C125.2 95.9998 125.4 95.7998 125.7 95.7998C126 95.7998 126.2 95.9998 126.2 96.2998C126.2 96.5998 126 96.7998 125.7 96.7998C125.5 96.7998 125.2 96.5998 125.2 96.2998ZM122.3 96.2998C122.3 95.9998 122.5 95.7998 122.8 95.7998C123.1 95.7998 123.3 95.9998 123.3 96.2998C123.3 96.5998 123.1 96.7998 122.8 96.7998C122.5 96.7998 122.3 96.5998 122.3 96.2998ZM119.3 96.2998C119.3 95.9998 119.5 95.7998 119.8 95.7998C120.1 95.7998 120.3 95.9998 120.3 96.2998C120.3 96.5998 120.1 96.7998 119.8 96.7998C119.5 96.7998 119.3 96.5998 119.3 96.2998ZM116.3 96.2998C116.3 95.9998 116.5 95.7998 116.8 95.7998C117.1 95.7998 117.3 95.9998 117.3 96.2998C117.3 96.5998 117.1 96.7998 116.8 96.7998C116.5 96.7998 116.3 96.5998 116.3 96.2998ZM113.3 96.2998C113.3 95.9998 113.5 95.7998 113.8 95.7998C114.1 95.7998 114.3 95.9998 114.3 96.2998C114.3 96.5998 114.1 96.7998 113.8 96.7998C113.5 96.7998 113.3 96.5998 113.3 96.2998ZM110.3 96.2998C110.3 95.9998 110.5 95.7998 110.8 95.7998C111.1 95.7998 111.3 95.9998 111.3 96.2998C111.3 96.5998 111.1 96.7998 110.8 96.7998C110.5 96.7998 110.3 96.5998 110.3 96.2998ZM107.3 96.2998C107.3 95.9998 107.5 95.7998 107.8 95.7998C108.1 95.7998 108.3 95.9998 108.3 96.2998C108.3 96.5998 108.1 96.7998 107.8 96.7998C107.5 96.7998 107.3 96.5998 107.3 96.2998ZM104.3 96.2998C104.3 95.9998 104.5 95.7998 104.8 95.7998C105.1 95.7998 105.3 95.9998 105.3 96.2998C105.3 96.5998 105.1 96.7998 104.8 96.7998C104.6 96.7998 104.3 96.5998 104.3 96.2998ZM101.4 96.2998C101.4 95.9998 101.6 95.7998 101.9 95.7998C102.2 95.7998 102.4 95.9998 102.4 96.2998C102.4 96.5998 102.2 96.7998 101.9 96.7998C101.6 96.7998 101.4 96.5998 101.4 96.2998ZM98.4 96.2998C98.4 95.9998 98.6 95.7998 98.9 95.7998C99.2 95.7998 99.4 95.9998 99.4 96.2998C99.4 96.5998 99.2 96.7998 98.9 96.7998C98.6 96.7998 98.4 96.5998 98.4 96.2998ZM95.4 96.2998C95.4 95.9998 95.6 95.7998 95.9 95.7998C96.2 95.7998 96.4 95.9998 96.4 96.2998C96.4 96.5998 96.2 96.7998 95.9 96.7998C95.6 96.7998 95.4 96.5998 95.4 96.2998ZM92.4 96.2998C92.4 95.9998 92.6 95.7998 92.9 95.7998C93.2 95.7998 93.4 95.9998 93.4 96.2998C93.4 96.5998 93.2 96.7998 92.9 96.7998C92.6 96.7998 92.4 96.5998 92.4 96.2998ZM89.4 96.2998C89.4 95.9998 89.6 95.7998 89.9 95.7998C90.2 95.7998 90.4 95.9998 90.4 96.2998C90.4 96.5998 90.2 96.7998 89.9 96.7998C89.6 96.7998 89.4 96.5998 89.4 96.2998ZM86.4 96.2998C86.4 95.9998 86.6 95.7998 86.9 95.7998C87.2 95.7998 87.4 95.9998 87.4 96.2998C87.4 96.5998 87.2 96.7998 86.9 96.7998C86.6 96.7998 86.4 96.5998 86.4 96.2998ZM83.4 96.2998C83.4 95.9998 83.6 95.7998 83.9 95.7998C84.2 95.7998 84.4 95.9998 84.4 96.2998C84.4 96.5998 84.2 96.7998 83.9 96.7998C83.7 96.7998 83.4 96.5998 83.4 96.2998ZM80.4 96.2998C80.4 95.9998 80.6 95.7998 80.9 95.7998C81.2 95.7998 81.4 95.9998 81.4 96.2998C81.4 96.5998 81.2 96.7998 80.9 96.7998C80.7 96.7998 80.4 96.5998 80.4 96.2998ZM77.5 96.2998C77.5 95.9998 77.7 95.7998 78 95.7998C78.3 95.7998 78.5 95.9998 78.5 96.2998C78.5 96.5998 78.3 96.7998 78 96.7998C77.7 96.7998 77.5 96.5998 77.5 96.2998ZM74.5 96.2998C74.5 95.9998 74.7 95.7998 75 95.7998C75.3 95.7998 75.5 95.9998 75.5 96.2998C75.5 96.5998 75.3 96.7998 75 96.7998C74.7 96.7998 74.5 96.5998 74.5 96.2998ZM71.5 96.2998C71.5 95.9998 71.7 95.7998 72 95.7998C72.3 95.7998 72.5 95.9998 72.5 96.2998C72.5 96.5998 72.3 96.7998 72 96.7998C71.7 96.7998 71.5 96.5998 71.5 96.2998ZM68.5 96.2998C68.5 95.9998 68.7 95.7998 69 95.7998C69.3 95.7998 69.5 95.9998 69.5 96.2998C69.5 96.5998 69.3 96.7998 69 96.7998C68.7 96.7998 68.5 96.5998 68.5 96.2998ZM65.5 96.2998C65.5 95.9998 65.7 95.7998 66 95.7998C66.3 95.7998 66.5 95.9998 66.5 96.2998C66.5 96.5998 66.3 96.7998 66 96.7998C65.7 96.7998 65.5 96.5998 65.5 96.2998ZM62.5 96.2998C62.5 95.9998 62.7 95.7998 63 95.7998C63.3 95.7998 63.5 95.9998 63.5 96.2998C63.5 96.5998 63.3 96.7998 63 96.7998C62.7 96.7998 62.5 96.5998 62.5 96.2998ZM59.5 96.2998C59.5 95.9998 59.7 95.7998 60 95.7998C60.3 95.7998 60.5 95.9998 60.5 96.2998C60.5 96.5998 60.3 96.7998 60 96.7998C59.8 96.7998 59.5 96.5998 59.5 96.2998ZM56.5 96.2998C56.5 95.9998 56.7 95.7998 57 95.7998C57.3 95.7998 57.5 95.9998 57.5 96.2998C57.5 96.5998 57.3 96.7998 57 96.7998C56.8 96.7998 56.5 96.5998 56.5 96.2998ZM53.6 96.2998C53.6 95.9998 53.8 95.7998 54.1 95.7998C54.4 95.7998 54.6 95.9998 54.6 96.2998C54.6 96.5998 54.4 96.7998 54.1 96.7998C53.8 96.7998 53.6 96.5998 53.6 96.2998ZM50.6 96.2998C50.6 95.9998 50.8 95.7998 51.1 95.7998C51.4 95.7998 51.6 95.9998 51.6 96.2998C51.6 96.5998 51.4 96.7998 51.1 96.7998C50.8 96.7998 50.6 96.5998 50.6 96.2998ZM47.6 96.2998C47.6 95.9998 47.8 95.7998 48.1 95.7998C48.4 95.7998 48.6 95.9998 48.6 96.2998C48.6 96.5998 48.4 96.7998 48.1 96.7998C47.8 96.7998 47.6 96.5998 47.6 96.2998ZM44.6 96.2998C44.6 95.9998 44.8 95.7998 45.1 95.7998C45.4 95.7998 45.6 95.9998 45.6 96.2998C45.6 96.5998 45.4 96.7998 45.1 96.7998C44.8 96.7998 44.6 96.5998 44.6 96.2998ZM41.6 96.2998C41.6 95.9998 41.8 95.7998 42.1 95.7998C42.4 95.7998 42.6 95.9998 42.6 96.2998C42.6 96.5998 42.4 96.7998 42.1 96.7998C41.8 96.7998 41.6 96.5998 41.6 96.2998ZM38.6 96.2998C38.6 95.9998 38.8 95.7998 39.1 95.7998C39.4 95.7998 39.6 95.9998 39.6 96.2998C39.6 96.5998 39.4 96.7998 39.1 96.7998C38.8 96.7998 38.6 96.5998 38.6 96.2998ZM35.6 96.2998C35.6 95.9998 35.8 95.7998 36.1 95.7998C36.4 95.7998 36.6 95.9998 36.6 96.2998C36.6 96.5998 36.4 96.7998 36.1 96.7998C35.9 96.7998 35.6 96.5998 35.6 96.2998ZM32.6 96.2998C32.6 95.9998 32.8 95.7998 33.1 95.7998C33.4 95.7998 33.6 95.9998 33.6 96.2998C33.6 96.5998 33.4 96.7998 33.1 96.7998C32.9 96.7998 32.6 96.5998 32.6 96.2998ZM29.7 96.2998C29.7 95.9998 29.9 95.7998 30.2 95.7998C30.5 95.7998 30.7 95.9998 30.7 96.2998C30.7 96.5998 30.5 96.7998 30.2 96.7998C29.9 96.7998 29.7 96.5998 29.7 96.2998ZM26.7 96.2998C26.7 95.9998 26.9 95.7998 27.2 95.7998C27.5 95.7998 27.7 95.9998 27.7 96.2998C27.7 96.5998 27.5 96.7998 27.2 96.7998C26.9 96.7998 26.7 96.5998 26.7 96.2998ZM23.7 96.2998C23.7 95.9998 23.9 95.7998 24.2 95.7998C24.5 95.7998 24.7 95.9998 24.7 96.2998C24.7 96.5998 24.5 96.7998 24.2 96.7998C23.9 96.7998 23.7 96.5998 23.7 96.2998ZM20.7 96.2998C20.7 95.9998 20.9 95.7998 21.2 95.7998C21.5 95.7998 21.7 95.9998 21.7 96.2998C21.7 96.5998 21.5 96.7998 21.2 96.7998C20.9 96.7998 20.7 96.5998 20.7 96.2998ZM17.7 96.2998C17.7 95.9998 17.9 95.7998 18.2 95.7998C18.5 95.7998 18.7 95.9998 18.7 96.2998C18.7 96.5998 18.5 96.7998 18.2 96.7998C17.9 96.7998 17.7 96.5998 17.7 96.2998ZM14.7001 96.2998C14.7001 95.9998 14.9001 95.7998 15.2001 95.7998C15.5001 95.7998 15.7001 95.9998 15.7001 96.2998C15.7001 96.5998 15.5001 96.7998 15.2001 96.7998C15.0001 96.7998 14.7001 96.5998 14.7001 96.2998ZM11.7001 96.2998C11.7001 95.9998 11.9001 95.7998 12.2001 95.7998C12.5001 95.7998 12.7001 95.9998 12.7001 96.2998C12.7001 96.5998 12.5001 96.7998 12.2001 96.7998C12.0001 96.7998 11.7001 96.5998 11.7001 96.2998ZM8.80005 96.2998C8.80005 95.9998 9.00005 95.7998 9.30005 95.7998C9.60005 95.7998 9.80005 95.9998 9.80005 96.2998C9.80005 96.5998 9.60005 96.7998 9.30005 96.7998C9.00005 96.7998 8.80005 96.5998 8.80005 96.2998ZM5.80005 96.2998C5.80005 95.9998 6.00005 95.7998 6.30005 95.7998C6.60005 95.7998 6.80005 95.9998 6.80005 96.2998C6.80005 96.5998 6.60005 96.7998 6.30005 96.7998C6.00005 96.7998 5.80005 96.5998 5.80005 96.2998ZM2.80005 96.2998C2.80005 95.9998 3.00005 95.7998 3.30005 95.7998C3.60005 95.7998 3.80005 95.9998 3.80005 96.2998C3.80005 96.5998 3.60005 96.7998 3.30005 96.7998C3.00005 96.7998 2.80005 96.5998 2.80005 96.2998ZM-0.199951 96.2998C-0.199951 95.9998 4.88162e-05 95.7998 0.300049 95.7998C0.600049 95.7998 0.800049 95.9998 0.800049 96.2998C0.800049 96.5998 0.600049 96.7998 0.300049 96.7998C4.88162e-05 96.7998 -0.199951 96.5998 -0.199951 96.2998Z" fill="#AFAFAF"/>
<path d="M268.7 93.3004C268.7 93.0004 268.9 92.8004 269.2 92.8004C269.5 92.8004 269.7 93.0004 269.7 93.3004C269.7 93.6004 269.5 93.8004 269.2 93.8004C268.9 93.8004 268.7 93.6004 268.7 93.3004ZM268.7 90.3004C268.7 90.0004 268.9 89.8004 269.2 89.8004C269.5 89.8004 269.7 90.0004 269.7 90.3004C269.7 90.6004 269.5 90.8004 269.2 90.8004C268.9 90.8004 268.7 90.5004 268.7 90.3004ZM268.7 87.2004C268.7 86.9004 268.9 86.7004 269.2 86.7004C269.5 86.7004 269.7 86.9004 269.7 87.2004C269.7 87.5004 269.5 87.7004 269.2 87.7004C268.9 87.7004 268.7 87.5004 268.7 87.2004ZM268.7 84.2004C268.7 83.9004 268.9 83.7004 269.2 83.7004C269.5 83.7004 269.7 83.9004 269.7 84.2004C269.7 84.5004 269.5 84.7004 269.2 84.7004C268.9 84.7004 268.7 84.5004 268.7 84.2004ZM268.7 81.2004C268.7 80.9004 268.9 80.7004 269.2 80.7004C269.5 80.7004 269.7 80.9004 269.7 81.2004C269.7 81.5004 269.5 81.7004 269.2 81.7004C268.9 81.7004 268.7 81.4004 268.7 81.2004ZM268.7 78.1004C268.7 77.8004 268.9 77.6004 269.2 77.6004C269.5 77.6004 269.7 77.8004 269.7 78.1004C269.7 78.4004 269.5 78.6004 269.2 78.6004C268.9 78.6004 268.7 78.4004 268.7 78.1004ZM268.7 75.1004C268.7 74.8004 268.9 74.6004 269.2 74.6004C269.5 74.6004 269.7 74.8004 269.7 75.1004C269.7 75.4004 269.5 75.6004 269.2 75.6004C268.9 75.6004 268.7 75.4004 268.7 75.1004ZM268.7 72.1004C268.7 71.8004 268.9 71.6004 269.2 71.6004C269.5 71.6004 269.7 71.8004 269.7 72.1004C269.7 72.4004 269.5 72.6004 269.2 72.6004C268.9 72.6004 268.7 72.3004 268.7 72.1004ZM268.7 69.0004C268.7 68.7004 268.9 68.5004 269.2 68.5004C269.5 68.5004 269.7 68.7004 269.7 69.0004C269.7 69.3004 269.5 69.5004 269.2 69.5004C268.9 69.5004 268.7 69.3004 268.7 69.0004ZM268.7 66.0004C268.7 65.7004 268.9 65.5004 269.2 65.5004C269.5 65.5004 269.7 65.7004 269.7 66.0004C269.7 66.3004 269.5 66.5004 269.2 66.5004C268.9 66.5004 268.7 66.3004 268.7 66.0004ZM268.7 63.0004C268.7 62.7004 268.9 62.5004 269.2 62.5004C269.5 62.5004 269.7 62.7004 269.7 63.0004C269.7 63.3004 269.5 63.5004 269.2 63.5004C268.9 63.5004 268.7 63.3004 268.7 63.0004ZM268.7 60.0004C268.7 59.7004 268.9 59.5004 269.2 59.5004C269.5 59.5004 269.7 59.7004 269.7 60.0004C269.7 60.3004 269.5 60.5004 269.2 60.5004C268.9 60.5004 268.7 60.2004 268.7 60.0004ZM268.7 56.9004C268.7 56.6004 268.9 56.4004 269.2 56.4004C269.5 56.4004 269.7 56.6004 269.7 56.9004C269.7 57.2004 269.5 57.4004 269.2 57.4004C268.9 57.4004 268.7 57.2004 268.7 56.9004ZM268.7 53.9004C268.7 53.6004 268.9 53.4004 269.2 53.4004C269.5 53.4004 269.7 53.6004 269.7 53.9004C269.7 54.2004 269.5 54.4004 269.2 54.4004C268.9 54.4004 268.7 54.2004 268.7 53.9004ZM268.7 50.9004C268.7 50.6004 268.9 50.4004 269.2 50.4004C269.5 50.4004 269.7 50.6004 269.7 50.9004C269.7 51.2004 269.5 51.4004 269.2 51.4004C268.9 51.4004 268.7 51.1004 268.7 50.9004Z" fill="#7E7E7E"/>
<path d="M265.7 47.7998C265.7 47.4998 265.9 47.2998 266.2 47.2998C266.5 47.2998 266.7 47.4998 266.7 47.7998C266.7 48.0998 266.5 48.2998 266.2 48.2998C265.9 48.2998 265.7 48.0998 265.7 47.7998ZM262.7 47.7998C262.7 47.4998 262.9 47.2998 263.2 47.2998C263.5 47.2998 263.7 47.4998 263.7 47.7998C263.7 48.0998 263.5 48.2998 263.2 48.2998C262.9 48.2998 262.7 48.0998 262.7 47.7998ZM259.7 47.7998C259.7 47.4998 259.9 47.2998 260.2 47.2998C260.5 47.2998 260.7 47.4998 260.7 47.7998C260.7 48.0998 260.5 48.2998 260.2 48.2998C259.9 48.2998 259.7 48.0998 259.7 47.7998ZM256.7 47.7998C256.7 47.4998 256.9 47.2998 257.2 47.2998C257.5 47.2998 257.7 47.4998 257.7 47.7998C257.7 48.0998 257.5 48.2998 257.2 48.2998C256.9 48.2998 256.7 48.0998 256.7 47.7998ZM253.7 47.7998C253.7 47.4998 253.9 47.2998 254.2 47.2998C254.5 47.2998 254.7 47.4998 254.7 47.7998C254.7 48.0998 254.5 48.2998 254.2 48.2998C253.9 48.2998 253.7 48.0998 253.7 47.7998ZM250.7 47.7998C250.7 47.4998 250.9 47.2998 251.2 47.2998C251.5 47.2998 251.7 47.4998 251.7 47.7998C251.7 48.0998 251.5 48.2998 251.2 48.2998C251 48.2998 250.7 48.0998 250.7 47.7998ZM247.7 47.7998C247.7 47.4998 247.9 47.2998 248.2 47.2998C248.5 47.2998 248.7 47.4998 248.7 47.7998C248.7 48.0998 248.5 48.2998 248.2 48.2998C248 48.2998 247.7 48.0998 247.7 47.7998ZM244.8 47.7998C244.8 47.4998 245 47.2998 245.3 47.2998C245.6 47.2998 245.8 47.4998 245.8 47.7998C245.8 48.0998 245.6 48.2998 245.3 48.2998C245 48.2998 244.8 48.0998 244.8 47.7998ZM241.8 47.7998C241.8 47.4998 242 47.2998 242.3 47.2998C242.6 47.2998 242.8 47.4998 242.8 47.7998C242.8 48.0998 242.6 48.2998 242.3 48.2998C242 48.2998 241.8 48.0998 241.8 47.7998ZM238.8 47.7998C238.8 47.4998 239 47.2998 239.3 47.2998C239.6 47.2998 239.8 47.4998 239.8 47.7998C239.8 48.0998 239.6 48.2998 239.3 48.2998C239 48.2998 238.8 48.0998 238.8 47.7998ZM235.8 47.7998C235.8 47.4998 236 47.2998 236.3 47.2998C236.6 47.2998 236.8 47.4998 236.8 47.7998C236.8 48.0998 236.6 48.2998 236.3 48.2998C236 48.2998 235.8 48.0998 235.8 47.7998ZM232.8 47.7998C232.8 47.4998 233 47.2998 233.3 47.2998C233.6 47.2998 233.8 47.4998 233.8 47.7998C233.8 48.0998 233.6 48.2998 233.3 48.2998C233 48.2998 232.8 48.0998 232.8 47.7998ZM229.8 47.7998C229.8 47.4998 230 47.2998 230.3 47.2998C230.6 47.2998 230.8 47.4998 230.8 47.7998C230.8 48.0998 230.6 48.2998 230.3 48.2998C230 48.2998 229.8 48.0998 229.8 47.7998ZM226.8 47.7998C226.8 47.4998 227 47.2998 227.3 47.2998C227.6 47.2998 227.8 47.4998 227.8 47.7998C227.8 48.0998 227.6 48.2998 227.3 48.2998C227.1 48.2998 226.8 48.0998 226.8 47.7998ZM223.8 47.7998C223.8 47.4998 224 47.2998 224.3 47.2998C224.6 47.2998 224.8 47.4998 224.8 47.7998C224.8 48.0998 224.6 48.2998 224.3 48.2998C224.1 48.2998 223.8 48.0998 223.8 47.7998ZM220.9 47.7998C220.9 47.4998 221.1 47.2998 221.4 47.2998C221.7 47.2998 221.9 47.4998 221.9 47.7998C221.9 48.0998 221.7 48.2998 221.4 48.2998C221.1 48.2998 220.9 48.0998 220.9 47.7998ZM217.9 47.7998C217.9 47.4998 218.1 47.2998 218.4 47.2998C218.7 47.2998 218.9 47.4998 218.9 47.7998C218.9 48.0998 218.7 48.2998 218.4 48.2998C218.1 48.2998 217.9 48.0998 217.9 47.7998ZM214.9 47.7998C214.9 47.4998 215.1 47.2998 215.4 47.2998C215.7 47.2998 215.9 47.4998 215.9 47.7998C215.9 48.0998 215.7 48.2998 215.4 48.2998C215.1 48.2998 214.9 48.0998 214.9 47.7998ZM211.9 47.7998C211.9 47.4998 212.1 47.2998 212.4 47.2998C212.7 47.2998 212.9 47.4998 212.9 47.7998C212.9 48.0998 212.7 48.2998 212.4 48.2998C212.1 48.2998 211.9 48.0998 211.9 47.7998ZM208.9 47.7998C208.9 47.4998 209.1 47.2998 209.4 47.2998C209.7 47.2998 209.9 47.4998 209.9 47.7998C209.9 48.0998 209.7 48.2998 209.4 48.2998C209.1 48.2998 208.9 48.0998 208.9 47.7998ZM205.9 47.7998C205.9 47.4998 206.1 47.2998 206.4 47.2998C206.7 47.2998 206.9 47.4998 206.9 47.7998C206.9 48.0998 206.7 48.2998 206.4 48.2998C206.1 48.2998 205.9 48.0998 205.9 47.7998ZM202.9 47.7998C202.9 47.4998 203.1 47.2998 203.4 47.2998C203.7 47.2998 203.9 47.4998 203.9 47.7998C203.9 48.0998 203.7 48.2998 203.4 48.2998C203.2 48.2998 202.9 48.0998 202.9 47.7998ZM200 47.7998C200 47.4998 200.2 47.2998 200.5 47.2998C200.8 47.2998 201 47.4998 201 47.7998C201 48.0998 200.8 48.2998 200.5 48.2998C200.2 48.2998 200 48.0998 200 47.7998ZM197 47.7998C197 47.4998 197.2 47.2998 197.5 47.2998C197.8 47.2998 198 47.4998 198 47.7998C198 48.0998 197.8 48.2998 197.5 48.2998C197.2 48.2998 197 48.0998 197 47.7998ZM194 47.7998C194 47.4998 194.2 47.2998 194.5 47.2998C194.8 47.2998 195 47.4998 195 47.7998C195 48.0998 194.8 48.2998 194.5 48.2998C194.2 48.2998 194 48.0998 194 47.7998ZM191 47.7998C191 47.4998 191.2 47.2998 191.5 47.2998C191.8 47.2998 192 47.4998 192 47.7998C192 48.0998 191.8 48.2998 191.5 48.2998C191.2 48.2998 191 48.0998 191 47.7998ZM188 47.7998C188 47.4998 188.2 47.2998 188.5 47.2998C188.8 47.2998 189 47.4998 189 47.7998C189 48.0998 188.8 48.2998 188.5 48.2998C188.2 48.2998 188 48.0998 188 47.7998ZM185 47.7998C185 47.4998 185.2 47.2998 185.5 47.2998C185.8 47.2998 186 47.4998 186 47.7998C186 48.0998 185.8 48.2998 185.5 48.2998C185.2 48.2998 185 48.0998 185 47.7998ZM182 47.7998C182 47.4998 182.2 47.2998 182.5 47.2998C182.8 47.2998 183 47.4998 183 47.7998C183 48.0998 182.8 48.2998 182.5 48.2998C182.3 48.2998 182 48.0998 182 47.7998ZM179 47.7998C179 47.4998 179.2 47.2998 179.5 47.2998C179.8 47.2998 180 47.4998 180 47.7998C180 48.0998 179.8 48.2998 179.5 48.2998C179.3 48.2998 179 48.0998 179 47.7998ZM176.1 47.7998C176.1 47.4998 176.3 47.2998 176.6 47.2998C176.9 47.2998 177.1 47.4998 177.1 47.7998C177.1 48.0998 176.9 48.2998 176.6 48.2998C176.3 48.2998 176.1 48.0998 176.1 47.7998ZM173.1 47.7998C173.1 47.4998 173.3 47.2998 173.6 47.2998C173.9 47.2998 174.1 47.4998 174.1 47.7998C174.1 48.0998 173.9 48.2998 173.6 48.2998C173.3 48.2998 173.1 48.0998 173.1 47.7998ZM170.1 47.7998C170.1 47.4998 170.3 47.2998 170.6 47.2998C170.9 47.2998 171.1 47.4998 171.1 47.7998C171.1 48.0998 170.9 48.2998 170.6 48.2998C170.3 48.2998 170.1 48.0998 170.1 47.7998ZM167.1 47.7998C167.1 47.4998 167.3 47.2998 167.6 47.2998C167.9 47.2998 168.1 47.4998 168.1 47.7998C168.1 48.0998 167.9 48.2998 167.6 48.2998C167.3 48.2998 167.1 48.0998 167.1 47.7998ZM164.1 47.7998C164.1 47.4998 164.3 47.2998 164.6 47.2998C164.9 47.2998 165.1 47.4998 165.1 47.7998C165.1 48.0998 164.9 48.2998 164.6 48.2998C164.3 48.2998 164.1 48.0998 164.1 47.7998ZM161.1 47.7998C161.1 47.4998 161.3 47.2998 161.6 47.2998C161.9 47.2998 162.1 47.4998 162.1 47.7998C162.1 48.0998 161.9 48.2998 161.6 48.2998C161.3 48.2998 161.1 48.0998 161.1 47.7998ZM158.1 47.7998C158.1 47.4998 158.3 47.2998 158.6 47.2998C158.9 47.2998 159.1 47.4998 159.1 47.7998C159.1 48.0998 158.9 48.2998 158.6 48.2998C158.4 48.2998 158.1 48.0998 158.1 47.7998ZM155.1 47.7998C155.1 47.4998 155.3 47.2998 155.6 47.2998C155.9 47.2998 156.1 47.4998 156.1 47.7998C156.1 48.0998 155.9 48.2998 155.6 48.2998C155.4 48.2998 155.1 48.0998 155.1 47.7998ZM152.2 47.7998C152.2 47.4998 152.4 47.2998 152.7 47.2998C153 47.2998 153.2 47.4998 153.2 47.7998C153.2 48.0998 153 48.2998 152.7 48.2998C152.4 48.2998 152.2 48.0998 152.2 47.7998ZM149.2 47.7998C149.2 47.4998 149.4 47.2998 149.7 47.2998C150 47.2998 150.2 47.4998 150.2 47.7998C150.2 48.0998 150 48.2998 149.7 48.2998C149.4 48.2998 149.2 48.0998 149.2 47.7998ZM146.2 47.7998C146.2 47.4998 146.4 47.2998 146.7 47.2998C147 47.2998 147.2 47.4998 147.2 47.7998C147.2 48.0998 147 48.2998 146.7 48.2998C146.4 48.2998 146.2 48.0998 146.2 47.7998ZM143.2 47.7998C143.2 47.4998 143.4 47.2998 143.7 47.2998C144 47.2998 144.2 47.4998 144.2 47.7998C144.2 48.0998 144 48.2998 143.7 48.2998C143.4 48.2998 143.2 48.0998 143.2 47.7998ZM140.2 47.7998C140.2 47.4998 140.4 47.2998 140.7 47.2998C141 47.2998 141.2 47.4998 141.2 47.7998C141.2 48.0998 141 48.2998 140.7 48.2998C140.4 48.2998 140.2 48.0998 140.2 47.7998ZM137.2 47.7998C137.2 47.4998 137.4 47.2998 137.7 47.2998C138 47.2998 138.2 47.4998 138.2 47.7998C138.2 48.0998 138 48.2998 137.7 48.2998C137.4 48.2998 137.2 48.0998 137.2 47.7998ZM134.2 47.7998C134.2 47.4998 134.4 47.2998 134.7 47.2998C135 47.2998 135.2 47.4998 135.2 47.7998C135.2 48.0998 135 48.2998 134.7 48.2998C134.5 48.2998 134.2 48.0998 134.2 47.7998ZM131.3 47.7998C131.3 47.4998 131.5 47.2998 131.8 47.2998C132.1 47.2998 132.3 47.4998 132.3 47.7998C132.3 48.0998 132.1 48.2998 131.8 48.2998C131.5 48.2998 131.3 48.0998 131.3 47.7998ZM128.3 47.7998C128.3 47.4998 128.5 47.2998 128.8 47.2998C129.1 47.2998 129.3 47.4998 129.3 47.7998C129.3 48.0998 129.1 48.2998 128.8 48.2998C128.5 48.2998 128.3 48.0998 128.3 47.7998ZM125.3 47.7998C125.3 47.4998 125.5 47.2998 125.8 47.2998C126.1 47.2998 126.3 47.4998 126.3 47.7998C126.3 48.0998 126.1 48.2998 125.8 48.2998C125.5 48.2998 125.3 48.0998 125.3 47.7998ZM122.3 47.7998C122.3 47.4998 122.5 47.2998 122.8 47.2998C123.1 47.2998 123.3 47.4998 123.3 47.7998C123.3 48.0998 123.1 48.2998 122.8 48.2998C122.5 48.2998 122.3 48.0998 122.3 47.7998ZM119.3 47.7998C119.3 47.4998 119.5 47.2998 119.8 47.2998C120.1 47.2998 120.3 47.4998 120.3 47.7998C120.3 48.0998 120.1 48.2998 119.8 48.2998C119.5 48.2998 119.3 48.0998 119.3 47.7998ZM116.3 47.7998C116.3 47.4998 116.5 47.2998 116.8 47.2998C117.1 47.2998 117.3 47.4998 117.3 47.7998C117.3 48.0998 117.1 48.2998 116.8 48.2998C116.5 48.2998 116.3 48.0998 116.3 47.7998ZM113.3 47.7998C113.3 47.4998 113.5 47.2998 113.8 47.2998C114.1 47.2998 114.3 47.4998 114.3 47.7998C114.3 48.0998 114.1 48.2998 113.8 48.2998C113.6 48.2998 113.3 48.0998 113.3 47.7998ZM110.3 47.7998C110.3 47.4998 110.5 47.2998 110.8 47.2998C111.1 47.2998 111.3 47.4998 111.3 47.7998C111.3 48.0998 111.1 48.2998 110.8 48.2998C110.6 48.2998 110.3 48.0998 110.3 47.7998ZM107.4 47.7998C107.4 47.4998 107.6 47.2998 107.9 47.2998C108.2 47.2998 108.4 47.4998 108.4 47.7998C108.4 48.0998 108.2 48.2998 107.9 48.2998C107.6 48.2998 107.4 48.0998 107.4 47.7998ZM104.4 47.7998C104.4 47.4998 104.6 47.2998 104.9 47.2998C105.2 47.2998 105.4 47.4998 105.4 47.7998C105.4 48.0998 105.2 48.2998 104.9 48.2998C104.6 48.2998 104.4 48.0998 104.4 47.7998ZM101.4 47.7998C101.4 47.4998 101.6 47.2998 101.9 47.2998C102.2 47.2998 102.4 47.4998 102.4 47.7998C102.4 48.0998 102.2 48.2998 101.9 48.2998C101.6 48.2998 101.4 48.0998 101.4 47.7998ZM98.4 47.7998C98.4 47.4998 98.6 47.2998 98.9 47.2998C99.2 47.2998 99.4 47.4998 99.4 47.7998C99.4 48.0998 99.2 48.2998 98.9 48.2998C98.6 48.2998 98.4 48.0998 98.4 47.7998ZM95.4 47.7998C95.4 47.4998 95.6 47.2998 95.9 47.2998C96.2 47.2998 96.4 47.4998 96.4 47.7998C96.4 48.0998 96.2 48.2998 95.9 48.2998C95.6 48.2998 95.4 48.0998 95.4 47.7998ZM92.4 47.7998C92.4 47.4998 92.6 47.2998 92.9 47.2998C93.2 47.2998 93.4 47.4998 93.4 47.7998C93.4 48.0998 93.2 48.2998 92.9 48.2998C92.6 48.2998 92.4 48.0998 92.4 47.7998ZM89.4 47.7998C89.4 47.4998 89.6 47.2998 89.9 47.2998C90.2 47.2998 90.4 47.4998 90.4 47.7998C90.4 48.0998 90.2 48.2998 89.9 48.2998C89.7 48.2998 89.4 48.0998 89.4 47.7998ZM86.4 47.7998C86.4 47.4998 86.6 47.2998 86.9 47.2998C87.2 47.2998 87.4 47.4998 87.4 47.7998C87.4 48.0998 87.2 48.2998 86.9 48.2998C86.7 48.2998 86.4 48.0998 86.4 47.7998ZM83.5 47.7998C83.5 47.4998 83.7 47.2998 84 47.2998C84.3 47.2998 84.5 47.4998 84.5 47.7998C84.5 48.0998 84.3 48.2998 84 48.2998C83.7 48.2998 83.5 48.0998 83.5 47.7998ZM80.5 47.7998C80.5 47.4998 80.7 47.2998 81 47.2998C81.3 47.2998 81.5 47.4998 81.5 47.7998C81.5 48.0998 81.3 48.2998 81 48.2998C80.7 48.2998 80.5 48.0998 80.5 47.7998ZM77.5 47.7998C77.5 47.4998 77.7 47.2998 78 47.2998C78.3 47.2998 78.5 47.4998 78.5 47.7998C78.5 48.0998 78.3 48.2998 78 48.2998C77.7 48.2998 77.5 48.0998 77.5 47.7998ZM74.5 47.7998C74.5 47.4998 74.7 47.2998 75 47.2998C75.3 47.2998 75.5 47.4998 75.5 47.7998C75.5 48.0998 75.3 48.2998 75 48.2998C74.7 48.2998 74.5 48.0998 74.5 47.7998ZM71.5 47.7998C71.5 47.4998 71.7 47.2998 72 47.2998C72.3 47.2998 72.5 47.4998 72.5 47.7998C72.5 48.0998 72.3 48.2998 72 48.2998C71.7 48.2998 71.5 48.0998 71.5 47.7998ZM68.5 47.7998C68.5 47.4998 68.7 47.2998 69 47.2998C69.3 47.2998 69.5 47.4998 69.5 47.7998C69.5 48.0998 69.3 48.2998 69 48.2998C68.7 48.2998 68.5 48.0998 68.5 47.7998ZM65.5 47.7998C65.5 47.4998 65.7 47.2998 66 47.2998C66.3 47.2998 66.5 47.4998 66.5 47.7998C66.5 48.0998 66.3 48.2998 66 48.2998C65.8 48.2998 65.5 48.0998 65.5 47.7998ZM62.6 47.7998C62.6 47.4998 62.8 47.2998 63.1 47.2998C63.4 47.2998 63.6 47.4998 63.6 47.7998C63.6 48.0998 63.4 48.2998 63.1 48.2998C62.8 48.2998 62.6 48.0998 62.6 47.7998ZM59.6 47.7998C59.6 47.4998 59.8 47.2998 60.1 47.2998C60.4 47.2998 60.6 47.4998 60.6 47.7998C60.6 48.0998 60.4 48.2998 60.1 48.2998C59.8 48.2998 59.6 48.0998 59.6 47.7998ZM56.6 47.7998C56.6 47.4998 56.8 47.2998 57.1 47.2998C57.4 47.2998 57.6 47.4998 57.6 47.7998C57.6 48.0998 57.4 48.2998 57.1 48.2998C56.8 48.2998 56.6 48.0998 56.6 47.7998ZM53.6 47.7998C53.6 47.4998 53.8 47.2998 54.1 47.2998C54.4 47.2998 54.6 47.4998 54.6 47.7998C54.6 48.0998 54.4 48.2998 54.1 48.2998C53.8 48.2998 53.6 48.0998 53.6 47.7998ZM50.6 47.7998C50.6 47.4998 50.8 47.2998 51.1 47.2998C51.4 47.2998 51.6 47.4998 51.6 47.7998C51.6 48.0998 51.4 48.2998 51.1 48.2998C50.8 48.2998 50.6 48.0998 50.6 47.7998ZM47.6 47.7998C47.6 47.4998 47.8 47.2998 48.1 47.2998C48.4 47.2998 48.6 47.4998 48.6 47.7998C48.6 48.0998 48.4 48.2998 48.1 48.2998C47.8 48.2998 47.6 48.0998 47.6 47.7998ZM44.6 47.7998C44.6 47.4998 44.8 47.2998 45.1 47.2998C45.4 47.2998 45.6 47.4998 45.6 47.7998C45.6 48.0998 45.4 48.2998 45.1 48.2998C44.9 48.2998 44.6 48.0998 44.6 47.7998ZM41.6 47.7998C41.6 47.4998 41.8 47.2998 42.1 47.2998C42.4 47.2998 42.6 47.4998 42.6 47.7998C42.6 48.0998 42.4 48.2998 42.1 48.2998C41.9 48.2998 41.6 48.0998 41.6 47.7998ZM38.7 47.7998C38.7 47.4998 38.9 47.2998 39.2 47.2998C39.5 47.2998 39.7 47.4998 39.7 47.7998C39.7 48.0998 39.5 48.2998 39.2 48.2998C38.9 48.2998 38.7 48.0998 38.7 47.7998ZM35.7 47.7998C35.7 47.4998 35.9 47.2998 36.2 47.2998C36.5 47.2998 36.7 47.4998 36.7 47.7998C36.7 48.0998 36.5 48.2998 36.2 48.2998C35.9 48.2998 35.7 48.0998 35.7 47.7998ZM32.7 47.7998C32.7 47.4998 32.9 47.2998 33.2 47.2998C33.5 47.2998 33.7 47.4998 33.7 47.7998C33.7 48.0998 33.5 48.2998 33.2 48.2998C32.9 48.2998 32.7 48.0998 32.7 47.7998ZM29.7 47.7998C29.7 47.4998 29.9 47.2998 30.2 47.2998C30.5 47.2998 30.7 47.4998 30.7 47.7998C30.7 48.0998 30.5 48.2998 30.2 48.2998C29.9 48.2998 29.7 48.0998 29.7 47.7998ZM26.7 47.7998C26.7 47.4998 26.9 47.2998 27.2 47.2998C27.5 47.2998 27.7 47.4998 27.7 47.7998C27.7 48.0998 27.5 48.2998 27.2 48.2998C26.9 48.2998 26.7 48.0998 26.7 47.7998ZM23.7 47.7998C23.7 47.4998 23.9 47.2998 24.2 47.2998C24.5 47.2998 24.7 47.4998 24.7 47.7998C24.7 48.0998 24.5 48.2998 24.2 48.2998C23.9 48.2998 23.7 48.0998 23.7 47.7998ZM20.7 47.7998C20.7 47.4998 20.9 47.2998 21.2 47.2998C21.5 47.2998 21.7 47.4998 21.7 47.7998C21.7 48.0998 21.5 48.2998 21.2 48.2998C21 48.2998 20.7 48.0998 20.7 47.7998ZM17.7 47.7998C17.7 47.4998 17.9 47.2998 18.2 47.2998C18.5 47.2998 18.7 47.4998 18.7 47.7998C18.7 48.0998 18.5 48.2998 18.2 48.2998C18 48.2998 17.7 48.0998 17.7 47.7998ZM14.8 47.7998C14.8 47.4998 15 47.2998 15.3 47.2998C15.6 47.2998 15.8 47.4998 15.8 47.7998C15.8 48.0998 15.6 48.2998 15.3 48.2998C15 48.2998 14.8 48.0998 14.8 47.7998ZM11.8 47.7998C11.8 47.4998 12 47.2998 12.3 47.2998C12.6 47.2998 12.8 47.4998 12.8 47.7998C12.8 48.0998 12.6 48.2998 12.3 48.2998C12 48.2998 11.8 48.0998 11.8 47.7998ZM8.80005 47.7998C8.80005 47.4998 9.00005 47.2998 9.30005 47.2998C9.60005 47.2998 9.80005 47.4998 9.80005 47.7998C9.80005 48.0998 9.60005 48.2998 9.30005 48.2998C9.00005 48.2998 8.80005 48.0998 8.80005 47.7998ZM5.80005 47.7998C5.80005 47.4998 6.00005 47.2998 6.30005 47.2998C6.60005 47.2998 6.80005 47.4998 6.80005 47.7998C6.80005 48.0998 6.60005 48.2998 6.30005 48.2998C6.00005 48.2998 5.80005 48.0998 5.80005 47.7998ZM2.80005 47.7998C2.80005 47.4998 3.00005 47.2998 3.30005 47.2998C3.60005 47.2998 3.80005 47.4998 3.80005 47.7998C3.80005 48.0998 3.60005 48.2998 3.30005 48.2998C3.00005 48.2998 2.80005 48.0998 2.80005 47.7998ZM-0.199951 47.7998C-0.199951 47.4998 4.88162e-05 47.2998 0.300049 47.2998C0.600049 47.2998 0.800049 47.4998 0.800049 47.7998C0.800049 48.0998 0.600049 48.2998 0.300049 48.2998C4.88162e-05 48.2998 -0.199951 48.0998 -0.199951 47.7998Z" fill="#AFAFAF"/>
<path d="M269.7 210.9H51.5V0H269.6V210.9H269.7ZM52.5 209.9H268.6V1H52.5V209.9Z" fill="#AFAFAF"/>
<path d="M61.2 57.8998H78.7V134.4H61.2V57.8998ZM51.5 47.2998V144.9H88.3V47.2998H51.5Z" fill="#2F2F2E"/>
<path d="M239.8 57.7998H260.4L260.7 58.8998L228.1 94.9998L263 133.5L262.6 134.6H242.2L214.3 103V134.6H196.6V57.7998H214.3V86.9998L239.8 57.7998ZM186.2 47.2998V145H269.7V47.2998H186.2Z" fill="#2F2F2E"/>
<path d="M105.6 57.5998L106.6 57.2998L151.5 96.8998V58.1998H169V134.9L168.1 135.3L123.2 95.2998V134.6H105.6V57.5998ZM95.5 47.2998V145H179V47.2998H95.5Z" fill="#2F2F2E"/>
<path d="M58 152.399C59.6 152.399 60.7 152.899 61.8 153.899C61.9 153.999 61.9 154.199 61.8 154.299L60.8 155.299C60.7 155.399 60.5 155.399 60.4 155.299C59.7 154.699 58.9 154.399 58 154.399C56 154.399 54.5 156.099 54.5 157.999C54.5 159.999 56 161.599 58 161.599C58.9 161.599 59.7 161.199 60.4 160.699C60.5 160.599 60.7 160.599 60.8 160.699L61.8 161.699C61.9 161.799 61.9 161.999 61.8 162.099C60.7 163.099 59.4 163.599 58 163.599C54.9 163.599 52.4 161.099 52.4 157.999C52.3 154.899 54.9 152.399 58 152.399Z" fill="#2F2F2E"/>
<path d="M72.5 152.399C75.6 152.399 78.1 154.899 78.1 157.999C78.1 161.099 75.6 163.599 72.5 163.599C69.4 163.599 66.9 161.099 66.9 157.999C66.9 154.899 69.4 152.399 72.5 152.399ZM72.5 161.599C74.5 161.599 76.1 159.999 76.1 157.999C76.1 155.999 74.5 154.399 72.5 154.399C70.5 154.399 68.9 155.999 68.9 157.999C68.9 159.999 70.5 161.599 72.5 161.599Z" fill="#2F2F2E"/>
<path d="M85.2 152.599C85.2 152.499 85.3 152.399 85.5 152.399H85.7C85.8 152.399 85.9 152.499 86 152.599L89.3999 159.999L92.8 152.599C92.8 152.499 92.9 152.399 93.1 152.399H93.3C93.5 152.399 93.6 152.499 93.6 152.599L95.3999 163.099C95.3999 163.299 95.3 163.499 95.1 163.499H93.7C93.6 163.499 93.3999 163.399 93.3999 163.299L92.5 157.399L89.8 163.499C89.8 163.599 89.7 163.699 89.5 163.699H89.2C89.1 163.699 88.9999 163.599 88.8999 163.499L86.1 157.399L85.2 163.299C85.2 163.399 85.0999 163.499 84.8999 163.499H83.5C83.3 163.499 83.2 163.399 83.2 163.099L85.2 152.599Z" fill="#2F2F2E"/>
<path d="M102.7 152.599C102.7 152.499 102.8 152.399 103 152.399H103.2C103.3 152.399 103.4 152.499 103.5 152.599L106.9 159.999L110.3 152.599C110.3 152.499 110.4 152.399 110.6 152.399H110.8C111 152.399 111.1 152.499 111.1 152.599L112.9 163.099C112.9 163.299 112.8 163.499 112.6 163.499H111.2C111.1 163.499 110.9 163.399 110.9 163.299L110 157.399L107.3 163.499C107.3 163.599 107.2 163.699 107 163.699H106.7C106.6 163.699 106.5 163.599 106.4 163.499L103.6 157.399L102.7 163.299C102.7 163.399 102.6 163.499 102.4 163.499H101C100.8 163.499 100.7 163.399 100.7 163.099L102.7 152.599Z" fill="#2F2F2E"/>
<path d="M119 152.8C119 152.6 119.1 152.5 119.3 152.5H120.8C121 152.5 121.1 152.6 121.1 152.8V159.2C121.1 160.5 122 161.6 123.4 161.6C124.8 161.6 125.7 160.6 125.7 159.2V152.8C125.7 152.6 125.8 152.5 126 152.5H127.5C127.7 152.5 127.8 152.6 127.8 152.8V159.3C127.8 161.7 125.9 163.6 123.4 163.6C121 163.6 119.1 161.7 119.1 159.3V152.8H119Z" fill="#2F2F2E"/>
<path d="M134.3 152.6C134.3 152.4 134.4 152.3 134.6 152.3H135L141.5 159.2V152.8C141.5 152.6 141.6 152.5 141.8 152.5H143.2C143.4 152.5 143.5 152.6 143.5 152.8V163.3C143.5 163.5 143.4 163.6 143.2 163.6H142.8L136.3 156.4V163.1C136.3 163.3 136.2 163.4 136 163.4H134.6C134.4 163.4 134.3 163.3 134.3 163.1V152.6Z" fill="#2F2F2E"/>
<path d="M150.2 152.8C150.2 152.6 150.3 152.5 150.5 152.5H152C152.2 152.5 152.3 152.6 152.3 152.8V163.1C152.3 163.3 152.2 163.4 152 163.4H150.5C150.3 163.4 150.2 163.3 150.2 163.1V152.8Z" fill="#2F2F2E"/>
<path d="M163.9 152.399C165.5 152.399 166.6 152.899 167.7 153.899C167.8 153.999 167.8 154.199 167.7 154.299L166.7 155.299C166.6 155.399 166.4 155.399 166.3 155.299C165.6 154.699 164.8 154.399 163.9 154.399C161.9 154.399 160.4 156.099 160.4 157.999C160.4 159.999 161.9 161.599 163.9 161.599C164.8 161.599 165.6 161.199 166.3 160.699C166.4 160.599 166.6 160.599 166.7 160.699L167.7 161.699C167.8 161.799 167.8 161.999 167.7 162.099C166.6 163.099 165.3 163.599 163.9 163.599C160.8 163.599 158.3 161.099 158.3 157.999C158.2 154.899 160.7 152.399 163.9 152.399Z" fill="#2F2F2E"/>
<path d="M171.4 163L176.3 152.5C176.3 152.4 176.4 152.3 176.6 152.3H176.8C177 152.3 177 152.4 177.1 152.5L181.9 163C182 163.2 181.9 163.4 181.6 163.4H180.2C180 163.4 179.9 163.3 179.7 163.1L178.9 161.4H174.2L173.4 163.1C173.3 163.3 173.2 163.4 172.9 163.4H171.5C171.4 163.4 171.3 163.2 171.4 163ZM178.1 159.7L176.5 156.3L175 159.7H178.1Z" fill="#2F2F2E"/>
<path d="M187.2 154.4H184.8C184.6 154.4 184.5 154.3 184.5 154.1V152.8C184.5 152.6 184.6 152.5 184.8 152.5H191.6C191.8 152.5 191.9 152.6 191.9 152.8V154.1C191.9 154.3 191.8 154.4 191.6 154.4H189.2V163.2C189.2 163.4 189.1 163.5 188.9 163.5H187.4C187.2 163.5 187.1 163.4 187.1 163.2V154.4H187.2Z" fill="#2F2F2E"/>
<path d="M197.4 152.8C197.4 152.6 197.5 152.5 197.7 152.5H199.2C199.4 152.5 199.5 152.6 199.5 152.8V163.1C199.5 163.3 199.4 163.4 199.2 163.4H197.7C197.5 163.4 197.4 163.3 197.4 163.1V152.8Z" fill="#2F2F2E"/>
<path d="M211.1 152.399C214.2 152.399 216.7 154.899 216.7 157.999C216.7 161.099 214.2 163.599 211.1 163.599C208 163.599 205.5 161.099 205.5 157.999C205.5 154.899 207.9 152.399 211.1 152.399ZM211.1 161.599C213.1 161.599 214.7 159.999 214.7 157.999C214.7 155.999 213.1 154.399 211.1 154.399C209.1 154.399 207.5 155.999 207.5 157.999C207.5 159.999 209.1 161.599 211.1 161.599Z" fill="#2F2F2E"/>
<path d="M222.5 152.6C222.5 152.4 222.6 152.3 222.8 152.3H223.2L229.7 159.2V152.8C229.7 152.6 229.8 152.5 230 152.5H231.4C231.6 152.5 231.7 152.6 231.7 152.8V163.3C231.7 163.5 231.6 163.6 231.4 163.6H231L224.5 156.4V163.1C224.5 163.3 224.4 163.4 224.2 163.4H222.8C222.6 163.4 222.5 163.3 222.5 163.1V152.6Z" fill="#2F2F2E"/>
<path d="M237.8 161.9L238.4 160.9C238.5 160.7 238.8 160.7 238.9 160.8C239 160.8 240.2 161.8 241.3 161.8C242.1 161.8 242.7 161.3 242.7 160.6C242.7 159.8 242 159.3 240.7 158.7C239.2 158.1 237.8 157.2 237.8 155.3C237.8 153.9 238.8 152.3 241.3 152.3C242.9 152.3 244.1 153.1 244.4 153.3C244.6 153.4 244.6 153.7 244.5 153.8L243.9 154.7C243.8 154.9 243.5 155 243.4 154.9C243.3 154.8 242.1 154 241.2 154C240.3 154 239.8 154.6 239.8 155.1C239.8 155.8 240.4 156.3 241.6 156.8C243.1 157.4 244.9 158.3 244.9 160.3C244.9 161.9 243.5 163.4 241.3 163.4C239.3 163.4 238.2 162.5 237.9 162.2C237.7 162.2 237.7 162.2 237.8 161.9Z" fill="#2F2F2E"/>
<path d="M255.6 152.399C256.7 152.399 257.5 152.699 258.2 153.399C258.3 153.499 258.3 153.599 258.2 153.699L257.4 154.599C257.3 154.699 257.2 154.699 257.1 154.599C256.7 154.199 256.2 154.099 255.7 154.099C254.5 154.099 253.6 155.099 253.6 156.299C253.6 157.499 254.5 158.499 255.7 158.499C256.2 158.499 256.8 158.299 257.1 157.999C257.2 157.899 257.3 157.899 257.4 157.999L258.2 158.899C258.3 158.999 258.3 159.099 258.2 159.199C257.5 159.899 256.5 160.199 255.6 160.199C253.5 160.199 251.7 158.499 251.7 156.399C251.7 154.099 253.4 152.399 255.6 152.399Z" fill="#2F2F2E"/>
<path d="M264.3 152.399C266.4 152.399 268.2 154.099 268.2 156.299C268.2 158.399 266.5 160.099 264.3 160.099C262.2 160.099 260.5 158.399 260.5 156.299C260.5 154.099 262.2 152.399 264.3 152.399ZM264.3 158.399C265.5 158.399 266.4 157.399 266.4 156.299C266.4 155.099 265.4 154.099 264.3 154.099C263.1 154.099 262.2 155.099 262.2 156.299C262.2 157.399 263.2 158.399 264.3 158.399Z" fill="#2F2F2E"/>
<path d="M268.1 163.5H251.9C251.8 163.5 251.7 163.4 251.7 163.3V162.2C251.7 162.1 251.8 162 251.9 162H268.1C268.2 162 268.3 162.1 268.3 162.2V163.3C268.3 163.4 268.2 163.5 268.1 163.5Z" fill="#2F2F2E"/>
<path d="M22.8001 27.7996C22.7001 27.9996 22.8001 28.0996 23.0001 28.0996H24.2001C24.3001 28.0996 24.4001 27.9996 24.4001 27.9996L26.0001 25.3996L27.6001 27.9996C27.6001 27.9996 27.7001 28.0996 27.8001 28.0996H29.0001C29.2001 28.0996 29.3001 27.8996 29.2001 27.7996L26.8001 23.9996L29.1001 20.3996C29.2001 20.2996 29.1001 20.0996 28.9001 20.0996H27.6001C27.5001 20.0996 27.4001 20.1996 27.4001 20.1996L25.9001 22.5996L24.5001 20.1996C24.5001 20.1996 24.4001 20.0996 24.3001 20.0996H23.0001C22.8001 20.0996 22.7001 20.2996 22.8001 20.3996L25.1001 23.9996L22.8001 27.7996Z" fill="#2E2E2E"/>
<path d="M22.8001 190.5C22.7001 190.7 22.8001 190.8 23.0001 190.8H24.2001C24.3001 190.8 24.4001 190.7 24.4001 190.7L26.0001 188.1L27.6001 190.7C27.6001 190.7 27.7001 190.8 27.8001 190.8H29.0001C29.2001 190.8 29.3001 190.6 29.2001 190.5L26.8001 186.7L29.1001 183.1C29.2001 183 29.1001 182.8 28.9001 182.8H27.6001C27.5001 182.8 27.4001 182.9 27.4001 182.9L25.9001 185.3L24.5001 182.9C24.5001 182.9 24.4001 182.8 24.3001 182.8H23.0001C22.8001 182.8 22.7001 183 22.8001 183.1L25.1001 186.7L22.8001 190.5Z" fill="#2E2E2E"/>
<path d="M291.7 27.7996C291.6 27.9996 291.7 28.0996 291.9 28.0996H293.1C293.2 28.0996 293.3 27.9996 293.3 27.9996L294.9 25.3996L296.5 27.9996C296.5 27.9996 296.6 28.0996 296.7 28.0996H297.9C298.1 28.0996 298.2 27.8996 298.1 27.7996L295.7 23.9996L298 20.3996C298.1 20.2996 298 20.0996 297.8 20.0996H296.5C296.4 20.0996 296.3 20.1996 296.3 20.1996L294.8 22.5996L293.3 20.1996C293.3 20.1996 293.2 20.0996 293.1 20.0996H292C291.8 20.0996 291.7 20.2996 291.8 20.3996L294.1 23.9996L291.7 27.7996Z" fill="#2E2E2E"/>
<path d="M291.7 190.5C291.6 190.7 291.7 190.8 291.9 190.8H293.1C293.2 190.8 293.3 190.7 293.3 190.7L294.9 188.1L296.5 190.7C296.5 190.7 296.6 190.8 296.7 190.8H297.9C298.1 190.8 298.2 190.6 298.1 190.5L295.7 186.7L298 183.1C298.1 183 298 182.8 297.8 182.8H296.5C296.4 182.8 296.3 182.9 296.3 182.9L294.8 185.3L293.3 182.9C293.3 182.9 293.2 182.8 293.1 182.8H292C291.8 182.8 291.7 183 291.8 183.1L294.1 186.7L291.7 190.5Z" fill="#2E2E2E"/>
</g>
<defs>
<clipPath id="clip0">
<rect width="322" height="211" fill="white"/>
</clipPath>
</defs>
</svg>
