<svg width="319" height="219" viewBox="0 0 319 219" fill="none" xmlns="http://www.w3.org/2000/svg">
<path d="M22.0363 28.7C21.9437 28.9 22.0363 29 22.2216 29H23.3329C23.4255 29 23.5182 28.9 23.5182 28.9L25 26.3L26.4818 28.9C26.4818 28.9 26.5745 29 26.6671 29H27.7784C27.9637 29 28.0563 28.8 27.9637 28.7L25.7409 24.9L27.8711 21.3C27.9637 21.2 27.8711 21 27.6858 21H26.4818C26.3892 21 26.2966 21.1 26.2966 21.1L24.9074 23.5L23.6108 21.1C23.6108 21.1 23.5182 21 23.4256 21H22.2216C22.0363 21 21.9437 21.2 22.0363 21.3L24.1665 24.9L22.0363 28.7Z" fill="#757575"/>
<path d="M291.036 28.7C290.944 28.9 291.036 29 291.222 29H292.333C292.426 29 292.518 28.9 292.518 28.9L294 26.3L295.482 28.9C295.482 28.9 295.574 29 295.667 29H296.778C296.964 29 297.056 28.8 296.964 28.7L294.741 24.9L296.871 21.3C296.964 21.2 296.871 21 296.686 21H295.482C295.389 21 295.297 21.1 295.297 21.1L293.907 23.5L292.611 21.1C292.611 21.1 292.518 21 292.426 21H291.222C291.036 21 290.944 21.2 291.036 21.3L293.166 24.9L291.036 28.7Z" fill="#757575"/>
<path d="M291.036 197.7C290.944 197.9 291.036 198 291.222 198H292.333C292.426 198 292.518 197.9 292.518 197.9L294 195.3L295.482 197.9C295.482 197.9 295.574 198 295.667 198H296.778C296.964 198 297.056 197.8 296.964 197.7L294.741 193.9L296.871 190.3C296.964 190.2 296.871 190 296.686 190H295.482C295.389 190 295.297 190.1 295.297 190.1L293.907 192.5L292.611 190.1C292.611 190.1 292.518 190 292.426 190H291.222C291.036 190 290.944 190.2 291.036 190.3L293.166 193.9L291.036 197.7Z" fill="#757575"/>
<path d="M22.0363 197.7C21.9437 197.9 22.0363 198 22.2216 198H23.3329C23.4255 198 23.5182 197.9 23.5182 197.9L25 195.3L26.4818 197.9C26.4818 197.9 26.5745 198 26.6671 198H27.7784C27.9637 198 28.0563 197.8 27.9637 197.7L25.7409 193.9L27.8711 190.3C27.9637 190.2 27.8711 190 27.6858 190H26.4818C26.3892 190 26.2966 190.1 26.2966 190.1L24.9074 192.5L23.6108 190.1C23.6108 190.1 23.5182 190 23.4256 190H22.2216C22.0363 190 21.9437 190.2 22.0363 190.3L24.1665 193.9L22.0363 197.7Z" fill="#757575"/>
<path d="M317.804 100.5C317.804 100.2 318.043 100 318.402 100C318.761 100 319 100.2 319 100.5C319 100.8 318.761 101 318.402 101C318.163 101 317.804 100.8 317.804 100.5ZM314.217 100.5C314.217 100.2 314.457 100 314.815 100C315.174 100 315.413 100.2 315.413 100.5C315.413 100.8 315.174 101 314.815 101C314.576 101 314.217 100.8 314.217 100.5ZM310.75 100.5C310.75 100.2 310.989 100 311.348 100C311.707 100 311.946 100.2 311.946 100.5C311.946 100.8 311.707 101 311.348 101C310.989 101 310.75 100.8 310.75 100.5ZM307.163 100.5C307.163 100.2 307.402 100 307.761 100C308.12 100 308.359 100.2 308.359 100.5C308.359 100.8 308.12 101 307.761 101C307.402 101 307.163 100.8 307.163 100.5ZM303.576 100.5C303.576 100.2 303.815 100 304.174 100C304.533 100 304.772 100.2 304.772 100.5C304.772 100.8 304.533 101 304.174 101C303.815 101 303.576 100.8 303.576 100.5ZM299.989 100.5C299.989 100.2 300.228 100 300.587 100C300.946 100 301.185 100.2 301.185 100.5C301.185 100.8 300.946 101 300.587 101C300.228 101 299.989 100.8 299.989 100.5ZM296.402 100.5C296.402 100.2 296.641 100 297 100C297.359 100 297.598 100.2 297.598 100.5C297.598 100.8 297.359 101 297 101C296.641 101 296.402 100.8 296.402 100.5ZM292.815 100.5C292.815 100.2 293.054 100 293.413 100C293.772 100 294.011 100.2 294.011 100.5C294.011 100.8 293.772 101 293.413 101C293.174 101 292.815 100.8 292.815 100.5ZM289.228 100.5C289.228 100.2 289.467 100 289.826 100C290.185 100 290.424 100.2 290.424 100.5C290.424 100.8 290.185 101 289.826 101C289.587 101 289.228 100.8 289.228 100.5ZM285.761 100.5C285.761 100.2 286 100 286.359 100C286.717 100 286.956 100.2 286.956 100.5C286.956 100.8 286.717 101 286.359 101C286 101 285.761 100.8 285.761 100.5ZM282.174 100.5C282.174 100.2 282.413 100 282.772 100C283.13 100 283.37 100.2 283.37 100.5C283.37 100.8 283.13 101 282.772 101C282.413 101 282.174 100.8 282.174 100.5ZM278.587 100.5C278.587 100.2 278.826 100 279.185 100C279.543 100 279.783 100.2 279.783 100.5C279.783 100.8 279.543 101 279.185 101C278.826 101 278.587 100.8 278.587 100.5ZM275 100.5C275 100.2 275.239 100 275.598 100C275.956 100 276.196 100.2 276.196 100.5C276.196 100.8 275.956 101 275.598 101C275.239 101 275 100.8 275 100.5ZM271.413 100.5C271.413 100.2 271.652 100 272.011 100C272.37 100 272.609 100.2 272.609 100.5C272.609 100.8 272.37 101 272.011 101C271.652 101 271.413 100.8 271.413 100.5ZM267.826 100.5C267.826 100.2 268.065 100 268.424 100C268.783 100 269.022 100.2 269.022 100.5C269.022 100.8 268.783 101 268.424 101C268.065 101 267.826 100.8 267.826 100.5ZM264.239 100.5C264.239 100.2 264.478 100 264.837 100C265.196 100 265.435 100.2 265.435 100.5C265.435 100.8 265.196 101 264.837 101C264.598 101 264.239 100.8 264.239 100.5ZM260.652 100.5C260.652 100.2 260.891 100 261.25 100C261.609 100 261.848 100.2 261.848 100.5C261.848 100.8 261.609 101 261.25 101C261.011 101 260.652 100.8 260.652 100.5ZM257.185 100.5C257.185 100.2 257.424 100 257.783 100C258.141 100 258.38 100.2 258.38 100.5C258.38 100.8 258.141 101 257.783 101C257.424 101 257.185 100.8 257.185 100.5ZM253.598 100.5C253.598 100.2 253.837 100 254.196 100C254.554 100 254.793 100.2 254.793 100.5C254.793 100.8 254.554 101 254.196 101C253.837 101 253.598 100.8 253.598 100.5ZM250.011 100.5C250.011 100.2 250.25 100 250.609 100C250.967 100 251.207 100.2 251.207 100.5C251.207 100.8 250.967 101 250.609 101C250.25 101 250.011 100.8 250.011 100.5ZM246.424 100.5C246.424 100.2 246.663 100 247.022 100C247.38 100 247.62 100.2 247.62 100.5C247.62 100.8 247.38 101 247.022 101C246.663 101 246.424 100.8 246.424 100.5ZM242.837 100.5C242.837 100.2 243.076 100 243.435 100C243.793 100 244.033 100.2 244.033 100.5C244.033 100.8 243.793 101 243.435 101C243.076 101 242.837 100.8 242.837 100.5ZM239.25 100.5C239.25 100.2 239.489 100 239.848 100C240.207 100 240.446 100.2 240.446 100.5C240.446 100.8 240.207 101 239.848 101C239.489 101 239.25 100.8 239.25 100.5ZM235.663 100.5C235.663 100.2 235.902 100 236.261 100C236.62 100 236.859 100.2 236.859 100.5C236.859 100.8 236.62 101 236.261 101C236.022 101 235.663 100.8 235.663 100.5ZM232.076 100.5C232.076 100.2 232.315 100 232.674 100C233.033 100 233.272 100.2 233.272 100.5C233.272 100.8 233.033 101 232.674 101C232.435 101 232.076 100.8 232.076 100.5ZM228.609 100.5C228.609 100.2 228.848 100 229.207 100C229.565 100 229.804 100.2 229.804 100.5C229.804 100.8 229.565 101 229.207 101C228.848 101 228.609 100.8 228.609 100.5ZM225.022 100.5C225.022 100.2 225.261 100 225.62 100C225.978 100 226.217 100.2 226.217 100.5C226.217 100.8 225.978 101 225.62 101C225.261 101 225.022 100.8 225.022 100.5ZM221.435 100.5C221.435 100.2 221.674 100 222.033 100C222.391 100 222.63 100.2 222.63 100.5C222.63 100.8 222.391 101 222.033 101C221.674 101 221.435 100.8 221.435 100.5ZM217.848 100.5C217.848 100.2 218.087 100 218.446 100C218.804 100 219.043 100.2 219.043 100.5C219.043 100.8 218.804 101 218.446 101C218.087 101 217.848 100.8 217.848 100.5ZM214.261 100.5C214.261 100.2 214.5 100 214.859 100C215.217 100 215.457 100.2 215.457 100.5C215.457 100.8 215.217 101 214.859 101C214.5 101 214.261 100.8 214.261 100.5ZM210.674 100.5C210.674 100.2 210.913 100 211.272 100C211.63 100 211.87 100.2 211.87 100.5C211.87 100.8 211.63 101 211.272 101C210.913 101 210.674 100.8 210.674 100.5ZM207.087 100.5C207.087 100.2 207.326 100 207.685 100C208.043 100 208.283 100.2 208.283 100.5C208.283 100.8 208.043 101 207.685 101C207.446 101 207.087 100.8 207.087 100.5ZM203.62 100.5C203.62 100.2 203.859 100 204.217 100C204.576 100 204.815 100.2 204.815 100.5C204.815 100.8 204.576 101 204.217 101C203.859 101 203.62 100.8 203.62 100.5ZM200.033 100.5C200.033 100.2 200.272 100 200.63 100C200.989 100 201.228 100.2 201.228 100.5C201.228 100.8 200.989 101 200.63 101C200.272 101 200.033 100.8 200.033 100.5ZM196.446 100.5C196.446 100.2 196.685 100 197.043 100C197.402 100 197.641 100.2 197.641 100.5C197.641 100.8 197.402 101 197.043 101C196.685 101 196.446 100.8 196.446 100.5ZM192.859 100.5C192.859 100.2 193.098 100 193.457 100C193.815 100 194.054 100.2 194.054 100.5C194.054 100.8 193.815 101 193.457 101C193.098 101 192.859 100.8 192.859 100.5ZM189.272 100.5C189.272 100.2 189.511 100 189.87 100C190.228 100 190.467 100.2 190.467 100.5C190.467 100.8 190.228 101 189.87 101C189.511 101 189.272 100.8 189.272 100.5ZM185.685 100.5C185.685 100.2 185.924 100 186.283 100C186.641 100 186.88 100.2 186.88 100.5C186.88 100.8 186.641 101 186.283 101C185.924 101 185.685 100.8 185.685 100.5ZM182.098 100.5C182.098 100.2 182.337 100 182.696 100C183.054 100 183.293 100.2 183.293 100.5C183.293 100.8 183.054 101 182.696 101C182.457 101 182.098 100.8 182.098 100.5ZM178.511 100.5C178.511 100.2 178.75 100 179.109 100C179.467 100 179.707 100.2 179.707 100.5C179.707 100.8 179.467 101 179.109 101C178.87 101 178.511 100.8 178.511 100.5ZM175.043 100.5C175.043 100.2 175.283 100 175.641 100C176 100 176.239 100.2 176.239 100.5C176.239 100.8 176 101 175.641 101C175.283 101 175.043 100.8 175.043 100.5ZM171.457 100.5C171.457 100.2 171.696 100 172.054 100C172.413 100 172.652 100.2 172.652 100.5C172.652 100.8 172.413 101 172.054 101C171.696 101 171.457 100.8 171.457 100.5ZM167.87 100.5C167.87 100.2 168.109 100 168.467 100C168.826 100 169.065 100.2 169.065 100.5C169.065 100.8 168.826 101 168.467 101C168.109 101 167.87 100.8 167.87 100.5ZM164.283 100.5C164.283 100.2 164.522 100 164.88 100C165.239 100 165.478 100.2 165.478 100.5C165.478 100.8 165.239 101 164.88 101C164.522 101 164.283 100.8 164.283 100.5ZM160.696 100.5C160.696 100.2 160.935 100 161.293 100C161.652 100 161.891 100.2 161.891 100.5C161.891 100.8 161.652 101 161.293 101C160.935 101 160.696 100.8 160.696 100.5ZM157.109 100.5C157.109 100.2 157.348 100 157.707 100C158.065 100 158.304 100.2 158.304 100.5C158.304 100.8 158.065 101 157.707 101C157.348 101 157.109 100.8 157.109 100.5ZM153.522 100.5C153.522 100.2 153.761 100 154.12 100C154.478 100 154.717 100.2 154.717 100.5C154.717 100.8 154.478 101 154.12 101C153.88 101 153.522 100.8 153.522 100.5ZM149.935 100.5C149.935 100.2 150.174 100 150.533 100C150.891 100 151.13 100.2 151.13 100.5C151.13 100.8 150.891 101 150.533 101C150.293 101 149.935 100.8 149.935 100.5ZM146.467 100.5C146.467 100.2 146.707 100 147.065 100C147.424 100 147.663 100.2 147.663 100.5C147.663 100.8 147.424 101 147.065 101C146.707 101 146.467 100.8 146.467 100.5ZM142.88 100.5C142.88 100.2 143.12 100 143.478 100C143.837 100 144.076 100.2 144.076 100.5C144.076 100.8 143.837 101 143.478 101C143.12 101 142.88 100.8 142.88 100.5ZM139.293 100.5C139.293 100.2 139.533 100 139.891 100C140.25 100 140.489 100.2 140.489 100.5C140.489 100.8 140.25 101 139.891 101C139.533 101 139.293 100.8 139.293 100.5ZM135.707 100.5C135.707 100.2 135.946 100 136.304 100C136.663 100 136.902 100.2 136.902 100.5C136.902 100.8 136.663 101 136.304 101C135.946 101 135.707 100.8 135.707 100.5ZM132.12 100.5C132.12 100.2 132.359 100 132.717 100C133.076 100 133.315 100.2 133.315 100.5C133.315 100.8 133.076 101 132.717 101C132.359 101 132.12 100.8 132.12 100.5ZM128.533 100.5C128.533 100.2 128.772 100 129.13 100C129.489 100 129.728 100.2 129.728 100.5C129.728 100.8 129.489 101 129.13 101C128.772 101 128.533 100.8 128.533 100.5ZM124.946 100.5C124.946 100.2 125.185 100 125.543 100C125.902 100 126.141 100.2 126.141 100.5C126.141 100.8 125.902 101 125.543 101C125.304 101 124.946 100.8 124.946 100.5ZM121.478 100.5C121.478 100.2 121.717 100 122.076 100C122.435 100 122.674 100.2 122.674 100.5C122.674 100.8 122.435 101 122.076 101C121.717 101 121.478 100.8 121.478 100.5ZM117.891 100.5C117.891 100.2 118.13 100 118.489 100C118.848 100 119.087 100.2 119.087 100.5C119.087 100.8 118.848 101 118.489 101C118.13 101 117.891 100.8 117.891 100.5ZM114.304 100.5C114.304 100.2 114.543 100 114.902 100C115.261 100 115.5 100.2 115.5 100.5C115.5 100.8 115.261 101 114.902 101C114.543 101 114.304 100.8 114.304 100.5ZM110.717 100.5C110.717 100.2 110.957 100 111.315 100C111.674 100 111.913 100.2 111.913 100.5C111.913 100.8 111.674 101 111.315 101C110.957 101 110.717 100.8 110.717 100.5ZM107.13 100.5C107.13 100.2 107.37 100 107.728 100C108.087 100 108.326 100.2 108.326 100.5C108.326 100.8 108.087 101 107.728 101C107.37 101 107.13 100.8 107.13 100.5ZM103.543 100.5C103.543 100.2 103.783 100 104.141 100C104.5 100 104.739 100.2 104.739 100.5C104.739 100.8 104.5 101 104.141 101C103.783 101 103.543 100.8 103.543 100.5ZM99.9565 100.5C99.9565 100.2 100.196 100 100.554 100C100.913 100 101.152 100.2 101.152 100.5C101.152 100.8 100.913 101 100.554 101C100.315 101 99.9565 100.8 99.9565 100.5ZM96.3696 100.5C96.3696 100.2 96.6087 100 96.9674 100C97.3261 100 97.5652 100.2 97.5652 100.5C97.5652 100.8 97.3261 101 96.9674 101C96.7282 101 96.3696 100.8 96.3696 100.5ZM92.9022 100.5C92.9022 100.2 93.1413 100 93.5 100C93.8587 100 94.0978 100.2 94.0978 100.5C94.0978 100.8 93.8587 101 93.5 101C93.1413 101 92.9022 100.8 92.9022 100.5ZM89.3152 100.5C89.3152 100.2 89.5543 100 89.913 100C90.2717 100 90.5109 100.2 90.5109 100.5C90.5109 100.8 90.2717 101 89.913 101C89.5543 101 89.3152 100.8 89.3152 100.5ZM85.7283 100.5C85.7283 100.2 85.9674 100 86.3261 100C86.6848 100 86.9239 100.2 86.9239 100.5C86.9239 100.8 86.6848 101 86.3261 101C85.9674 101 85.7283 100.8 85.7283 100.5ZM82.1413 100.5C82.1413 100.2 82.3804 100 82.7391 100C83.0978 100 83.3369 100.2 83.3369 100.5C83.3369 100.8 83.0978 101 82.7391 101C82.3804 101 82.1413 100.8 82.1413 100.5ZM78.5543 100.5C78.5543 100.2 78.7935 100 79.1522 100C79.5109 100 79.75 100.2 79.75 100.5C79.75 100.8 79.5109 101 79.1522 101C78.7935 101 78.5543 100.8 78.5543 100.5ZM74.9674 100.5C74.9674 100.2 75.2065 100 75.5652 100C75.9239 100 76.163 100.2 76.163 100.5C76.163 100.8 75.9239 101 75.5652 101C75.2065 101 74.9674 100.8 74.9674 100.5ZM71.3804 100.5C71.3804 100.2 71.6196 100 71.9783 100C72.337 100 72.5761 100.2 72.5761 100.5C72.5761 100.8 72.337 101 71.9783 101C71.7391 101 71.3804 100.8 71.3804 100.5ZM67.7935 100.5C67.7935 100.2 68.0326 100 68.3913 100C68.75 100 68.9891 100.2 68.9891 100.5C68.9891 100.8 68.75 101 68.3913 101C68.1522 101 67.7935 100.8 67.7935 100.5ZM64.3261 100.5C64.3261 100.2 64.5652 100 64.9239 100C65.2826 100 65.5217 100.2 65.5217 100.5C65.5217 100.8 65.2826 101 64.9239 101C64.5652 101 64.3261 100.8 64.3261 100.5ZM60.7391 100.5C60.7391 100.2 60.9783 100 61.337 100C61.6956 100 61.9348 100.2 61.9348 100.5C61.9348 100.8 61.6956 101 61.337 101C60.9783 101 60.7391 100.8 60.7391 100.5ZM57.1522 100.5C57.1522 100.2 57.3913 100 57.75 100C58.1087 100 58.3478 100.2 58.3478 100.5C58.3478 100.8 58.1087 101 57.75 101C57.3913 101 57.1522 100.8 57.1522 100.5ZM53.5652 100.5C53.5652 100.2 53.8043 100 54.163 100C54.5217 100 54.7609 100.2 54.7609 100.5C54.7609 100.8 54.5217 101 54.163 101C53.8043 101 53.5652 100.8 53.5652 100.5ZM49.9783 100.5C49.9783 100.2 50.2174 100 50.5761 100C50.9348 100 51.1739 100.2 51.1739 100.5C51.1739 100.8 50.9348 101 50.5761 101C50.2174 101 49.9783 100.8 49.9783 100.5ZM46.3913 100.5C46.3913 100.2 46.6304 100 46.9891 100C47.3478 100 47.587 100.2 47.587 100.5C47.587 100.8 47.3478 101 46.9891 101C46.6304 101 46.3913 100.8 46.3913 100.5ZM42.8043 100.5C42.8043 100.2 43.0435 100 43.4022 100C43.7609 100 44 100.2 44 100.5C44 100.8 43.7609 101 43.4022 101C43.163 101 42.8043 100.8 42.8043 100.5ZM39.2174 100.5C39.2174 100.2 39.4565 100 39.8152 100C40.1739 100 40.413 100.2 40.413 100.5C40.413 100.8 40.1739 101 39.8152 101C39.5761 101 39.2174 100.8 39.2174 100.5ZM35.75 100.5C35.75 100.2 35.9891 100 36.3478 100C36.7065 100 36.9456 100.2 36.9456 100.5C36.9456 100.8 36.7065 101 36.3478 101C35.9891 101 35.75 100.8 35.75 100.5ZM32.163 100.5C32.163 100.2 32.4022 100 32.7609 100C33.1196 100 33.3587 100.2 33.3587 100.5C33.3587 100.8 33.1196 101 32.7609 101C32.4022 101 32.163 100.8 32.163 100.5ZM28.5761 100.5C28.5761 100.2 28.8152 100 29.1739 100C29.5326 100 29.7717 100.2 29.7717 100.5C29.7717 100.8 29.5326 101 29.1739 101C28.8152 101 28.5761 100.8 28.5761 100.5ZM24.9891 100.5C24.9891 100.2 25.2283 100 25.587 100C25.9456 100 26.1848 100.2 26.1848 100.5C26.1848 100.8 25.9456 101 25.587 101C25.2283 101 24.9891 100.8 24.9891 100.5ZM21.4022 100.5C21.4022 100.2 21.6413 100 22 100C22.3587 100 22.5978 100.2 22.5978 100.5C22.5978 100.8 22.3587 101 22 101C21.6413 101 21.4022 100.8 21.4022 100.5ZM17.8152 100.5C17.8152 100.2 18.0543 100 18.413 100C18.7717 100 19.0109 100.2 19.0109 100.5C19.0109 100.8 18.7717 101 18.413 101C18.1739 101 17.8152 100.8 17.8152 100.5ZM14.2283 100.5C14.2283 100.2 14.4674 100 14.8261 100C15.1848 100 15.4239 100.2 15.4239 100.5C15.4239 100.8 15.1848 101 14.8261 101C14.587 101 14.2283 100.8 14.2283 100.5ZM10.7609 100.5C10.7609 100.2 11 100 11.3587 100C11.7174 100 11.9565 100.2 11.9565 100.5C11.9565 100.8 11.7174 101 11.3587 101C11 101 10.7609 100.8 10.7609 100.5ZM7.17391 100.5C7.17391 100.2 7.41304 100 7.77174 100C8.13043 100 8.36956 100.2 8.36956 100.5C8.36956 100.8 8.13043 101 7.77174 101C7.41304 101 7.17391 100.8 7.17391 100.5ZM3.58696 100.5C3.58696 100.2 3.82609 100 4.18478 100C4.54348 100 4.78261 100.2 4.78261 100.5C4.78261 100.8 4.54348 101 4.18478 101C3.82609 101 3.58696 100.8 3.58696 100.5ZM0 100.5C0 100.2 0.23913 100 0.597826 100C0.956522 100 1.19565 100.2 1.19565 100.5C1.19565 100.8 0.956522 101 0.597826 101C0.23913 101 0 100.8 0 100.5Z" fill="#E2E2E2"/>
<rect x="0.5" y="0.5" width="318" height="218" stroke="#C4C4C4"/>
<rect x="50.5" y="0.5" width="218" height="218" stroke="#C4C4C4"/>
<rect x="0.5" y="50.5" width="318" height="118" stroke="#C4C4C4"/>
<path fill-rule="evenodd" clip-rule="evenodd" d="M50 50V149.868H86.9276V50H50ZM77.3063 139.067H59.713V60.8015H77.3063V139.067Z" fill="#2F2F2E"/>
<path fill-rule="evenodd" clip-rule="evenodd" d="M59.7129 60.8027H77.3062V139.068H59.7129V60.8027Z" fill="white"/>
<path fill-rule="evenodd" clip-rule="evenodd" d="M185.157 50V149.96H269V50H185.157ZM261.944 139.25H241.51L213.563 106.937V139.25H195.786V60.71H213.563V90.5515L239.128 60.71H259.837L260.203 61.8084L227.491 98.6984L262.494 138.06L261.944 139.25Z" fill="#2F2F2E"/>
<path fill-rule="evenodd" clip-rule="evenodd" d="M262.311 138.151L261.944 139.25H241.419L213.471 106.937V139.25H195.694V60.71H213.471V90.5514L239.036 60.71H259.745L260.02 61.8084L227.307 98.6983L262.311 138.151Z" fill="white"/>
<path fill-rule="evenodd" clip-rule="evenodd" d="M94.1665 50V149.96H177.918V50H94.1665ZM167.838 139.616L166.922 140.074L121.931 99.1561V139.341H104.246V60.5269L105.254 60.1608L150.337 100.712V61.1677H167.838V139.616Z" fill="#2F2F2E"/>
<path fill-rule="evenodd" clip-rule="evenodd" d="M167.839 61.1681V139.616L167.014 140.074L121.931 99.1564V139.433H104.246V60.5273L105.254 60.1611L150.337 100.713V61.1681H167.839Z" fill="white"/>
<path d="M56.5051 157.466C57.2382 157.466 57.8796 157.557 58.521 157.832C59.1625 158.107 59.8039 158.473 60.2621 158.93L60.3537 159.022V159.114V159.205C60.3537 159.205 60.3537 159.297 60.2621 159.297L59.3457 160.304L59.2541 160.395H59.1625H59.0708C59.0708 160.395 58.9792 160.395 58.9792 160.304C58.3378 159.663 57.4215 159.388 56.5968 159.388C55.6805 159.388 54.7641 159.846 54.1227 160.487C53.4813 161.219 53.1148 162.134 53.1148 163.05C53.1148 163.965 53.4813 164.972 54.1227 165.613C54.7641 166.345 55.6805 166.711 56.5968 166.711C57.5131 166.711 58.3378 166.345 58.9792 165.796C59.0708 165.704 59.0708 165.704 59.1625 165.704C59.2541 165.704 59.3457 165.704 59.3457 165.796L60.3537 166.803L60.4453 166.894V166.986V167.077C60.4453 167.077 60.4453 167.169 60.3537 167.169C59.3457 168.176 57.9713 168.725 56.5051 168.725C55.039 168.725 53.5729 168.084 52.4733 167.077C51.3738 165.979 50.824 164.514 50.824 163.05C50.824 161.585 51.3738 160.029 52.4733 159.022C53.4813 158.015 54.9474 157.466 56.5051 157.466V157.466Z" fill="#2F2F2E"/>
<path d="M71.0754 157.466C72.175 157.466 73.2745 157.832 74.1909 158.381C75.1072 159.022 75.8402 159.937 76.2984 160.944C76.7566 161.951 76.8482 163.141 76.6649 164.24C76.4817 165.338 75.9319 166.345 75.1072 167.169C74.2825 167.993 73.2745 168.542 72.2666 168.725C71.167 168.908 70.0674 168.817 68.9679 168.45C67.8683 168.084 67.0436 167.26 66.4022 166.345C65.7607 165.43 65.4858 164.331 65.4858 163.141C65.4858 162.409 65.6691 161.677 65.944 160.944C66.2189 160.212 66.6771 159.571 67.1352 159.114C67.685 158.564 68.2348 158.198 68.9679 157.832C69.6093 157.557 70.3423 157.466 71.0754 157.466V157.466ZM71.0754 166.894C71.8084 166.894 72.4499 166.711 73.0913 166.253C73.6411 165.887 74.1909 165.247 74.4658 164.606C74.7407 163.965 74.8323 163.233 74.649 162.5C74.4658 161.768 74.1909 161.127 73.6411 160.578C73.0913 160.029 72.4499 159.754 71.8084 159.571C71.0754 159.388 70.3423 159.48 69.7009 159.754C69.0595 160.029 68.5097 160.487 68.0515 161.127C67.685 161.768 67.4101 162.409 67.4101 163.141C67.4101 164.148 67.7766 165.063 68.5097 165.704C69.1511 166.437 70.0674 166.894 71.0754 166.894V166.894Z" fill="#2F2F2E"/>
<path d="M83.8123 157.648C83.8123 157.556 83.8122 157.556 83.9039 157.465C83.9955 157.465 83.9955 157.373 84.0871 157.373H84.362H84.5453C84.6369 157.373 84.6369 157.465 84.6369 157.465L88.1189 164.971L91.601 157.465C91.601 157.373 91.6926 157.373 91.6926 157.373H91.8758H92.1507C92.2424 157.373 92.2424 157.373 92.334 157.465C92.4256 157.465 92.4256 157.556 92.4256 157.648L94.2583 168.358V168.541C94.2583 168.632 94.2583 168.632 94.1666 168.632L94.075 168.724H93.9834H92.5173C92.4256 168.724 92.4256 168.724 92.334 168.632C92.2424 168.632 92.2424 168.541 92.2424 168.449L91.3261 162.408H91.2344L88.4855 168.724C88.4855 168.815 88.3938 168.815 88.3938 168.815C88.3022 168.815 88.3022 168.907 88.2106 168.815H87.9357C87.8441 168.815 87.844 168.815 87.7524 168.815C87.6608 168.815 87.6608 168.724 87.6608 168.724L84.9118 162.408H84.8202L83.9039 168.449C83.9039 168.541 83.8123 168.541 83.8123 168.632C83.7206 168.632 83.7206 168.724 83.629 168.724H82.2545H82.1629L82.0712 168.632L81.9796 168.541C81.9796 168.541 81.9796 168.449 81.9796 168.358L83.8123 157.648Z" fill="#2F2F2E"/>
<path d="M101.405 157.648C101.405 157.556 101.405 157.556 101.497 157.465C101.589 157.465 101.589 157.373 101.68 157.373H101.955H102.138C102.23 157.373 102.23 157.465 102.23 157.465L105.712 164.971L109.194 157.465C109.194 157.373 109.286 157.373 109.286 157.373H109.469H109.744C109.836 157.373 109.836 157.373 109.927 157.465C110.019 157.465 110.019 157.556 110.019 157.648L111.851 168.358V168.449C111.851 168.541 111.851 168.541 111.76 168.541L111.668 168.632H111.577H110.11C110.019 168.632 110.019 168.632 109.927 168.541C109.836 168.541 109.836 168.449 109.836 168.358L108.919 162.316H108.828L106.079 168.632C106.079 168.724 105.987 168.724 105.987 168.724C105.895 168.724 105.895 168.815 105.804 168.724H105.529C105.437 168.724 105.437 168.724 105.346 168.724C105.254 168.724 105.254 168.632 105.254 168.632L102.505 162.316L101.589 168.358C101.589 168.449 101.497 168.449 101.497 168.541C101.405 168.541 101.405 168.632 101.314 168.632H99.9393H99.8477L99.7561 168.541L99.6644 168.449V168.358L101.405 157.648Z" fill="#2F2F2E"/>
<path d="M117.716 157.923C117.716 157.832 117.716 157.74 117.808 157.74C117.899 157.648 117.899 157.648 117.991 157.648H119.457C119.549 157.648 119.64 157.648 119.64 157.74C119.732 157.832 119.732 157.832 119.732 157.923V164.422C119.732 164.697 119.732 165.063 119.915 165.338C120.007 165.612 120.19 165.887 120.373 166.162C120.557 166.345 120.831 166.528 121.106 166.711C121.381 166.802 121.656 166.894 122.023 166.894C122.389 166.894 122.664 166.802 122.939 166.711C123.214 166.619 123.489 166.436 123.672 166.162C123.855 165.978 124.039 165.704 124.13 165.338C124.222 165.063 124.314 164.697 124.314 164.422V157.923C124.314 157.832 124.314 157.74 124.405 157.74C124.497 157.648 124.497 157.648 124.588 157.648H126.146C126.238 157.648 126.329 157.648 126.329 157.74C126.421 157.832 126.421 157.832 126.421 157.923V164.605C126.421 165.795 125.963 166.894 125.138 167.718C124.314 168.542 123.214 168.999 122.023 168.999C120.831 168.999 119.732 168.542 118.907 167.718C118.083 166.894 117.624 165.795 117.624 164.605L117.716 157.923Z" fill="#2F2F2E"/>
<path d="M133.019 157.74V157.649C133.019 157.649 133.019 157.557 133.11 157.557L133.202 157.466H133.293H133.66L140.166 164.514V157.924C140.166 157.832 140.166 157.74 140.257 157.74C140.349 157.649 140.349 157.649 140.441 157.649H141.907C141.998 157.649 142.09 157.649 142.09 157.74C142.182 157.832 142.182 157.832 142.182 157.924V168.633C142.182 168.725 142.182 168.817 142.09 168.817C141.998 168.908 141.998 168.908 141.907 168.908H141.632L135.034 161.585V168.45C135.034 168.542 135.034 168.633 134.943 168.633C134.851 168.725 134.851 168.725 134.76 168.725H133.385C133.293 168.725 133.202 168.725 133.202 168.633C133.11 168.542 133.11 168.542 133.11 168.45V157.74H133.019Z" fill="#2F2F2E"/>
<path d="M149.146 157.923C149.146 157.832 149.146 157.74 149.237 157.74C149.329 157.648 149.329 157.648 149.421 157.648H150.887C150.978 157.648 151.07 157.648 151.07 157.74C151.162 157.832 151.162 157.832 151.162 157.923V168.541C151.162 168.633 151.162 168.725 151.07 168.725C150.978 168.816 150.978 168.816 150.887 168.816H149.421C149.329 168.816 149.237 168.816 149.237 168.725C149.146 168.633 149.146 168.633 149.146 168.541V157.923Z" fill="#2F2F2E"/>
<path d="M162.799 157.466C164.173 157.466 165.548 157.924 166.556 158.93L166.648 159.022V159.114V159.205C166.648 159.205 166.648 159.297 166.556 159.297L165.64 160.304L165.548 160.395H165.456H165.365C165.365 160.395 165.273 160.395 165.273 160.304C164.632 159.663 163.715 159.388 162.891 159.388C161.974 159.388 161.058 159.846 160.417 160.487C159.775 161.219 159.409 162.134 159.409 163.05C159.409 163.965 159.775 164.972 160.417 165.613C161.058 166.345 161.974 166.711 162.891 166.711C163.807 166.711 164.632 166.345 165.273 165.796C165.365 165.704 165.365 165.704 165.456 165.704C165.548 165.704 165.64 165.704 165.64 165.796L166.648 166.803L166.739 166.894V166.986V167.077C166.739 167.077 166.739 167.169 166.648 167.169C165.64 168.176 164.265 168.725 162.799 168.725C161.333 168.725 159.867 168.084 158.767 167.077C157.668 165.979 157.118 164.514 157.118 163.05C157.118 161.585 157.668 160.029 158.767 159.022C159.775 158.015 161.241 157.466 162.799 157.466V157.466Z" fill="#2F2F2E"/>
<path d="M170.313 168.359L175.169 157.649C175.169 157.557 175.261 157.557 175.261 157.557C175.352 157.557 175.352 157.466 175.444 157.466H175.627H175.811C175.902 157.466 175.902 157.557 175.902 157.557L180.759 168.267V168.45V168.633L180.667 168.725C180.667 168.725 180.576 168.725 180.484 168.725H179.109C179.018 168.725 178.926 168.725 178.835 168.633C178.743 168.542 178.651 168.45 178.651 168.359L177.918 166.62H173.245L172.512 168.359C172.512 168.45 172.42 168.542 172.329 168.633C172.237 168.725 172.145 168.725 172.054 168.725H170.679C170.588 168.725 170.588 168.725 170.496 168.725C170.404 168.725 170.404 168.633 170.404 168.633C170.404 168.633 170.404 168.542 170.404 168.45C170.313 168.45 170.313 168.45 170.313 168.359ZM177.093 164.972L175.536 161.494L173.978 164.972H177.093Z" fill="#2F2F2E"/>
<path d="M186.165 159.479H183.782H183.691C183.691 159.479 183.599 159.479 183.599 159.388L183.508 159.296V159.205V157.923C183.508 157.832 183.508 157.74 183.599 157.74C183.691 157.648 183.691 157.648 183.782 157.648H190.655C190.746 157.648 190.838 157.648 190.838 157.74C190.93 157.832 190.93 157.832 190.93 157.923V159.205V159.296C190.93 159.296 190.93 159.388 190.838 159.388L190.746 159.479H190.655H188.272V168.45C188.272 168.541 188.272 168.633 188.181 168.633C188.089 168.725 188.089 168.725 187.998 168.725H186.531C186.44 168.725 186.348 168.725 186.348 168.633C186.257 168.542 186.257 168.541 186.257 168.45L186.165 159.479Z" fill="#2F2F2E"/>
<path d="M196.519 157.923C196.519 157.832 196.519 157.74 196.611 157.74C196.703 157.648 196.703 157.648 196.794 157.648H198.26C198.352 157.648 198.444 157.648 198.444 157.74C198.535 157.832 198.535 157.832 198.535 157.923V168.541C198.535 168.633 198.535 168.725 198.444 168.725C198.352 168.816 198.352 168.816 198.26 168.816H196.794C196.703 168.816 196.611 168.816 196.611 168.725C196.519 168.633 196.519 168.633 196.519 168.541V157.923Z" fill="#2F2F2E"/>
<path d="M210.173 157.466C211.272 157.466 212.372 157.832 213.288 158.381C214.204 159.022 214.938 159.937 215.396 160.944C215.854 161.951 215.945 163.141 215.762 164.24C215.579 165.338 215.029 166.345 214.204 167.169C213.38 167.993 212.372 168.542 211.364 168.725C210.356 168.908 209.165 168.817 208.065 168.45C207.057 167.993 206.141 167.26 205.499 166.345C204.858 165.43 204.583 164.331 204.583 163.141C204.583 162.409 204.766 161.677 205.041 160.944C205.316 160.212 205.774 159.571 206.233 159.114C206.782 158.564 207.332 158.198 208.065 157.832C208.707 157.557 209.44 157.466 210.173 157.466V157.466ZM210.173 166.894C210.906 166.894 211.547 166.711 212.189 166.253C212.738 165.887 213.288 165.247 213.563 164.606C213.838 163.965 213.93 163.233 213.746 162.5C213.563 161.768 213.288 161.127 212.738 160.578C212.189 160.029 211.547 159.754 210.906 159.571C210.173 159.388 209.44 159.48 208.798 159.754C208.157 160.029 207.607 160.487 207.149 161.127C206.782 161.768 206.507 162.409 206.507 163.141C206.507 164.148 206.874 165.063 207.607 165.704C208.34 166.437 209.256 166.894 210.173 166.894V166.894Z" fill="#2F2F2E"/>
<path d="M221.626 157.74C221.626 157.649 221.626 157.557 221.718 157.557C221.81 157.466 221.81 157.466 221.901 157.466H222.268L228.774 164.514V157.924C228.774 157.832 228.774 157.74 228.865 157.74C228.957 157.649 228.957 157.649 229.049 157.649H230.515C230.606 157.649 230.698 157.649 230.698 157.74C230.79 157.832 230.79 157.832 230.79 157.924V168.633C230.79 168.725 230.79 168.817 230.698 168.817C230.606 168.908 230.606 168.908 230.515 168.908H230.148L223.551 161.585V168.45C223.551 168.542 223.551 168.633 223.459 168.633C223.367 168.725 223.367 168.725 223.276 168.725H221.81C221.718 168.725 221.626 168.725 221.626 168.633C221.535 168.542 221.535 168.542 221.535 168.45V157.74H221.626Z" fill="#2F2F2E"/>
<path d="M237.021 167.259L237.57 166.252C237.57 166.16 237.662 166.16 237.662 166.16C237.662 166.16 237.754 166.069 237.845 166.069H238.028C238.12 166.069 238.12 166.069 238.212 166.16C238.303 166.252 239.586 167.167 240.594 167.167C240.777 167.167 240.961 167.167 241.144 167.076C241.327 166.984 241.419 166.893 241.602 166.801C241.785 166.71 241.877 166.527 241.969 166.344C242.06 166.16 242.06 165.977 242.152 165.794C242.152 164.97 241.51 164.421 240.136 163.872C238.67 163.231 237.204 162.316 237.204 160.394C237.204 158.929 238.212 157.281 240.686 157.281C241.785 157.281 242.885 157.647 243.801 158.38C243.893 158.471 243.893 158.563 243.985 158.654C243.985 158.746 243.985 158.837 243.893 158.929L243.251 159.844C243.16 159.936 243.16 160.027 242.977 160.027C242.885 160.027 242.793 160.027 242.702 160.027C242.61 159.936 241.419 159.112 240.503 159.112C240.136 159.112 239.861 159.204 239.586 159.387C239.311 159.57 239.128 159.936 239.128 160.21C239.128 160.943 239.678 161.492 240.961 162.041C242.518 162.682 244.259 163.597 244.259 165.611C244.259 167.259 242.885 168.815 240.686 168.815C239.403 168.815 238.212 168.449 237.204 167.534C236.929 167.534 236.837 167.442 237.021 167.259V167.259Z" fill="#2F2F2E"/>
<path d="M254.889 157.466C255.347 157.466 255.805 157.557 256.263 157.74C256.722 157.924 257.088 158.198 257.455 158.473C257.455 158.473 257.455 158.473 257.546 158.564V158.656V158.747C257.546 158.747 257.546 158.839 257.455 158.839L256.63 159.754L256.538 159.846C256.447 159.846 256.447 159.846 256.447 159.754C256.08 159.388 255.53 159.205 254.98 159.205C254.431 159.205 253.881 159.48 253.423 159.846C252.965 160.304 252.781 160.853 252.781 161.402C252.781 161.951 253.056 162.592 253.423 162.958C253.881 163.416 254.431 163.599 254.98 163.599C255.53 163.599 255.988 163.416 256.447 163.05C256.447 163.05 256.538 162.958 256.63 162.958C256.721 162.958 256.721 162.958 256.813 163.05L257.638 163.965C257.638 163.965 257.729 164.057 257.729 164.148C257.729 164.24 257.729 164.24 257.638 164.331C256.905 165.063 255.988 165.43 254.98 165.43C253.973 165.43 252.965 164.972 252.232 164.24C251.498 163.507 251.132 162.5 251.132 161.494C251.132 160.487 251.498 159.48 252.232 158.747C252.873 157.832 253.881 157.466 254.889 157.466Z" fill="#2F2F2E"/>
<path d="M263.686 157.466C264.419 157.466 265.243 157.649 265.885 158.107C266.526 158.564 266.984 159.114 267.351 159.846C267.626 160.578 267.717 161.402 267.534 162.134C267.351 162.867 266.984 163.599 266.435 164.148C265.885 164.697 265.243 165.063 264.419 165.247C263.686 165.43 262.861 165.338 262.219 165.063C261.486 164.789 260.937 164.24 260.478 163.599C260.02 162.958 259.837 162.226 259.837 161.402C259.837 160.853 259.929 160.395 260.112 159.846C260.295 159.388 260.57 158.93 260.937 158.564C261.303 158.198 261.761 157.924 262.219 157.74C262.678 157.557 263.136 157.466 263.686 157.466V157.466ZM263.686 163.599C264.144 163.599 264.51 163.507 264.877 163.233C265.243 162.958 265.518 162.684 265.701 162.226C265.885 161.86 265.885 161.402 265.793 160.944C265.701 160.487 265.518 160.12 265.243 159.846C264.968 159.571 264.602 159.297 264.144 159.205C263.686 159.114 263.319 159.205 262.861 159.297C262.494 159.48 262.128 159.754 261.853 160.12C261.578 160.487 261.486 160.944 261.486 161.31C261.486 161.86 261.761 162.409 262.128 162.867C262.586 163.324 263.136 163.599 263.686 163.599V163.599Z" fill="#2F2F2E"/>
<path d="M267.442 167.351H251.223C251.132 167.351 251.04 167.442 251.04 167.534V168.632C251.04 168.724 251.132 168.815 251.223 168.815H267.442C267.534 168.815 267.626 168.724 267.626 168.632V167.534C267.626 167.442 267.534 167.351 267.442 167.351Z" fill="#2F2F2E"/>
</svg>
