<svg width="158" height="72" viewBox="0 0 158 72" fill="none" xmlns="http://www.w3.org/2000/svg">
<path fill-rule="evenodd" clip-rule="evenodd" d="M0 71.3974V0L26.5918 0.00398153V71.3974H0ZM6.98969 63.6669H19.6098V7.7384H6.98969V63.6669Z" fill="#2F2F2E"/>
<path fill-rule="evenodd" clip-rule="evenodd" d="M97.2048 71.485L97.2205 0.00398153L157.5 0L157.488 71.4969L97.2048 71.485ZM104.796 7.66292V63.8342L117.569 63.8103V40.6985L137.686 63.8103H152.4L152.718 63.0142L127.529 34.8469L151.052 8.44313L150.817 7.647H135.926L117.549 28.9914V7.66292H104.796Z" fill="#2F2F2E"/>
<path fill-rule="evenodd" clip-rule="evenodd" d="M31.7585 71.473L31.7703 0L92.0341 0.00398153L92.0184 71.485L31.7585 71.473ZM39.7423 7.25671L72.157 36.2599V7.99711H84.7732V64.0848L84.1406 64.4033L51.7299 35.1612V63.9256H39.0351V7.49554L39.7423 7.25671Z" fill="#2F2F2E"/>
</svg>
