<svg width="47" height="62" viewBox="0 0 47 62" fill="none" xmlns="http://www.w3.org/2000/svg">
<path d="M32.5 1H5C2.79086 1 1 2.79086 1 5V57C1 59.2091 2.79086 61 5 61H42C44.2091 61 46 59.2091 46 57V14.5M32.5 1V14.5H46M32.5 1L46 14.5" stroke="#F0915B" stroke-width="2" stroke-linejoin="round"/>
<path d="M25 46C25 50.9706 20.9706 55 16 55C11.0294 55 7 50.9706 7 46C7 41.0294 11.0294 37 16 37M25 46C25 41.0294 20.9706 37 16 37M25 46H16V37" stroke="#F0915B" stroke-width="2" stroke-linejoin="round"/>
</svg>
