<svg width="44" height="62" viewBox="0 0 44 62" fill="none" xmlns="http://www.w3.org/2000/svg">
<path d="M29.5 1H5C2.79086 1 1 2.79086 1 5V57C1 59.2091 2.79086 61 5 61H39C41.2091 61 43 59.2091 43 57V14.5M29.5 1V11.5C29.5 13.1569 30.8431 14.5 32.5 14.5H43M29.5 1L43 14.5" stroke="#EB3131" stroke-width="2" stroke-linejoin="round"/>
<path d="M13.5555 36.0547C19.1517 34.7019 10.4593 58.9077 6.45927 54.9079C2.45924 50.908 26.5 45 24.5 51C22.5 57 7.95925 37.4076 13.5555 36.0547Z" stroke="#EB3131" stroke-width="2"/>
</svg>
